<svg width="203" height="35" viewBox="0 0 203 35" fill="none" xmlns="http://www.w3.org/2000/svg">
<path d="M0 3.21075C1.07404 3.16422 2.05468 3.02465 3.03532 3.02465C6.8645 3.02465 10.7404 3.02465 14.5696 2.97812C17.5115 2.9316 20.4534 2.79202 23.4887 2.69897C23.8623 5.16478 23.6755 7.58406 23.7689 10.0964C22.0411 10.1429 20.4534 10.236 18.7723 10.2825C18.7256 10.7943 18.6789 11.1665 18.6789 11.4921C18.7256 13.3996 18.8657 15.2606 18.8657 17.1681C18.8657 20.3783 19.1926 23.5885 18.8657 26.8453C18.4454 30.5672 15.5502 33.7309 11.6276 34.4753C9.15267 34.9406 6.8178 34.5218 4.66973 33.1726C2.66175 31.9165 1.40092 30.102 0.747157 27.8223C0.280184 26.1474 0.233486 24.4725 0.233486 22.7511C0.140092 19.2618 0.0466973 15.7259 0 12.2365C0 9.25895 0 6.28137 0 3.21075Z" fill="white"/>
<path d="M37.6845 9.16578C39.4123 9.30536 41.0467 9.39841 42.7278 9.53798C44.3622 9.67755 45.9966 9.7706 47.7711 9.91018C47.7711 12.469 47.4442 15.0279 47.3041 17.6798C45.5296 17.6333 43.8952 17.5867 42.2141 17.4937C40.5797 17.4006 38.9453 17.3076 37.2642 17.2145C36.9373 19.2151 36.8439 21.0761 36.7972 23.1232C39.9726 23.4023 43.0547 23.6349 46.1367 23.9141C46.5103 28.2409 45.016 31.5907 41.2335 33.5447C35.6765 36.4292 28.9521 33.4516 27.4578 27.4034C27.2243 26.5195 27.1776 25.589 27.2243 24.6585C27.3177 22.0066 27.4578 19.3082 27.6446 16.6562C27.878 12.2829 28.1582 7.90962 28.3917 3.5363C28.3917 3.1641 28.4384 2.79191 28.4851 2.32666C29.5591 2.32666 30.5865 2.32666 31.6138 2.37318C32.828 2.41971 33.9954 2.55928 35.1628 2.65233C35.7699 2.69886 36.4236 2.65233 37.0774 2.65233C37.9647 2.69886 38.0581 2.79191 38.0114 3.62935C37.918 5.16466 37.8246 6.65345 37.7312 8.18877C37.6845 8.51444 37.6845 8.79359 37.6845 9.16578Z" fill="white"/>
<path d="M69.0654 15.4002C66.0768 15.6793 63.1815 15.912 60.1929 16.1911C60.7066 22.1928 61.1736 28.1479 61.6405 34.0566C60.6599 34.4288 53.4685 35.0801 52.0676 34.894C51.9742 33.7774 51.8341 32.6608 51.7407 31.4977C51.5539 28.7528 51.3671 26.0078 51.1803 23.2629C50.9002 19.7735 50.5733 16.3307 50.3398 12.8413C50.2464 11.2595 50.1997 9.63114 50.7601 8.09583C52.0209 4.74605 54.8227 2.3733 58.5118 2.04762C61.2203 1.815 63.6018 2.41982 65.7032 4.18776C67.4777 5.67655 68.4583 7.53753 68.6918 9.86377C68.8786 11.3991 69.0187 12.9809 69.2055 14.5162C69.1588 14.7489 69.1121 14.935 69.0654 15.4002Z" fill="white"/>
<path d="M129.277 2.37274C129.324 2.97756 129.37 3.4428 129.37 3.90805C129.324 7.07173 129.324 10.2354 129.277 13.3991C129.23 16.3767 129.23 19.3542 129.183 22.2853C129.183 23.0297 129.37 23.6345 130.164 23.9602C130.818 24.2393 131.378 24.658 131.985 24.9837C132.592 25.3094 132.919 25.7281 132.873 26.4725C132.779 28.5661 132.779 30.6132 132.732 32.7068C132.732 33.2651 132.686 33.8234 132.686 34.5213C130.584 33.5908 128.903 32.2416 126.942 31.2645C126.708 31.4972 126.522 31.6833 126.288 31.8694C123.58 34.1956 120.544 35.033 117.042 33.8699C112.886 32.5207 110.271 28.5196 110.411 24.1928C110.598 18.7494 110.598 13.3526 110.691 7.90917C110.738 6.18776 110.691 4.51287 110.691 2.79146C110.691 2.09359 110.831 1.95401 111.438 2.00054C112.746 2.04706 114.007 2.09359 115.314 2.09359C116.342 2.09359 117.416 2.14011 118.443 2.14011C121.338 2.18664 124.234 2.18664 127.175 2.23316C127.876 2.32621 128.576 2.37274 129.277 2.37274Z" fill="white"/>
<path d="M83 1.9076C84.0273 1.81455 85.0547 1.67497 86.0353 1.62845C89.8645 1.44235 93.6937 1.25625 97.5696 1.07015C100.511 0.884054 103.453 0.651431 106.489 0.465332C106.956 2.93114 106.909 5.35042 107.049 7.86275C105.321 8.00233 103.734 8.1419 102.052 8.23495C102.052 8.74672 102.006 9.11892 102.006 9.44459C102.146 11.3521 102.333 13.2131 102.426 15.1206C102.566 18.3308 103.033 21.541 102.846 24.7977C102.613 28.5197 99.811 31.8229 95.9352 32.7069C93.4602 33.2652 91.1253 32.9395 88.9306 31.7299C86.8759 30.5668 85.5216 28.7988 84.7745 26.5657C84.2141 24.9373 84.1207 23.2159 84.0273 21.541C83.8406 18.0051 83.6071 14.5158 83.4203 10.9799C83.2335 7.9558 83.0934 4.97822 83 1.9076Z" fill="white"/>
<path d="M136.562 1.02335C142.959 0.883778 149.217 0.697679 155.521 0.558105C155.568 0.930303 155.568 1.25598 155.568 1.53512C155.614 4.93142 155.661 8.32772 155.708 11.7705C155.755 15.5856 155.755 19.4006 155.708 23.2156C155.708 24.6113 155.521 25.914 154.961 27.2167C153.933 29.543 152.252 31.1248 149.964 32.0553C145.948 33.6371 142.259 32.8927 139.224 29.8221C138.01 28.5659 137.262 27.0306 136.936 25.3092C136.328 22.4247 136.609 19.5402 136.562 16.6556C136.469 12.1427 136.469 7.67638 136.422 3.16349C136.422 2.46562 136.515 1.81427 136.562 1.02335Z" fill="white"/>
<path d="M177.282 8.97926C177.001 6.4204 176.768 4.00112 176.488 1.48879C181.298 0.744394 186.201 0.651345 191.104 0C191.197 0.465247 191.338 0.930493 191.384 1.39574C191.571 3.53587 191.758 5.67601 191.945 7.81614C192.178 10.4215 192.458 13.0269 192.738 15.6788C192.832 16.5163 192.879 16.4697 193.812 16.3767C196.521 16.1441 199.229 15.958 202.031 15.7719C202.125 16.7024 202.311 17.6328 202.358 18.5633C202.452 20.3313 202.498 22.0992 202.498 23.9137C202.498 25.7747 201.658 27.31 200.444 28.6127C196.754 32.6138 191.291 32.6603 187.508 29.8223C185.314 28.1939 184.053 25.9142 183.819 23.2158C183.399 18.6564 183.025 14.097 182.652 9.58408C182.558 8.60706 182.512 8.56054 181.531 8.65359C180.177 8.79316 178.869 8.88621 177.282 8.97926Z" fill="white"/>
<path d="M168.316 23.6345C168.223 27.1239 168.176 30.4736 168.083 33.963C167.429 34.0095 166.775 34.056 166.168 34.0095C164.207 33.963 162.245 33.9165 160.284 33.9165C159.864 33.9165 159.163 34.056 159.07 33.8699C158.837 33.4512 158.883 32.8929 158.883 32.3811C158.977 27.5426 159.07 22.7505 159.117 17.912C159.163 13.3526 159.163 8.79314 159.21 4.1872C159.21 3.67543 158.883 3.07061 159.49 2.55884C162.385 2.55884 165.374 2.55884 168.456 2.55884C168.409 4.97812 168.363 7.25783 168.316 9.58406C169.203 10.0028 170.044 9.90973 170.884 9.95626C172.706 10.0958 174.293 10.6541 175.554 12.0499C176.488 13.0734 177.095 14.2365 177.329 15.5857C177.515 16.6558 177.562 17.8189 177.609 18.889C177.609 20.4243 177.562 22.0061 177.515 23.681C174.387 23.681 171.398 23.6345 168.316 23.6345Z" fill="white"/>
</svg>
