<svg width="200" height="51" viewBox="0 0 200 51" fill="none" xmlns="http://www.w3.org/2000/svg">
<path d="M168.763 1.46368L168.927 1.4726L168.927 1.45122C170.382 1.34472 171.186 1.40354 171.607 1.48349L171.54 2.04294L172.713 1.99649C179.159 1.74115 184.786 3.46017 188.824 7.72394L188.879 7.78159L188.942 7.8299C199.229 15.7186 201.517 30.5705 191.684 40.7801L191.624 40.8432L191.575 40.9158C188.486 45.5097 183.603 47.8116 177.435 48.0641L177.347 48.0677L177.26 48.087C176.157 48.3314 175.549 48.5146 175.203 48.6659C175.174 48.6784 175.142 48.6929 175.107 48.7099C174.73 48.6666 174.07 48.6116 172.893 48.5594L172.802 48.5554L172.712 48.5678C172.12 48.6495 169.521 48.7371 165.285 48.8188C161.095 48.8995 155.393 48.9741 148.682 49.041C135.258 49.1748 117.806 49.2782 100.355 49.3404C82.9047 49.4026 65.4587 49.4238 52.0495 49.3931C45.3446 49.3778 39.6508 49.3495 35.4711 49.307C31.2514 49.2641 28.6527 49.2066 28.0641 49.1414L27.9687 49.1308L27.873 49.1385C25.6159 49.3217 24.6277 49.2048 23.7717 48.9506C23.3654 48.83 22.9776 48.6756 22.4651 48.4715C22.3991 48.4453 22.3311 48.4182 22.2607 48.3902C21.6542 48.1495 20.9217 47.8664 19.9361 47.56L19.849 47.5329L19.7584 47.522C13.315 46.7483 8.46401 43.2502 5.50876 38.2521L5.40938 38.084L5.25408 37.9657C3.08081 36.3096 2.20567 33.6861 2.41194 31.0769L2.42709 30.8853L2.37014 30.7018C-0.494039 21.4699 3.1982 12.1076 11.1219 7.04842L11.2102 6.99205L11.2849 6.91861C11.6133 6.59573 11.9144 6.29643 12.1937 6.0187C13.5877 4.63303 14.4413 3.78449 15.4481 3.22386C16.5783 2.59462 17.9652 2.31156 20.7569 2.36007L20.8492 2.36167L20.9402 2.34636C21.2289 2.29778 22.0278 2.2406 23.3595 2.18386C24.6611 2.1284 26.4068 2.07535 28.5365 2.02481C32.7947 1.92375 38.5708 1.83309 45.3622 1.7528C58.944 1.59223 76.5744 1.47328 94.2178 1.3954C127.326 1.24925 160.408 1.24826 166.927 1.38559L166.928 1.64275L168.025 1.53085C168.287 1.50411 168.533 1.48189 168.763 1.46368ZM175.576 48.7818C175.588 48.7841 175.591 48.785 175.581 48.7829L175.576 48.7818Z" stroke="white" stroke-width="2"/>
<path d="M119.904 16.2602C119.935 16.6632 119.966 16.9732 119.966 17.2831C119.935 19.3909 119.935 21.4988 119.904 23.6066C119.873 25.5904 119.873 27.5742 119.842 29.5271C119.842 30.023 119.966 30.426 120.49 30.643C120.922 30.8289 121.292 31.1079 121.693 31.3249C122.094 31.5419 122.31 31.8209 122.279 32.3168C122.218 33.7117 122.218 35.0756 122.187 36.4705C122.187 36.8424 122.156 37.2144 122.156 37.6794C120.768 37.0594 119.657 36.1605 118.361 35.5095C118.207 35.6645 118.084 35.7885 117.929 35.9125C116.14 37.4624 114.135 38.0203 111.821 37.2454C109.076 36.3465 107.348 33.6807 107.441 30.798C107.564 27.1713 107.564 23.5756 107.626 19.9489C107.657 18.802 107.626 17.6861 107.626 16.5392C107.626 16.0742 107.718 15.9812 108.119 16.0122C108.983 16.0432 109.816 16.0742 110.68 16.0742C111.358 16.0742 112.068 16.1052 112.747 16.1052C114.659 16.1362 116.572 16.1362 118.516 16.1672C118.978 16.2292 119.441 16.2602 119.904 16.2602Z" fill="white"/>
<path d="M33 15.609C33.7095 15.578 34.3574 15.485 35.0052 15.485C37.5349 15.485 40.0954 15.485 42.6251 15.4541C44.5687 15.4231 46.5122 15.3301 48.5174 15.2681C48.7642 16.9109 48.6408 18.5228 48.7025 20.1966C47.5611 20.2276 46.5122 20.2896 45.4016 20.3206C45.3708 20.6616 45.3399 20.9096 45.3399 21.1266C45.3708 22.3974 45.4633 23.6373 45.4633 24.9082C45.4633 27.047 45.6793 29.1859 45.4633 31.3557C45.1857 33.8354 43.273 35.9433 40.6816 36.4392C39.0466 36.7492 37.5041 36.4702 36.085 35.5713C34.7584 34.7344 33.9255 33.5255 33.4936 32.0066C33.1851 30.8907 33.1542 29.7748 33.1542 28.6279C33.0925 26.3031 33.0308 23.9473 33 21.6225C33 19.6387 33 17.6549 33 15.609Z" fill="white"/>
<path d="M89.3315 15.9502C90.0102 15.8882 90.6889 15.7952 91.3368 15.7642C93.8665 15.6402 96.3961 15.5162 98.9567 15.3922C100.9 15.2682 102.844 15.1132 104.849 14.9893C105.157 16.6321 105.127 18.244 105.219 19.9178C104.078 20.0108 103.029 20.1038 101.918 20.1658C101.918 20.5068 101.887 20.7548 101.887 20.9717C101.98 22.2426 102.103 23.4825 102.165 24.7534C102.258 26.8922 102.566 29.031 102.443 31.2008C102.288 33.6806 100.437 35.8814 97.8769 36.4704C96.2419 36.8424 94.6994 36.6254 93.2495 35.8194C91.8921 35.0445 90.9974 33.8666 90.5038 32.3787C90.1336 31.2938 90.0719 30.1469 90.0102 29.031C89.8868 26.6752 89.7326 24.3504 89.6092 21.9946C89.4858 19.9798 89.3932 17.996 89.3315 15.9502Z" fill="white"/>
<path d="M124.717 15.3612C128.943 15.2683 133.077 15.1443 137.242 15.0513C137.272 15.2992 137.272 15.5162 137.272 15.7022C137.303 17.965 137.334 20.2278 137.365 22.5216C137.396 25.0634 137.396 27.6052 137.365 30.147C137.365 31.0769 137.242 31.9448 136.871 32.8127C136.193 34.3626 135.082 35.4165 133.57 36.0364C130.917 37.0904 128.48 36.5944 126.475 34.5486C125.673 33.7116 125.179 32.6887 124.963 31.5418C124.562 29.62 124.747 27.6982 124.717 25.7763C124.655 22.7696 124.655 19.7939 124.624 16.7871C124.624 16.3222 124.686 15.8882 124.717 15.3612Z" fill="white"/>
<path d="M57.8957 19.5766C59.0371 19.6696 60.1169 19.7316 61.2275 19.8246C62.3072 19.9176 63.387 19.9796 64.5593 20.0726C64.5593 21.7774 64.3433 23.4823 64.2508 25.2491C63.0785 25.2181 61.9987 25.1871 60.8881 25.1251C59.8084 25.0631 58.7287 25.0011 57.6181 24.9392C57.4021 26.272 57.3404 27.5119 57.3096 28.8758C59.4073 29.0618 61.4434 29.2168 63.4795 29.4028C63.7263 32.2855 62.7391 34.5173 60.2403 35.8192C56.5692 37.741 52.1268 35.7572 51.1396 31.7276C50.9854 31.1386 50.9545 30.5187 50.9854 29.8987C51.0471 28.1319 51.1396 26.334 51.263 24.5672C51.4173 21.6534 51.6024 18.7397 51.7566 15.8259C51.7566 15.578 51.7875 15.33 51.8183 15.02C52.5278 15.02 53.2065 15.02 53.8852 15.051C54.6873 15.082 55.4586 15.175 56.2298 15.237C56.6309 15.268 57.0628 15.237 57.4947 15.237C58.0808 15.268 58.1425 15.33 58.1117 15.8879C58.05 16.9109 57.9883 17.9028 57.9266 18.9257C57.8957 19.1427 57.8957 19.3286 57.8957 19.5766Z" fill="white"/>
<path d="M151.617 20.6617C151.432 18.9568 151.278 17.345 151.093 15.6711C154.27 15.1752 157.51 15.1132 160.749 14.6792C160.81 14.9892 160.903 15.2991 160.934 15.6091C161.057 17.035 161.181 18.4609 161.304 19.8867C161.458 21.6226 161.643 23.3584 161.828 25.1253C161.89 25.6832 161.921 25.6522 162.538 25.5903C164.327 25.4353 166.117 25.3113 167.968 25.1873C168.029 25.8072 168.153 26.4272 168.184 27.0471C168.245 28.225 168.276 29.4029 168.276 30.6118C168.276 31.8517 167.721 32.8746 166.919 33.7425C164.482 36.4083 160.872 36.4393 158.373 34.5485C156.923 33.4636 156.09 31.9447 155.936 30.1469C155.659 27.1091 155.412 24.0714 155.165 21.0646C155.103 20.4137 155.072 20.3827 154.425 20.4447C153.53 20.5377 152.666 20.5997 151.617 20.6617Z" fill="white"/>
<path d="M145.694 30.4261C145.632 32.7509 145.602 34.9827 145.54 37.3075C145.108 37.3385 144.676 37.3695 144.275 37.3385C142.979 37.3075 141.684 37.2765 140.388 37.2765C140.11 37.2765 139.648 37.3695 139.586 37.2455C139.432 36.9665 139.462 36.5945 139.462 36.2535C139.524 33.0298 139.586 29.8371 139.617 26.6134C139.648 23.5757 139.648 20.5379 139.678 17.4692C139.678 17.1282 139.462 16.7252 139.864 16.3843C141.776 16.3843 143.751 16.3843 145.787 16.3843C145.756 17.9961 145.725 19.515 145.694 21.0649C146.28 21.3438 146.836 21.2819 147.391 21.3128C148.594 21.4058 149.643 21.7778 150.476 22.7077C151.093 23.3897 151.494 24.1646 151.648 25.0635C151.772 25.7765 151.802 26.5514 151.833 27.2643C151.833 28.2872 151.802 29.3412 151.772 30.4571C149.705 30.4571 147.73 30.4261 145.694 30.4261Z" fill="white"/>
<path d="M78.6267 23.7302C76.6523 23.9162 74.7397 24.0712 72.7653 24.2572C73.1046 28.2558 73.4131 32.2235 73.7216 36.1601C73.0738 36.4081 68.3229 36.8421 67.3974 36.7181C67.3357 35.9741 67.2432 35.2302 67.1815 34.4553C67.0581 32.6264 66.9347 30.7976 66.8113 28.9687C66.6262 26.6439 66.4102 24.3501 66.256 22.0254C66.1943 20.9714 66.1634 19.8865 66.5336 18.8636C67.3666 16.6318 69.2175 15.051 71.6547 14.834C73.444 14.679 75.0173 15.082 76.4055 16.2599C77.5778 17.2518 78.2257 18.4917 78.3799 20.0415C78.5033 21.0644 78.5959 22.1183 78.7193 23.1413C78.6884 23.2962 78.6576 23.4202 78.6267 23.7302Z" fill="white"/>
</svg>
