<svg width="44" height="47" viewBox="0 0 44 47" fill="none" xmlns="http://www.w3.org/2000/svg">
<path d="M28.3327 39.4449C27.8299 39.1934 27.1806 39.3192 26.9083 39.8221C26.7617 40.0736 26.615 40.3251 26.4474 40.5557C26.4474 40.5557 26.4474 40.5766 26.4265 40.5766C26.4265 40.5766 26.4265 40.5976 26.4055 40.5976C26.3846 40.6395 26.3218 40.7024 26.2799 40.7443C26.1751 40.87 26.0495 40.9958 25.9447 41.1215C25.7562 41.3311 25.5258 41.5198 25.3163 41.7084C25.2535 41.7503 25.2116 41.7922 25.1487 41.8551C25.1487 41.8551 25.1278 41.8551 25.1278 41.876C25.0021 41.9808 24.8555 42.0647 24.7298 42.1695C24.2271 42.5048 23.7034 42.7982 23.1588 43.0497C23.0331 43.1126 22.8864 43.1754 22.7608 43.2383H22.7398C22.677 43.2593 22.6141 43.3012 22.5513 43.3221C22.258 43.4269 21.9648 43.5317 21.6715 43.6365C20.5823 43.9928 19.4511 44.2653 18.32 44.4539C18.2571 44.4539 18.1943 44.4748 18.1105 44.4748C18.0686 44.4748 17.9429 44.4958 17.922 44.4958C17.7335 44.5168 17.5449 44.5377 17.3564 44.5587C16.9375 44.6006 16.5395 44.6215 16.1205 44.6215C15.7435 44.6215 15.3664 44.6215 14.9894 44.6006C14.8009 44.5796 14.6123 44.5796 14.4238 44.5587C14.34 44.5587 14.2353 44.5377 14.1515 44.5377C14.1096 44.5377 14.0677 44.5168 14.0049 44.5168C13.9839 44.5168 13.9839 44.5168 13.963 44.5168C13.1879 44.391 12.4129 44.2233 11.6588 43.9928C11.3027 43.888 10.9466 43.7413 10.5905 43.6156C10.5696 43.6156 10.5486 43.5946 10.5486 43.5946C10.5486 43.5946 10.5277 43.5946 10.5067 43.5736C10.4439 43.5527 10.3601 43.5108 10.2972 43.4898C10.1297 43.4269 9.98305 43.3431 9.83642 43.2593C9.2918 42.9868 8.76812 42.6934 8.26539 42.3581C8.03497 42.2114 7.7836 42.0437 7.55318 41.876C7.49034 41.8341 7.42751 41.7922 7.38561 41.7503C7.38561 41.7503 7.3856 41.7503 7.36466 41.7293C7.23897 41.6245 7.11329 41.5197 6.98761 41.415C6.54772 41.0377 6.12878 40.6395 5.73079 40.1994C5.54226 39.9898 5.35374 39.7802 5.18617 39.5706C5.10238 39.4868 5.01858 39.382 4.95574 39.2982C4.9348 39.2772 4.93481 39.2563 4.91386 39.2353C4.85102 39.1515 4.80911 39.0886 4.74627 39.0048C4.41112 38.5437 4.09692 38.0407 3.82461 37.5377C3.69893 37.2862 3.5523 37.0557 3.44756 36.8042C3.38472 36.6784 3.32187 36.5527 3.27998 36.4269C3.25903 36.3641 3.21714 36.3012 3.1962 36.2383C3.1962 36.2174 3.17524 36.2174 3.17524 36.1964V36.1754C2.73535 35.0856 2.42115 33.9748 2.23262 32.8221C2.21168 32.7383 2.12789 32.4868 2.16979 32.403C2.16979 32.4449 2.19074 32.4868 2.19074 32.5497C2.19074 32.5078 2.16979 32.4659 2.16979 32.403C2.16979 32.3401 2.14884 32.2563 2.14884 32.1934C2.10695 31.879 2.086 31.5856 2.086 31.2712C2.06506 30.6635 2.06506 30.0557 2.086 29.4689C2.10695 29.1754 2.12789 28.882 2.16979 28.5886C2.16979 28.5257 2.19074 28.4419 2.19074 28.379V28.3581C2.21169 28.1904 2.23263 28.0227 2.27452 27.8551C2.37926 27.2263 2.52589 26.6186 2.69346 26.0108C2.86104 25.403 3.07051 24.7952 3.32187 24.1874C3.38472 24.0617 3.42661 23.915 3.48945 23.7892C3.48945 23.7892 3.48946 23.7683 3.5104 23.7683C3.53135 23.7054 3.57324 23.6425 3.59418 23.5796C3.71987 23.2862 3.84556 22.9928 3.97124 22.6994C6.06595 18.1096 8.87285 13.8341 11.8054 9.76826C12.4338 8.88802 13.0832 8.02874 13.7326 7.16945C13.8792 6.98083 14.0258 6.79221 14.1515 6.60359C14.2144 6.51975 14.2981 6.41496 14.361 6.33113C14.1306 6.62454 14.4029 6.26826 14.4657 6.20538C14.7171 5.87005 14.9894 5.55568 15.2408 5.22035C15.6388 4.71736 16.0367 4.21436 16.4557 3.71137C16.728 4.0467 17.0003 4.38203 17.2517 4.71736C17.3145 4.80119 17.3774 4.86407 17.4402 4.9479C17.4402 4.9479 17.524 5.05269 17.5449 5.0946C17.6497 5.24131 17.7544 5.36706 17.8801 5.51377C18.1105 5.82814 18.3409 6.12155 18.5713 6.43592C19.4302 7.58862 20.289 8.74131 21.1059 9.91496C22.4675 11.8641 23.8081 13.8341 25.0649 15.8461C26.5731 18.2772 27.9975 20.7503 29.2334 23.3281C29.38 23.6215 29.5057 23.915 29.6523 24.2293C29.6523 24.2503 29.6523 24.2503 29.6733 24.2712C29.6104 24.1245 29.6523 24.2293 29.6942 24.3132C29.9037 24.8162 30.4064 25.2353 30.993 25.0467C31.4747 24.879 31.9356 24.2922 31.7261 23.7473C31.1815 22.385 30.4902 21.0856 29.799 19.7862C27.8928 16.2443 25.7352 12.8281 23.4311 9.53772C21.462 6.72933 19.3883 3.98383 17.2517 1.30119C16.9165 0.88203 16.0996 0.902988 15.7644 1.30119C15.2827 1.8461 14.8428 2.41197 14.3819 2.97784C13.1879 4.46586 12.0149 5.9958 10.8628 7.52574C9.39652 9.51676 7.97212 11.5497 6.63151 13.6455C5.20711 15.8671 3.8665 18.1515 2.69346 20.5198C2.10694 21.7144 1.56233 22.909 1.10149 24.1455C0.640654 25.403 0.326448 26.7024 0.158871 28.0227C-0.176282 30.5377 0.012242 33.1575 0.787284 35.5886C1.56233 37.9778 2.86104 40.1784 4.62059 41.9808C6.54773 43.9299 8.99854 45.376 11.6169 46.1096C14.6333 46.9479 17.8173 46.8221 20.8336 46.0677C23.2844 45.4599 25.7981 44.391 27.5576 42.5048C28.0185 42.0227 28.4165 41.4778 28.7307 40.891C28.982 40.409 28.8563 39.7174 28.3327 39.4449Z" fill="white"/>
<path d="M29.6313 24.2085C29.6523 24.2504 29.6733 24.3133 29.7151 24.4181C29.6942 24.3552 29.6523 24.2923 29.6313 24.2085Z" fill="white"/>
<path d="M16.4976 19.3462C16.5185 19.3671 16.5395 19.3671 16.5604 19.3881C16.5395 19.3671 16.5185 19.3671 16.4976 19.3462Z" fill="white"/>
<path d="M16.5813 17.8164C16.5604 17.8583 16.5185 17.8793 16.4976 17.9002C16.5604 17.8583 16.5813 17.8374 16.5813 17.8164Z" fill="white"/>
<path d="M16.2671 18.4867C16.3298 18.2771 16.288 18.3819 16.2671 18.4867V18.4867Z" fill="white"/>
<path d="M17.7126 19.8279C17.6078 19.8072 17.566 19.8279 17.6078 19.8487C17.6288 19.8487 17.6497 19.8487 17.6916 19.8487C17.6916 19.8279 17.6916 19.8279 17.7126 19.8279Z" fill="white"/>
<path d="M18.6968 18.5286C18.6968 18.4867 18.6968 18.4657 18.6968 18.4238C18.6758 18.4867 18.6968 18.5077 18.6968 18.5286Z" fill="white"/>
<path d="M17.0423 19.7651C17.0004 19.7441 16.9794 19.7231 16.9585 19.7231C16.9794 19.7231 17.0213 19.7441 17.0423 19.7651Z" fill="white"/>
<path d="M18.2153 19.5973C18.2362 19.5765 18.2572 19.5765 18.2781 19.5557C18.2781 19.5557 18.2781 19.5557 18.2991 19.5557C18.1733 19.5973 18.1733 19.618 18.2153 19.5973Z" fill="white"/>
<path d="M12.9156 37.4327C12.9365 37.4327 12.9365 37.4327 12.9156 37.4327C12.8737 37.4119 12.8527 37.3911 12.8318 37.3911C12.8737 37.3911 12.8946 37.4119 12.9156 37.4327Z" fill="white"/>
<path d="M12.1616 36.1545C12.2035 35.9659 12.1616 36.0707 12.1616 36.1545V36.1545Z" fill="white"/>
<path d="M14.5914 36.1966C14.5914 36.1547 14.5914 36.1337 14.5914 36.0918C14.5705 36.1547 14.5705 36.1966 14.5914 36.1966Z" fill="white"/>
<path d="M12.4756 35.4839C12.4547 35.5258 12.4128 35.5468 12.3918 35.5677C12.4337 35.5468 12.4547 35.5048 12.4756 35.4839Z" fill="white"/>
<path d="M14.0886 37.2646C14.1095 37.2439 14.1305 37.2439 14.1514 37.2231C14.1514 37.2231 14.1514 37.2231 14.1724 37.2231C14.0467 37.2854 14.0676 37.2854 14.0886 37.2646Z" fill="white"/>
<path d="M12.3918 37.0137C12.4128 37.0346 12.4338 37.0346 12.4547 37.0556C12.4338 37.0556 12.4128 37.0346 12.3918 37.0137Z" fill="white"/>
<path d="M13.4814 37.5165C13.5023 37.5165 13.5233 37.5165 13.5652 37.5165H13.5861C13.4814 37.4958 13.4395 37.5165 13.4814 37.5165Z" fill="white"/>
<path d="M39.3928 42.3999C39.3928 42.3999 39.4138 42.3999 39.3928 42.3999C39.4138 42.4209 39.4347 42.4209 39.4557 42.4418C39.4347 42.4209 39.4347 42.3999 39.3928 42.3999Z" fill="white"/>
<path d="M41.4874 38.544C40.6915 38.2505 39.7907 38.3134 39.0157 38.6488C38.7015 38.2925 38.4082 37.9571 38.094 37.6008C38.7643 36.7206 39.1623 35.6308 39.1623 34.4991C39.1623 34.4571 39.1623 34.4362 39.1623 34.3943C39.1414 33.3044 38.7643 32.2985 38.1568 31.4811C38.6177 30.4961 39.0785 29.511 39.5393 28.526C39.6022 28.4002 39.665 28.2535 39.7279 28.1278C40.1678 28.2116 40.6286 28.2326 41.0894 28.1488C42.6186 27.8763 43.7078 26.4302 43.7288 24.9003C43.7288 24.8583 43.7288 24.8164 43.7288 24.7955C43.6659 23.4122 42.8071 22.2595 41.5084 21.7775C40.2725 21.3164 38.7434 21.7146 37.9055 22.7416C37.0048 23.8314 36.8162 25.3613 37.5494 26.5979C37.6541 26.7865 37.7798 26.9332 37.9055 27.0799C37.4447 28.0649 36.9838 29.0709 36.523 30.0559C36.2716 29.9092 36.0202 29.8044 35.7479 29.6997C33.8208 28.9871 31.4957 29.6368 30.1969 31.2086C30.1131 31.3134 30.0294 31.4182 29.9456 31.523C29.1496 31.1248 28.3536 30.7266 27.5576 30.3284C27.6833 29.8883 27.7671 29.4062 27.7671 28.9452C27.7671 28.9032 27.7671 28.8823 27.7671 28.8404C27.7042 26.7026 26.3427 24.8583 24.3527 24.1248C23.4101 23.7895 22.3837 23.7476 21.4201 23.9991C20.9174 22.9511 20.4146 21.9032 19.891 20.8763C20.4565 20.2685 20.7917 19.4511 20.7917 18.6128C20.7917 18.5709 20.7917 18.529 20.7917 18.508C20.7288 17.1248 19.87 15.9721 18.5713 15.4901C17.3354 15.029 15.8063 15.4272 14.9684 16.4541C14.0676 17.544 13.8791 19.0739 14.6123 20.3104C15.3245 21.505 16.686 22.0709 18.0267 21.8823C18.5294 22.9092 19.0112 23.9152 19.5139 24.9422C19.2416 25.1517 18.9902 25.3823 18.7598 25.6547C17.4611 27.2266 17.1678 29.4272 18.0685 31.2296C17.105 31.9841 16.1205 32.7386 15.1569 33.4931C15.1359 33.4931 15.1359 33.514 15.115 33.514C14.9055 33.3673 14.6751 33.2625 14.4237 33.1577C13.1879 32.6967 11.6587 33.0949 10.8208 34.1218C9.9201 35.2116 9.73159 36.7416 10.4647 37.9781C11.1979 39.2146 12.6013 39.7805 14.0048 39.529C15.5339 39.2565 16.6232 37.8104 16.6441 36.2805C16.6441 36.2386 16.6441 36.1967 16.6441 36.1757C16.6232 35.7985 16.5604 35.4631 16.4347 35.1278C17.4192 34.3733 18.4037 33.6188 19.3882 32.8434C20.5613 33.8284 22.1532 34.2266 23.7243 33.9332C24.8764 33.7026 25.8609 33.0529 26.5731 32.1937C27.411 32.6128 28.2489 33.032 29.1077 33.4511C28.8354 34.6877 29.0239 35.9871 29.6942 37.1188C30.8253 38.9841 33.0038 39.9062 35.1404 39.4871C35.6432 39.3823 36.104 39.2146 36.523 38.9841C36.8581 39.3613 37.1723 39.7176 37.5075 40.0949C36.9629 41.1008 36.9419 42.3374 37.5494 43.3643C38.2825 44.6008 39.686 45.1667 41.0894 44.9152C42.6186 44.6428 43.7078 43.1967 43.7288 41.6667C43.7288 41.6248 43.7288 41.5829 43.7288 41.5619C43.624 40.1787 42.7652 39.026 41.4874 38.544ZM17.5868 19.8494C17.503 19.8494 17.3982 19.8494 17.3144 19.8494C17.2516 19.8284 17.2097 19.8284 17.1469 19.8074C17.105 19.8074 17.084 19.7865 17.0421 19.7655C17.0421 19.7655 17.0631 19.7655 17.0631 19.7865L17.0421 19.7655C17.0212 19.7655 17.0002 19.7446 16.9793 19.7446C16.9165 19.7236 16.9165 19.7026 16.9584 19.7236C16.8955 19.7026 16.8536 19.6817 16.8117 19.6398C16.7908 19.6188 16.7698 19.5979 16.7279 19.5979C16.686 19.5559 16.6232 19.4721 16.5604 19.4092C16.6022 19.4511 16.5813 19.4931 16.5394 19.4302C16.5185 19.4092 16.5185 19.3883 16.4975 19.3673L16.4766 19.3464C16.4766 19.3464 16.4975 19.3464 16.4975 19.3673C16.4766 19.3464 16.4556 19.3044 16.4347 19.2835C16.4137 19.2416 16.3928 19.2206 16.3718 19.1787C16.3509 19.0949 16.309 19.011 16.288 18.9272C16.288 18.8853 16.2671 18.8434 16.2671 18.8224C16.2671 18.7176 16.2671 18.6338 16.2671 18.529C16.2671 18.55 16.2671 18.55 16.2461 18.5709C16.2671 18.529 16.2671 18.4871 16.2671 18.4452C16.288 18.3613 16.309 18.2775 16.3509 18.1727C16.3718 18.1308 16.4137 18.0679 16.4347 18.026C16.4556 18.005 16.4766 17.9631 16.4975 17.9422C16.4975 17.9422 16.4975 17.9422 16.4766 17.9422C16.4766 17.9422 16.4975 17.9422 16.4975 17.9212C16.4975 17.9003 16.5185 17.9003 16.5185 17.8793C16.5603 17.8164 16.5813 17.8164 16.5813 17.8374C16.6232 17.7955 16.6441 17.7535 16.686 17.7116C16.707 17.6907 16.7489 17.6488 16.7698 17.6488C16.8536 17.6068 16.9793 17.5649 17.0421 17.502C17.084 17.4811 17.105 17.4811 17.1469 17.4601C17.1888 17.4601 17.3144 17.4182 17.3563 17.4182C17.3982 17.4182 17.4611 17.4182 17.503 17.4182C17.5449 17.4182 17.5868 17.4182 17.6287 17.4182C17.7334 17.4392 17.8381 17.4811 17.9429 17.502C17.9848 17.523 18.0476 17.5649 18.0895 17.5859C18.1314 17.6068 18.1523 17.6278 18.1942 17.6488C18.1942 17.6488 18.2152 17.6488 18.2152 17.6697C18.278 17.7326 18.3618 17.8164 18.4247 17.8793C18.4456 17.9212 18.4875 17.9631 18.5084 18.005C18.5294 18.047 18.5713 18.1098 18.5922 18.1517C18.6132 18.2356 18.6551 18.3404 18.676 18.4242C18.676 18.4032 18.676 18.4032 18.676 18.3823C18.676 18.4032 18.676 18.4242 18.676 18.4242C18.676 18.4452 18.676 18.4452 18.697 18.4661C18.7179 18.508 18.697 18.529 18.697 18.529C18.697 18.5709 18.697 18.5919 18.697 18.6338C18.697 18.6757 18.697 18.7176 18.697 18.7595C18.676 18.8434 18.6551 18.9482 18.6341 19.032C18.6341 19.0739 18.6132 19.0949 18.5922 19.1368C18.5503 19.2206 18.4875 19.3044 18.4456 19.3883C18.4246 19.4092 18.3827 19.4511 18.3618 19.4721C18.3409 19.4931 18.299 19.535 18.278 19.5559C18.299 19.5559 18.299 19.535 18.3199 19.535C18.299 19.535 18.278 19.5559 18.278 19.5559C18.2571 19.5769 18.2361 19.5769 18.2152 19.5979C18.1733 19.6398 18.1104 19.6607 18.0685 19.7026C18.0267 19.7236 18.0057 19.7446 17.9638 19.7655C17.88 19.7865 17.7962 19.8284 17.7124 19.8494C17.7334 19.8494 17.7334 19.8494 17.7543 19.8494C17.7334 19.8494 17.7124 19.8494 17.6915 19.8494C17.6496 19.8284 17.6077 19.8494 17.5868 19.8494C17.5868 19.8284 17.5868 19.8494 17.5868 19.8494ZM25.6514 29.3434C25.6514 29.3643 25.6514 29.3643 25.6514 29.3853C25.6305 29.5529 25.6514 29.4062 25.6514 29.3434ZM25.6514 28.5889C25.6514 28.5679 25.6514 28.5679 25.6514 28.547C25.6514 28.5679 25.6514 28.5889 25.6514 28.5889ZM25.4629 27.8344C25.4629 27.8134 25.4419 27.7925 25.4419 27.7925C25.4629 27.7925 25.4629 27.8344 25.4629 27.8344ZM20.3308 27.0589C20.3308 27.0589 20.3099 27.0799 20.3099 27.1008C20.3099 27.0799 20.3308 27.0589 20.3308 27.0589ZM19.6815 28.5889C19.6815 28.5889 19.6815 28.547 19.6815 28.526C19.6815 28.547 19.6815 28.5889 19.6815 28.5889ZM21.462 26.1997C21.441 26.2206 21.4201 26.2206 21.4201 26.2206C21.4201 26.1996 21.441 26.1997 21.462 26.1997ZM14.1933 37.2026C14.1724 37.2026 14.1514 37.2236 14.1514 37.2236C14.1305 37.2446 14.1095 37.2446 14.0886 37.2655C14.0467 37.3074 13.9839 37.3284 13.942 37.3703C13.9001 37.3913 13.8791 37.4122 13.8372 37.4332C13.7534 37.4541 13.6696 37.4961 13.5859 37.517C13.6068 37.517 13.6068 37.517 13.6278 37.517C13.6068 37.517 13.5859 37.517 13.5649 37.517C13.523 37.517 13.5021 37.517 13.5021 37.517H13.4811C13.3973 37.517 13.2926 37.517 13.2088 37.517C13.146 37.4961 13.1041 37.4961 13.0412 37.4751C12.9993 37.4751 12.9784 37.4541 12.9365 37.4332C12.9365 37.4332 12.9574 37.4332 12.9574 37.4541L12.9365 37.4332C12.9156 37.4332 12.8946 37.4122 12.8737 37.4122C12.8108 37.3913 12.8108 37.3703 12.8527 37.3913C12.7899 37.3703 12.748 37.3494 12.7061 37.3074C12.6851 37.2865 12.6642 37.2655 12.6223 37.2655C12.5804 37.2236 12.5176 37.1398 12.4547 37.0769C12.4966 37.1188 12.4757 37.1607 12.4338 37.0979C12.4128 37.0769 12.4128 37.0559 12.3919 37.035L12.3709 37.014C12.3709 37.014 12.3919 37.014 12.3919 37.035C12.3709 37.014 12.35 36.9721 12.329 36.9511C12.3081 36.9092 12.2871 36.8883 12.2662 36.8464C12.2452 36.7625 12.2033 36.6787 12.1824 36.5949C12.1824 36.5529 12.1615 36.511 12.1615 36.4901C12.1615 36.3853 12.1615 36.3014 12.1615 36.1967C12.1615 36.2176 12.1615 36.2176 12.1405 36.2386C12.1615 36.1967 12.1615 36.1547 12.1615 36.1128C12.1824 36.029 12.2034 35.9452 12.2452 35.8404C12.2662 35.7985 12.3081 35.7356 12.329 35.6937C12.35 35.6727 12.3709 35.6308 12.3919 35.6098C12.3919 35.6098 12.3919 35.6098 12.3709 35.6098C12.3709 35.6098 12.3919 35.6098 12.3919 35.5889C12.3919 35.5679 12.4128 35.5679 12.4128 35.547C12.4547 35.4841 12.4757 35.4841 12.4757 35.505C12.5176 35.4631 12.5385 35.4212 12.5804 35.3793C12.6013 35.3583 12.6432 35.3164 12.6642 35.3164C12.748 35.2745 12.8737 35.2326 12.9365 35.1697C12.9784 35.1488 12.9993 35.1488 13.0412 35.1278C13.0831 35.1278 13.2088 35.0859 13.2507 35.0859C13.2926 35.0859 13.3554 35.0859 13.3973 35.0859C13.4392 35.0859 13.4811 35.0859 13.523 35.0859C13.6278 35.1068 13.7325 35.1488 13.8372 35.1697C13.8791 35.1907 13.942 35.2326 13.9839 35.2535C14.0258 35.2745 14.0467 35.2955 14.0886 35.3164C14.0886 35.3164 14.1095 35.3164 14.1095 35.3374C14.1724 35.4002 14.2562 35.4841 14.319 35.547C14.34 35.5889 14.3819 35.6308 14.4028 35.6727C14.4237 35.7146 14.4656 35.7775 14.4866 35.8194C14.5075 35.9032 14.5494 36.008 14.5704 36.0919C14.5704 36.0709 14.5704 36.0709 14.5704 36.0499C14.5704 36.0709 14.5704 36.0919 14.5704 36.0919C14.5704 36.1128 14.5704 36.1128 14.5913 36.1338C14.6123 36.1757 14.5913 36.1967 14.5913 36.1967C14.5913 36.2386 14.5913 36.2595 14.5913 36.3014C14.5913 36.3434 14.5913 36.3853 14.5913 36.4272C14.5704 36.511 14.5494 36.6158 14.5285 36.6996C14.5285 36.7416 14.5075 36.7625 14.4866 36.8044C14.4447 36.8883 14.3819 36.9721 14.34 37.0559C14.319 37.0769 14.2771 37.1188 14.2562 37.1398C14.2352 37.1607 14.1933 37.2026 14.1724 37.2236C14.1724 37.2236 14.1933 37.2236 14.1933 37.2026ZM20.7707 31.2925C20.7707 31.2925 20.7917 31.3134 20.8126 31.3344C20.7917 31.3134 20.7707 31.3134 20.7707 31.2925ZM25.0649 30.7895C25.0649 30.7895 25.0439 30.7895 25.0649 30.7895C24.9811 30.8733 24.9392 30.9362 24.8764 31.02C24.8135 31.0829 24.7507 31.1458 24.6879 31.2086C24.646 31.2296 24.625 31.2715 24.5831 31.2925C24.5622 31.3134 24.5412 31.3344 24.4993 31.3553C24.4365 31.3973 24.4574 31.3763 24.5831 31.2925C24.5622 31.3763 24.2061 31.544 24.1223 31.5859C24.0385 31.6278 23.9547 31.6697 23.8709 31.7116C23.85 31.7116 23.85 31.7326 23.829 31.7326C23.8081 31.7326 23.7871 31.7535 23.7662 31.7535C23.5986 31.8164 23.4101 31.8583 23.2215 31.9002C23.1796 31.9002 23.1378 31.9212 23.0959 31.9212C23.0121 31.9212 22.9073 31.9422 22.8236 31.9422C22.635 31.9422 22.4465 31.9422 22.237 31.9212C22.1951 31.9212 22.1532 31.9002 22.1532 31.9002C22.0485 31.8793 21.9438 31.8583 21.839 31.8164C21.7552 31.7955 21.6505 31.7535 21.5667 31.7326C21.5458 31.7326 21.5039 31.7116 21.4829 31.7116C21.3154 31.6278 21.1478 31.544 20.9802 31.4392C20.9592 31.4182 20.8964 31.3973 20.8545 31.3553C20.8545 31.3553 20.8545 31.3553 20.8126 31.3134C20.7707 31.2925 20.7498 31.2505 20.7079 31.2296C20.5613 31.0829 20.4146 30.9362 20.2889 30.7895C20.2889 30.7895 20.2889 30.7685 20.268 30.7685C20.2471 30.7476 20.247 30.7266 20.247 30.7266C20.2051 30.6428 20.1423 30.5799 20.1004 30.4961C20.0585 30.4332 20.0166 30.3494 19.9747 30.2865C19.9538 30.2446 19.9328 30.2026 19.9119 30.1607C19.8281 30.014 19.87 30.1188 19.891 30.1607C19.8072 30.0769 19.7653 29.7416 19.7443 29.6577C19.7234 29.5739 19.7024 29.4691 19.6815 29.3853C19.6815 29.3434 19.6605 29.2805 19.6605 29.2386C19.6396 29.05 19.6396 28.8404 19.6605 28.6517C19.6605 28.6098 19.6605 28.547 19.6815 28.505C19.6815 28.4841 19.6815 28.4631 19.6815 28.4631C19.7024 28.3793 19.7234 28.2745 19.7234 28.2535C19.7653 28.0859 19.8281 27.9182 19.891 27.7505C19.9119 27.7086 19.9119 27.6877 19.9328 27.6458C19.9747 27.5619 20.0376 27.4571 20.0795 27.3733C20.1214 27.2895 20.1842 27.2266 20.2261 27.1428C20.2261 27.1428 20.247 27.1218 20.247 27.1008C20.247 27.1008 20.2471 27.1008 20.268 27.0799C20.3937 26.9332 20.5194 26.7865 20.666 26.6607C20.6869 26.6398 20.9174 26.4302 20.7917 26.535C20.666 26.6398 20.8964 26.4511 20.9383 26.4302C21.1059 26.3254 21.2735 26.2416 21.441 26.1368C21.462 26.1368 21.462 26.1368 21.462 26.1158C21.4829 26.1158 21.5039 26.0949 21.5039 26.0949C21.5877 26.0529 21.6715 26.032 21.7762 26.011C21.86 25.9901 21.9647 25.9691 22.0485 25.9482C22.0904 25.9482 22.1323 25.9272 22.1951 25.9272H22.2161C22.4046 25.9062 22.5722 25.9062 22.7607 25.9062C22.8654 25.9062 22.9492 25.9062 23.054 25.9272C23.0749 25.9272 23.0959 25.9272 23.1168 25.9482C23.1168 25.9482 23.1168 25.9482 23.0959 25.9482C23.1168 25.9482 23.1378 25.9482 23.1587 25.9691C23.3682 26.011 23.5986 26.0739 23.8081 26.1577C23.829 26.1577 23.8709 26.1997 23.8918 26.1997C23.8918 26.1997 23.8709 26.1787 23.85 26.1577C23.7243 26.0529 23.8709 26.1787 23.9128 26.1997C24.0175 26.2416 24.1223 26.3044 24.2061 26.3673C24.2898 26.4302 24.3736 26.4721 24.4574 26.535C24.4993 26.5559 24.6041 26.6607 24.4784 26.5559C24.4574 26.535 24.4574 26.535 24.4365 26.514C24.4574 26.535 24.5203 26.5769 24.5203 26.5979C24.6878 26.7446 24.8135 26.8913 24.9601 27.038C24.9392 27.017 25.023 27.1218 25.0439 27.1428C25.1068 27.2266 25.1487 27.3104 25.2115 27.3943C25.2744 27.4781 25.3163 27.5829 25.3581 27.6667C25.3581 27.6667 25.3791 27.6877 25.3791 27.7296C25.3791 27.7505 25.4 27.7715 25.4 27.8134C25.4629 28.002 25.5257 28.2116 25.5676 28.4212C25.5676 28.4212 25.5676 28.4631 25.5886 28.505C25.5886 28.526 25.5886 28.547 25.5886 28.5679C25.6095 28.6937 25.6095 28.8194 25.6095 28.9242C25.6095 29.029 25.6095 29.1128 25.6095 29.2176C25.6095 29.2386 25.6095 29.2805 25.6095 29.3014C25.5676 29.3853 25.5676 29.4901 25.5676 29.5739C25.5467 29.6787 25.5048 29.8044 25.4629 29.9092C25.4419 29.9511 25.421 30.0979 25.3791 30.1607C25.3791 30.1607 25.3791 30.1817 25.3581 30.1817C25.3581 30.1817 25.4629 29.9511 25.3791 30.1188C25.3581 30.1607 25.3372 30.2026 25.3163 30.2446C25.2953 30.2655 25.2953 30.2865 25.2744 30.3074C25.2744 30.3284 25.2534 30.3494 25.2534 30.3703C25.1906 30.4961 25.1068 30.6218 25.023 30.7266C25.0858 30.7476 25.0858 30.7685 25.0649 30.7895ZM37.0467 34.9182C37.0467 34.9392 37.0467 34.9392 37.0467 34.9601C37.0257 35.1068 37.0467 34.9811 37.0467 34.9182ZM37.0676 34.1428C37.0676 34.1218 37.0676 34.1218 37.0676 34.1008C37.0676 34.1218 37.0676 34.1428 37.0676 34.1428ZM36.8581 33.3883C36.8581 33.3673 36.8372 33.3464 36.8372 33.3464C36.8581 33.3673 36.8581 33.3883 36.8581 33.3883ZM39.1833 24.6907C39.2042 24.6068 39.2252 24.523 39.2671 24.4182C39.288 24.3763 39.3299 24.3134 39.3508 24.2715C39.3718 24.2505 39.3927 24.2086 39.4137 24.1877C39.4137 24.1877 39.4137 24.1877 39.3927 24.1877C39.3927 24.1877 39.4137 24.1877 39.4137 24.1667C39.4137 24.1458 39.4346 24.1458 39.4346 24.1248C39.4765 24.0619 39.4975 24.0619 39.4975 24.0829C39.5394 24.041 39.5603 23.9991 39.6022 23.9571C39.6231 23.9362 39.665 23.8943 39.686 23.8943C39.7698 23.8523 39.8955 23.8104 39.9583 23.7476C40.0002 23.7266 40.0211 23.7266 40.063 23.7056C40.1049 23.7056 40.2306 23.6637 40.2725 23.6637C40.3144 23.6637 40.3772 23.6637 40.4191 23.6637C40.461 23.6637 40.5029 23.6637 40.5448 23.6637C40.6496 23.6847 40.7543 23.7266 40.859 23.7476C40.9009 23.7685 40.9638 23.8104 41.0056 23.8314C41.0475 23.8523 41.0685 23.8733 41.1104 23.8943C41.1104 23.8943 41.1314 23.8943 41.1314 23.9152C41.1942 23.9781 41.278 24.0619 41.3408 24.1248C41.3618 24.1667 41.4036 24.2086 41.4246 24.2506C41.4455 24.2925 41.4874 24.3553 41.5084 24.3973C41.5293 24.4811 41.5712 24.5859 41.5922 24.6697C41.5922 24.6488 41.5922 24.6488 41.5922 24.6278C41.5922 24.6488 41.5922 24.6697 41.5922 24.6697C41.5922 24.6907 41.5922 24.6907 41.6131 24.7116C41.6341 24.7535 41.6131 24.7745 41.6131 24.7745C41.6131 24.8164 41.6131 24.8374 41.6131 24.8793C41.6131 24.9212 41.6131 24.9631 41.6131 25.005C41.5922 25.0889 41.5712 25.1937 41.5503 25.2775C41.5503 25.3194 41.5293 25.3404 41.5084 25.3823C41.4665 25.4661 41.4037 25.55 41.3618 25.6338C41.3408 25.6547 41.2989 25.6967 41.278 25.7176C41.257 25.7386 41.2151 25.7805 41.1942 25.8014C41.2151 25.8014 41.2151 25.7805 41.2361 25.7805C41.2151 25.7805 41.1942 25.8014 41.1942 25.8014C41.1732 25.8224 41.1523 25.8224 41.1314 25.8434C41.0895 25.8853 41.0266 25.9062 40.9847 25.9482C40.9428 25.9691 40.9219 25.9901 40.88 26.011C40.7962 26.032 40.7124 26.0739 40.6286 26.0949C40.6496 26.0949 40.6496 26.0949 40.6705 26.0949C40.6496 26.0949 40.6286 26.0949 40.6077 26.0949C40.5658 26.0949 40.5448 26.0949 40.5448 26.0949H40.5239C40.4401 26.0949 40.3353 26.0949 40.2516 26.0949C40.1887 26.0739 40.1468 26.0739 40.084 26.0529C40.0421 26.0529 40.0212 26.032 39.9793 26.011C39.9793 26.011 40.0002 26.011 40.0002 26.032L39.9793 26.011C39.9583 26.011 39.9374 25.9901 39.9164 25.9901C39.8536 25.9691 39.8536 25.9482 39.8955 25.9691C39.8326 25.9482 39.7907 25.9272 39.7488 25.8853C39.7279 25.8643 39.7069 25.8434 39.6651 25.8434C39.6232 25.8014 39.5603 25.7176 39.4975 25.6547C39.5394 25.6967 39.5184 25.7386 39.4765 25.6757C39.4556 25.6547 39.4556 25.6338 39.4346 25.6128L39.4137 25.5919C39.4137 25.5919 39.4346 25.5919 39.4346 25.6128C39.4137 25.5919 39.3927 25.55 39.3718 25.529C39.3508 25.4871 39.3299 25.4661 39.3089 25.4242C39.288 25.3404 39.2461 25.2565 39.2251 25.1727C39.2251 25.1308 39.2042 25.0889 39.2042 25.0679C39.2042 24.9631 39.2042 24.8793 39.2042 24.7745C39.2042 24.7955 39.2042 24.7955 39.1833 24.8164C39.1623 24.7745 39.1833 24.7326 39.1833 24.6907ZM32.8782 31.7535C32.8572 31.7745 32.8363 31.7745 32.8363 31.7745C32.8363 31.7745 32.8363 31.7535 32.8782 31.7535ZM31.7261 32.6128C31.7261 32.6128 31.7051 32.6338 31.7051 32.6547C31.7261 32.6338 31.7261 32.6128 31.7261 32.6128ZM31.0767 34.1428C31.0767 34.1428 31.0767 34.1008 31.0767 34.0799C31.0977 34.1008 31.0767 34.1428 31.0767 34.1428ZM32.1869 36.8464C32.1869 36.8464 32.2079 36.8673 32.2288 36.8883C32.2079 36.8883 32.1869 36.8673 32.1869 36.8464ZM35.5175 37.1607C35.4337 37.2026 35.3499 37.2446 35.2662 37.2865C35.2452 37.2865 35.2452 37.3074 35.2242 37.3074C35.2033 37.3074 35.1824 37.3284 35.1614 37.3284C34.9938 37.3913 34.8053 37.4332 34.6168 37.4751C34.5749 37.4751 34.533 37.4961 34.4911 37.4961C34.4073 37.4961 34.3026 37.517 34.2188 37.517C34.0303 37.517 33.8417 37.517 33.6323 37.4961C33.5904 37.4961 33.5485 37.4751 33.5485 37.4751C33.4437 37.4541 33.339 37.4332 33.2343 37.3913C33.1505 37.3703 33.0458 37.3284 32.962 37.3074C32.941 37.3074 32.8991 37.2865 32.8782 37.2865C32.7106 37.2026 32.543 37.1188 32.3754 37.014C32.3545 36.9931 32.2917 36.9721 32.2498 36.9302C32.2498 36.9302 32.2497 36.9302 32.2079 36.8883C32.166 36.8673 32.145 36.8254 32.1031 36.8044C31.9565 36.6577 31.8099 36.511 31.6842 36.3643C31.6842 36.3643 31.6842 36.3434 31.6632 36.3434C31.6423 36.3224 31.6423 36.3014 31.6423 36.3014C31.6004 36.2176 31.5376 36.1547 31.4957 36.0709C31.4538 36.008 31.4119 35.9242 31.37 35.8613C31.349 35.8194 31.3281 35.7775 31.3071 35.7356C31.2234 35.5889 31.2653 35.6937 31.2862 35.7356C31.2024 35.6517 31.1605 35.3164 31.1396 35.2326C31.1186 35.1488 31.0977 35.044 31.0767 34.9601C31.0767 34.9182 31.0558 34.8553 31.0558 34.8134C31.0348 34.6248 31.0348 34.4152 31.0558 34.2266C31.0558 34.1847 31.0558 34.1218 31.0767 34.0799C31.0767 34.0589 31.0767 34.038 31.0767 34.038C31.0977 33.9541 31.1186 33.8493 31.1186 33.8284C31.1605 33.6607 31.2234 33.4931 31.2862 33.3254C31.3071 33.2835 31.3071 33.2625 31.3281 33.2206C31.37 33.1368 31.4328 33.032 31.4747 32.9482C31.5166 32.8643 31.5795 32.8014 31.6213 32.7176C31.6213 32.7176 31.6423 32.6967 31.6423 32.6757C31.6423 32.6757 31.6423 32.6757 31.6632 32.6547C31.7889 32.508 31.9146 32.3613 32.0612 32.2356C32.0822 32.2146 32.3126 32.005 32.1869 32.1098C32.0612 32.2146 32.2917 32.026 32.3336 32.005C32.5011 31.9002 32.6687 31.8164 32.8363 31.7116C32.8572 31.7116 32.8572 31.7116 32.8572 31.6907C32.8782 31.6907 32.8991 31.6697 32.8991 31.6697C32.9829 31.6278 33.0667 31.6068 33.1714 31.5859C33.2552 31.5649 33.3599 31.544 33.4437 31.523C33.4856 31.523 33.5275 31.502 33.5904 31.502H33.6113C33.7998 31.4811 33.9674 31.4811 34.1559 31.4811C34.2607 31.4811 34.3445 31.4811 34.4492 31.502C34.4702 31.502 34.4911 31.502 34.512 31.523C34.512 31.523 34.512 31.523 34.4911 31.523C34.512 31.523 34.533 31.523 34.5539 31.544C34.7634 31.5859 34.9938 31.6488 35.2033 31.7326C35.2242 31.7326 35.2661 31.7745 35.2871 31.7745C35.2871 31.7745 35.2661 31.7535 35.2452 31.7326C35.1195 31.6278 35.2661 31.7535 35.308 31.7745C35.4128 31.8164 35.5175 31.8793 35.6013 31.9422C35.6851 32.005 35.7689 32.047 35.8527 32.1098C35.8946 32.1308 35.9993 32.2356 35.8736 32.1308C35.8527 32.1098 35.8527 32.1098 35.8317 32.0889C35.8527 32.1098 35.9155 32.1517 35.9155 32.1727C36.0831 32.3194 36.2088 32.4661 36.3554 32.6128C36.3344 32.5919 36.4182 32.6967 36.4392 32.7176C36.502 32.8014 36.5439 32.8853 36.6068 32.9691C36.6696 33.0529 36.7115 33.1577 36.7534 33.2416C36.7534 33.2416 36.7743 33.2625 36.7743 33.3044C36.7743 33.3254 36.7953 33.3464 36.7953 33.3883C36.8581 33.5769 36.921 33.7865 36.9629 33.9961C36.9629 33.9961 36.9629 34.038 36.9838 34.0799C36.9838 34.1008 36.9838 34.1218 36.9838 34.1428C37.0048 34.2685 37.0048 34.3943 37.0048 34.4991C37.0048 34.6038 37.0048 34.6877 37.0048 34.7925C37.0048 34.8134 37.0048 34.8553 37.0048 34.8763C36.9629 34.9601 36.9629 35.0649 36.9629 35.1488C36.9419 35.2535 36.9 35.3793 36.8581 35.4841C36.8372 35.526 36.7953 35.7356 36.7534 35.7356C36.7534 35.7356 36.8581 35.505 36.7743 35.6727C36.7534 35.7146 36.7324 35.7565 36.7115 35.7985C36.6277 35.9661 36.523 36.1128 36.4182 36.2595C36.4182 36.2595 36.3973 36.2805 36.3973 36.3014C36.3973 36.3014 36.3973 36.3014 36.3763 36.3224C36.3135 36.3853 36.2506 36.4691 36.1878 36.532C36.125 36.5949 36.0621 36.6577 35.9993 36.7206C35.9574 36.7416 35.9365 36.7835 35.8946 36.8044C35.8736 36.8254 35.8527 36.8464 35.8108 36.8673C35.7479 36.9092 35.7689 36.8883 35.8946 36.8044C35.9574 36.9302 35.5804 37.1188 35.5175 37.1607ZM41.2151 42.5889C41.1942 42.5889 41.1732 42.6098 41.1732 42.6098C41.1523 42.6308 41.1313 42.6308 41.1104 42.6517C41.0685 42.6937 41.0057 42.7146 40.9638 42.7565C40.9219 42.7775 40.9009 42.7985 40.859 42.8194C40.7752 42.8404 40.6915 42.8823 40.6077 42.9032C40.6286 42.9032 40.6286 42.9032 40.6496 42.9032C40.6286 42.9032 40.6077 42.9032 40.5867 42.9032C40.5448 42.9032 40.5239 42.9032 40.5239 42.9032H40.5029C40.4191 42.9032 40.3144 42.9032 40.2306 42.9032C40.1678 42.8823 40.1259 42.8823 40.063 42.8613C40.0211 42.8613 40.0002 42.8404 39.9583 42.8194C39.9583 42.8194 39.9793 42.8194 39.9793 42.8404L39.9583 42.8194C39.9373 42.8194 39.9164 42.7985 39.8955 42.7985C39.8326 42.7775 39.8326 42.7565 39.8745 42.7775C39.8117 42.7565 39.7698 42.7356 39.7279 42.6937C39.7069 42.6727 39.686 42.6517 39.6441 42.6517C39.6022 42.6098 39.5394 42.526 39.4765 42.4631C39.5184 42.505 39.4975 42.547 39.4556 42.4841C39.4346 42.4631 39.4346 42.4422 39.4137 42.4212L39.3927 42.4002C39.3927 42.4002 39.4137 42.4002 39.4137 42.4212C39.3927 42.4002 39.3718 42.3583 39.3508 42.3374C39.3299 42.2955 39.3089 42.2745 39.288 42.2326C39.267 42.1488 39.2251 42.0649 39.2042 41.9811C39.2042 41.9392 39.1833 41.8973 39.1833 41.8763C39.1833 41.7715 39.1833 41.6877 39.1833 41.5829C39.1833 41.6038 39.1833 41.6038 39.1623 41.6248C39.1833 41.5829 39.1833 41.541 39.1833 41.4991C39.2042 41.4152 39.2252 41.3314 39.2671 41.2266C39.288 41.1847 39.3089 41.1637 39.3299 41.1218C39.4556 41.0589 39.5813 40.9961 39.6651 40.8913C39.7279 40.8074 39.7907 40.7236 39.8536 40.6398C39.8955 40.6188 39.9373 40.5979 39.9583 40.5769C40.0002 40.5559 40.0211 40.5559 40.063 40.535C40.1049 40.535 40.2306 40.4931 40.2725 40.4931C40.3144 40.4931 40.3772 40.4931 40.4191 40.4931C40.461 40.4931 40.5029 40.4931 40.5448 40.4931C40.6496 40.514 40.7543 40.5559 40.859 40.5769C40.9009 40.5979 40.9638 40.6398 41.0056 40.6607C41.0475 40.6817 41.0685 40.7026 41.1104 40.7236C41.1104 40.7236 41.1314 40.7236 41.1314 40.7446C41.1942 40.8074 41.278 40.8913 41.3408 40.9541C41.3618 40.9961 41.4036 41.038 41.4246 41.0799C41.4455 41.1218 41.4874 41.1847 41.5084 41.2266C41.5293 41.3104 41.5712 41.4152 41.5922 41.4991C41.5922 41.4781 41.5922 41.4781 41.5922 41.4571C41.5922 41.4781 41.5922 41.4991 41.5922 41.4991C41.5922 41.52 41.5922 41.52 41.6131 41.541C41.6341 41.5829 41.6131 41.6038 41.6131 41.6038C41.6131 41.6458 41.6131 41.6667 41.6131 41.7086C41.6131 41.7505 41.6131 41.7925 41.6131 41.8344C41.5922 41.9182 41.5712 42.023 41.5503 42.1068C41.5503 42.1488 41.5293 42.1697 41.5084 42.2116C41.4665 42.2955 41.4037 42.3793 41.3618 42.4631C41.3408 42.4841 41.2989 42.526 41.278 42.547C41.257 42.5679 41.2151 42.6098 41.1942 42.6308C41.1942 42.5889 41.1942 42.5889 41.2151 42.5889Z" fill="white"/>
<path d="M41.1105 42.6509C41.1314 42.6301 41.1524 42.6301 41.1733 42.6094C41.1733 42.6094 41.1733 42.6094 41.1943 42.6094C41.0686 42.6509 41.0686 42.6716 41.1105 42.6509Z" fill="white"/>
<path d="M39.1624 41.5409C39.2252 41.3313 39.1833 41.4361 39.1624 41.5409V41.5409Z" fill="white"/>
<path d="M39.9373 42.7983C39.9373 42.8192 39.9373 42.8192 39.9373 42.7983C39.8954 42.7773 39.8745 42.7563 39.8535 42.7563C39.8954 42.7773 39.9164 42.7983 39.9373 42.7983Z" fill="white"/>
<path d="M40.503 42.8818C40.5239 42.8818 40.5449 42.8818 40.5868 42.8818H40.6077C40.4821 42.861 40.4611 42.8818 40.503 42.8818Z" fill="white"/>
<path d="M39.3928 25.6333C39.3928 25.6333 39.4138 25.6333 39.3928 25.6333C39.4138 25.6543 39.4347 25.6543 39.4557 25.6752C39.4347 25.6543 39.4347 25.6333 39.3928 25.6333Z" fill="white"/>
<path d="M40.503 26.1156C40.5239 26.1156 40.5449 26.1156 40.5868 26.1156H40.6077C40.4821 26.095 40.4611 26.1156 40.503 26.1156Z" fill="white"/>
<path d="M39.1624 24.7743C39.2252 24.5647 39.1833 24.6695 39.1624 24.7743V24.7743Z" fill="white"/>
<path d="M41.1105 25.8848C41.1314 25.864 41.1524 25.864 41.1733 25.8433C41.1733 25.8433 41.1733 25.8433 41.1943 25.8433C41.0686 25.8848 41.0686 25.9056 41.1105 25.8848Z" fill="white"/>
<path d="M39.9373 26.0527C39.8954 26.0317 39.8745 26.0107 39.8535 26.0107C39.8954 26.0107 39.9164 26.0317 39.9373 26.0527Z" fill="white"/>
<path d="M39.4766 24.1035C39.4557 24.1454 39.4138 24.1664 39.3928 24.1873C39.4557 24.1454 39.4766 24.1245 39.4766 24.1035Z" fill="white"/>
<path d="M23.1377 25.9897C23.1795 26.0107 23.1586 26.0107 23.1377 25.9897V25.9897Z" fill="white"/>
<path d="M34.5332 31.5439C34.5759 31.5867 34.5759 31.5653 34.5332 31.5439V31.5439Z" fill="white"/>
</svg>
