<svg width="136" height="40" viewBox="0 0 136 40" fill="none" xmlns="http://www.w3.org/2000/svg">
<path d="M10.8059 18.6031H9.83935L9.80648 19.5691C9.70584 22.5266 9.61836 25.4413 9.53131 28.3416C9.44758 31.1311 9.36426 33.9073 9.27001 36.6955C8.96308 36.7155 8.58713 36.7317 8.15242 36.7422C7.24397 36.7644 6.15402 36.7613 5.06625 36.7358C3.9781 36.7102 2.90258 36.6623 2.02232 36.5961C1.62727 36.5664 1.29253 36.5343 1.02246 36.5022C1.31245 25.5363 1.55743 14.5675 1.80105 3.46562C2.63383 3.48447 3.44962 3.49684 4.25521 3.50905C6.22181 3.53886 8.12761 3.56775 10.0713 3.68776C10.1101 4.69168 10.0609 5.70082 10.0005 6.75767C9.99504 6.8531 9.98949 6.94897 9.98392 7.04526C9.91162 8.2941 9.83519 9.61437 9.91034 10.9733L9.95896 11.8525L10.8372 11.9155C14.11 12.1504 17.3771 12.2152 20.6246 12.2669C20.897 12.2713 21.1692 12.2755 21.4412 12.2797C24.0979 12.3212 26.7409 12.3623 29.3891 12.4874C29.3852 12.8529 29.3852 13.2087 29.3852 13.5534V13.5611C29.3852 14.2177 29.385 14.8299 29.3603 15.4259L29.0516 22.8702L29.0515 22.8702L29.0513 22.8769C28.9162 26.7678 25.606 29.8512 21.9122 30.0814C18.6816 30.2661 16.274 29.0008 14.3996 26.3645C13.5475 25.166 13.3468 23.7662 13.2449 22.076L13.2448 22.0741C13.2201 21.678 13.2077 21.2921 13.1947 20.8833L13.1939 20.8584C13.1814 20.4607 13.1682 20.042 13.1421 19.5963L13.0869 18.6548H12.1438C11.9462 18.6548 11.7562 18.6438 11.5338 18.6307L11.5232 18.63C11.3107 18.6175 11.0671 18.6031 10.8059 18.6031Z" fill="white" stroke="white" stroke-width="2"/>
<path d="M110.662 31.1241L110.662 31.1241L110.662 31.1349C110.71 32.0027 110.802 32.8694 110.894 33.745C110.902 33.8205 110.91 33.8961 110.918 33.9717C110.917 34.0152 110.916 34.0573 110.913 34.0996C107.729 34.2419 104.566 34.3842 101.402 34.5266L101.392 34.527C98.2647 34.6677 95.1371 34.8084 91.9904 34.9491C91.9448 34.3595 91.9121 33.7993 91.8801 33.2507C91.8771 33.1995 91.8742 33.1484 91.8712 33.0974C91.6656 28.1918 91.4597 23.2802 91.2024 18.3677C91.16 17.3261 91.1021 16.301 91.0446 15.2834C90.959 13.7665 90.8742 12.2662 90.8433 10.7531C90.844 9.84516 90.9391 8.92369 91.0871 7.97977C91.769 4.07708 95.4383 1.57378 98.5356 1.10231L98.5356 1.10233L98.5417 1.10135C102.935 0.404432 107.9 3.35917 109.204 8.1317L109.204 8.13172L109.208 8.14499C109.689 9.81364 109.773 11.4843 109.864 13.2885C109.872 13.4611 109.881 13.6348 109.89 13.8098C110.018 16.6919 110.146 19.5611 110.274 22.4301L110.276 22.4652C110.405 25.3472 110.533 28.2292 110.662 31.1241Z" fill="white" stroke="white" stroke-width="2"/>
<path d="M77.7439 29.7498L77.9727 28.9452C77.9815 28.9145 77.9901 28.8835 77.9988 28.8524C78.081 28.5595 78.168 28.2487 78.3718 27.9008C79.0901 26.5606 79.7997 25.236 80.4578 23.9138L80.4623 23.9048L80.4669 23.8959C82.0069 20.9513 82.9137 17.9286 82.7218 14.6998L82.7215 14.6946C82.5784 12.0579 81.6792 9.75945 79.9595 7.93703C77.5643 5.43774 74.6135 4.47123 71.2536 5.12753L77.7439 29.7498ZM77.7439 29.7498L78.4955 30.1172M77.7439 29.7498L78.4955 30.1172M78.4955 30.1172C80.2552 30.9773 81.9704 31.4212 83.791 31.6314C83.8004 32.0032 83.8006 32.3644 83.8006 32.7207C83.775 33.6791 83.7621 34.6236 83.7493 35.5606L83.7493 35.5637C83.7364 36.5082 83.7236 37.4451 83.6981 38.3938L83.6977 38.4072V38.4207C83.6977 38.5199 83.6882 38.6356 83.6703 38.7795C80.2361 38.801 77.2429 38.3326 74.5492 36.281L74.0211 35.8788L73.4454 36.2093C73.2117 36.3435 72.9902 36.5039 72.8083 36.6362L72.773 36.6619C72.5929 36.793 72.4398 36.9044 72.2795 37.0051L72.2734 37.0089L72.2673 37.0129C70.8075 37.9591 69.3757 38.409 67.953 38.4485C66.526 38.4882 65.0453 38.1166 63.4909 37.3241C60.3556 35.7046 59.9207 30.9941 63.2479 28.8827C65.3255 27.6523 67.3995 27.226 69.6411 27.9016L69.6634 27.9083L69.6861 27.914L69.9948 27.9915L70.3035 28.0691L70.8549 28.2076L71.2559 27.8047C71.2779 27.7826 71.3046 27.7576 71.3493 27.7161L71.3542 27.7116C71.3929 27.6757 71.4474 27.6252 71.5003 27.572C71.5555 27.5166 71.6272 27.4404 71.6958 27.3485C71.7558 27.2681 71.8319 27.1515 71.8889 27.0023C72.0181 26.6998 72.1534 26.3923 72.291 26.0797C73.0957 24.2514 73.9776 22.2476 74.1677 20.0514L74.1688 20.0393L74.1695 20.0272L74.171 20.0033C74.1823 19.8219 74.1958 19.6068 74.1862 19.4198C74.1766 19.2313 74.1393 18.8806 73.8894 18.5668C73.6225 18.2316 73.2655 18.123 73.035 18.0804C72.8128 18.0393 72.5657 18.0346 72.3481 18.0346C69.7353 18.0346 67.1209 17.9831 64.495 17.9314L64.4851 17.9312M78.4955 30.1172L64.4851 17.9312M64.4851 17.9312H64.4753M64.4851 17.9312H64.4753M64.4753 17.9312C64.151 17.9312 63.8058 17.9126 63.4248 17.8857C63.4461 17.3085 63.4461 16.6944 63.4461 16.1084C63.446 15.664 63.446 15.2358 63.4553 14.852C63.4801 13.8231 63.5664 12.8632 63.8393 11.9249M64.4753 17.9312L63.8393 11.9249M63.8393 11.9249C64.4142 10.0012 65.3196 8.501 66.5285 7.38955C67.7371 6.27848 69.2976 5.51106 71.2534 5.12756L63.8393 11.9249Z" fill="white" stroke="white" stroke-width="2"/>
<path d="M48.3167 19.6195L48.3261 19.619L48.3356 19.6183C50.4063 19.4749 52.4702 19.3818 54.6 19.2857C55.2218 19.2577 55.8492 19.2294 56.484 19.1995C56.5625 19.9023 56.6316 20.5877 56.6316 21.2572V21.27L56.6319 21.2827L56.6336 21.3467C56.6846 23.345 56.7335 25.2625 56.6834 27.1761L56.6831 27.1892V27.2023C56.6831 28.9116 55.8381 30.3814 54.5965 31.6774C50.7618 35.6217 45.3762 35.5326 41.6316 32.5699L41.6292 32.568C39.4867 30.8835 38.285 28.6125 38.0981 25.8426L38.0979 25.839C37.8582 22.4679 37.6645 19.1025 37.4704 15.7293C37.3732 14.0411 37.2759 12.3509 37.1727 10.657C37.1601 10.3922 37.1419 10.1112 37.089 9.86568C37.0339 9.61015 36.9138 9.25504 36.5903 8.98002C36.2748 8.71185 35.9131 8.64651 35.67 8.62475C35.43 8.60327 35.1552 8.61417 34.898 8.62644C33.6941 8.66815 32.517 8.71011 31.1816 8.7795C31.0235 6.64481 30.8655 4.53712 30.7075 2.43336C33.0311 2.15685 35.3644 2.012 37.7345 1.88098C38.0443 1.86386 38.3548 1.84696 38.666 1.83003C40.7454 1.71691 42.8553 1.60214 44.9827 1.40513C45.0132 1.59131 45.0387 1.7732 45.0571 1.95366C45.1333 3.13029 45.197 4.32059 45.2611 5.51751L45.2613 5.52039C45.3255 6.72039 45.39 7.92705 45.4676 9.12173L45.4676 9.12173L45.468 9.12787C45.5712 10.5794 45.6873 12.0432 45.8029 13.5023L45.8031 13.5043C45.9187 14.9628 46.034 16.4165 46.1364 17.8567C46.1482 18.0704 46.1636 18.3238 46.2126 18.542C46.2668 18.783 46.3998 19.159 46.7858 19.4119C47.1148 19.6275 47.4718 19.6412 47.6466 19.644C47.8051 19.6466 48.0013 19.6361 48.1907 19.6261C48.2332 19.6238 48.2753 19.6215 48.3167 19.6195Z" fill="white" stroke="white" stroke-width="2"/>
<path d="M134.846 13.4716L134.846 13.4716L134.846 13.4815C134.872 14.3307 134.897 15.1928 134.923 16.0551L134.923 16.0658L134.924 16.081C134.949 16.936 134.975 17.7913 135 18.6341C135 18.6413 135 18.6485 134.999 18.6558C132.119 18.6628 129.302 18.7065 126.383 18.7517C126.239 18.7539 126.095 18.7561 125.951 18.7584L124.958 18.7737L124.966 19.7659C124.992 23.1045 125.004 26.4179 125.017 29.7142L125.017 29.7718C125.029 32.798 125.041 35.81 125.063 38.8111C124.795 38.8374 124.476 38.8617 124.114 38.8836C123.21 38.9381 122.08 38.9749 120.929 38.9909C119.778 39.0069 118.617 39.002 117.653 38.9743C117.174 38.9605 116.763 38.9414 116.433 38.9188C116.396 37.9669 116.366 37.0189 116.366 36.0425C116.366 34.5224 116.379 33.0016 116.392 31.4758L116.392 31.4737C116.405 29.9523 116.417 28.426 116.417 26.8989C116.443 24.9526 116.43 23.0079 116.417 21.0748L116.417 21.0699C116.405 19.1296 116.392 17.2009 116.417 15.2739L116.417 15.2739V15.2607C116.417 13.4717 116.526 11.9062 117.197 10.4656C118.756 7.19235 121.682 5.03697 125.31 4.99085L125.314 4.99077C128.066 4.94311 130.369 5.74246 132.315 7.65155L132.317 7.65326C133.932 9.22975 134.8 11.2038 134.846 13.4716Z" fill="white" stroke="white" stroke-width="2"/>
</svg>
