<svg width="178" height="89" viewBox="0 0 178 89" fill="none" xmlns="http://www.w3.org/2000/svg">
<path d="M155.928 50.1394C163.25 49.9256 170.411 49.7118 177.626 49.498C177.679 49.9256 177.679 50.2997 177.679 50.6203C177.733 54.5216 177.84 58.4229 177.893 62.3776C177.947 66.7598 178 71.1421 178 75.5243C178 77.1276 177.786 78.624 177.145 80.1203C176.023 82.7924 174.045 84.6629 171.427 85.6783C166.831 87.4953 162.662 86.6937 159.135 83.1665C157.745 81.777 156.89 80.0134 156.463 78.0361C155.768 74.7227 156.089 71.4093 155.982 68.0959C155.875 62.912 155.822 57.7816 155.768 52.5977C155.768 51.7961 155.875 51.0479 155.928 50.1394Z" fill="white"/>
<path d="M0.0915228 74.7761C1.32069 74.4555 2.6033 74.7761 3.88591 74.5623C4.42033 73.6004 4.09967 72.585 4.26 71.4627C3.03083 71.4627 1.90855 71.4627 0.732827 71.4627C1.21381 68.8975 2.49641 67.1873 5.32884 65.1031C3.08428 62.5379 2.01544 59.5986 2.81707 56.1783C3.40493 53.72 4.68754 51.796 6.71833 50.3531C10.3524 47.7879 15.4828 48.4292 18.6359 51.3151C21.5752 53.9872 23.1785 59.7055 19.3841 64.3549C26.385 69.0578 26.5988 77.0741 23.606 81.9373C20.5598 86.854 14.0933 89.4727 8.37504 87.335C2.17576 85.0904 -0.549782 78.7843 0.0915228 74.7761Z" fill="white"/>
<path d="M53.5872 74.4021C57.8091 74.1349 61.7103 73.8676 65.7185 73.6004C65.6116 72.7988 65.0772 72.5316 64.6497 72.2109C62.6189 70.5008 60.4812 68.7907 58.5038 67.0271C57.1678 65.8513 56.0989 64.4084 55.3507 62.7517C54.4422 60.7743 54.3888 58.6901 54.9232 56.6059C56.0455 52.4374 58.8245 49.8722 62.993 49.0171C68.4975 47.8948 73.3073 50.6738 75.4449 55.3233C76.1931 56.8731 76.6207 58.5298 76.3 60.4537C72.8797 60.6675 69.406 60.8278 65.6651 61.0416C66.0926 61.5225 66.3064 61.8966 66.5736 62.1638C68.4975 63.874 70.4214 65.5307 72.3453 67.2408C73.7348 68.47 75.1243 69.7526 76.1397 71.3559C77.9567 74.2952 77.9567 77.2345 76.3 80.2272C73.7882 84.7164 69.7801 86.6937 64.81 86.3731C59.8933 85.999 56.3661 83.3269 54.6026 78.6774C54.1216 77.3414 53.9613 75.9519 53.5872 74.4021Z" fill="white"/>
<path d="M40.5471 74.8294C40.2799 78.8376 40.0127 82.6854 39.7455 86.6401C38.9973 86.6401 38.2491 86.6401 37.5544 86.6401C35.3098 86.5332 33.0653 86.3729 30.8207 86.2126C30.3397 86.1591 29.5381 86.3195 29.4312 86.0522C29.164 85.5713 29.2709 84.93 29.2709 84.3421C29.5915 78.8376 29.9656 73.2796 30.2863 67.7751C30.5535 62.5378 30.7672 57.3004 31.0879 52.0631C31.1413 51.4753 30.7672 50.7805 31.462 50.2461C34.7754 50.4064 38.1957 50.5133 41.7229 50.6736C41.5625 53.4526 41.3488 56.0713 41.1884 58.7434C42.1504 59.2778 43.1658 59.1709 44.0743 59.2778C46.1586 59.4916 47.9221 60.2932 49.3116 61.8965C50.327 63.1256 50.9683 64.5151 51.1821 66.0649C51.3424 67.3475 51.3424 68.6302 51.3424 69.9128C51.289 71.6763 51.1287 73.4934 50.9683 75.4173C47.4946 75.1501 44.1278 74.9898 40.5471 74.8294Z" fill="white"/>
<path d="M142.996 50.1394C143.049 53.5063 143.156 56.7128 143.209 60.0796C146.042 60.3468 148.821 60.1331 151.76 60.1865C151.867 63.2327 151.813 66.2255 151.813 69.2717C149.034 69.8061 146.255 69.3786 143.53 69.6458C143.637 75.2572 143.797 80.8151 143.904 86.5334C140.43 86.6403 137.063 86.6938 133.536 86.8006C133.536 85.8387 133.536 85.0371 133.536 84.2354C133.429 78.9981 133.376 73.7608 133.269 68.5235C133.216 64.6757 133.109 60.8278 133.002 57.0334C132.948 55.163 132.842 53.2925 132.788 51.422C132.788 51.1548 132.842 50.9411 132.842 50.5135C136.208 50.1929 139.522 50.0325 142.996 50.1394Z" fill="white"/>
<path d="M11.742 3.37729C8.21484 3.11008 4.79455 3.16352 1.21393 3.05664C0.893282 15.2414 0.626072 27.2124 0.30542 39.13C1.69491 39.5575 9.33712 39.7179 10.9404 39.3972C11.1542 33.2514 11.3145 27.0521 11.5282 20.7994C12.0092 20.7994 12.4368 20.8528 12.9177 20.8528C12.9712 21.7614 12.9712 22.563 13.0246 23.4181C13.1315 25.1816 13.3453 26.8918 14.4141 28.3882C16.5518 31.3809 19.3842 32.8773 23.1252 32.6635C27.454 32.3963 31.3552 28.8157 31.5156 24.2197C31.6225 21.6545 31.7293 19.0893 31.8362 16.524C31.8897 15.2414 31.8362 13.9054 31.8897 12.4624C25.1025 12.0883 18.3688 12.3021 11.6351 11.8211C11.4748 8.98871 12.0092 6.20972 11.742 3.37729Z" fill="white"/>
<path d="M117.29 32.1293C117.023 26.1438 116.755 20.2117 116.488 14.2262C116.381 12.1954 116.328 10.1646 115.74 8.13385C114.244 2.68276 108.579 -0.684088 103.502 0.117543C99.9747 0.651963 95.6993 3.48439 94.8977 8.08041C94.7374 9.0958 94.6305 10.1112 94.6305 11.1266C94.6839 13.7453 94.8977 16.4174 95.0046 19.036C95.2718 24.113 95.4856 29.19 95.6993 34.267C95.7528 35.1755 95.8062 36.1375 95.9131 37.2063C103.128 36.8857 110.236 36.565 117.45 36.2444C117.504 35.7634 117.557 35.4427 117.557 35.0686C117.504 34.0532 117.343 33.0913 117.29 32.1293Z" fill="white"/>
<path d="M129.154 82.6853C129.154 76.6998 129.207 70.7678 129.207 64.7823C129.207 62.7515 129.207 60.7207 128.78 58.6899C127.551 53.1853 122.046 49.5513 116.916 50.0857C113.335 50.4598 109.006 53.0785 107.937 57.621C107.724 58.583 107.563 59.6518 107.51 60.6672C107.456 63.2859 107.51 65.958 107.51 68.5766C107.51 73.6536 107.51 78.7306 107.51 83.8076C107.51 84.7161 107.563 85.6781 107.563 86.7469C114.778 86.7469 121.886 86.8004 129.1 86.8004C129.154 86.3728 129.261 85.9987 129.261 85.6246C129.261 84.6627 129.154 83.7007 129.154 82.6853Z" fill="white"/>
<path d="M83.8887 26.2506C83.9956 25.8765 84.049 25.6627 84.2093 25.3955C84.9575 24.006 85.7057 22.6166 86.4005 21.2271C88.0572 18.074 89.0726 14.7606 88.8588 11.18C88.6985 8.24065 87.6831 5.62199 85.7057 3.53775C82.9802 0.705319 79.5599 -0.416964 75.712 0.331225C71.3298 1.1863 68.4974 3.80496 67.2148 8.08032C66.5735 10.2714 66.8407 12.4626 66.7338 14.7071C66.7338 14.9209 66.8407 15.1881 66.9476 15.5088C67.6423 15.5622 68.2836 15.6156 68.8715 15.6156C71.597 15.6691 74.3226 15.7225 77.0481 15.7225C77.9566 15.7225 77.9566 15.8294 77.9032 16.6845C77.6894 19.1428 76.5671 21.3339 75.6052 23.5785C75.5517 23.7388 75.338 23.8992 75.1776 24.0595C74.9639 24.006 74.7501 23.9526 74.5363 23.8992C71.8642 23.0975 69.4059 23.6319 67.0544 25.0214C62.886 27.6401 63.4204 33.5187 67.3751 35.5495C70.8488 37.3131 74.2157 37.3131 77.5291 35.1754C77.9566 34.9082 78.3307 34.5876 78.7048 34.3738C82.0182 36.8856 85.7057 37.2597 89.7139 37.1528C89.7673 36.6718 89.8742 36.1908 89.8742 35.7633C89.9276 33.7859 89.9276 31.862 89.9811 29.8847C89.9811 29.2434 89.9811 28.5486 89.9276 27.8004C87.79 27.6401 85.8126 27.266 83.8887 26.2506Z" fill="white"/>
<path d="M61.4964 20.2651C58.2365 20.4255 55.1368 20.5323 52.0372 20.7461C50.9683 20.7996 50.9149 20.853 50.8615 19.891C50.6477 16.8983 50.3805 13.8521 50.1667 10.8593C50.0064 8.40101 49.8995 5.88923 49.7392 3.4309C49.6857 2.89648 49.5788 2.36206 49.472 1.82764C43.8071 2.4155 38.2491 2.36206 32.6912 3.11025C32.9049 5.99611 33.1187 8.7751 33.3859 11.7144C35.2029 11.6075 36.6993 11.5541 38.2491 11.5006C39.3714 11.4472 39.4783 11.5006 39.5317 12.6229C39.8524 17.8602 40.1196 23.0976 40.4937 28.3349C40.7075 31.488 42.097 34.1066 44.5553 36.0305C48.8307 39.3974 55.0299 39.5043 59.4122 35.0151C60.8017 33.5722 61.8705 31.8086 61.8705 29.6709C61.924 27.6401 61.8705 25.6093 61.8171 23.5251C61.7636 22.4028 61.6033 21.2805 61.4964 20.2651Z" fill="white"/>
<path d="M143.156 16.5243C143.102 14.7607 143.049 12.9436 142.996 11.1801C142.942 8.5614 141.927 6.26339 140.056 4.44636C137.812 2.25524 135.14 1.34673 132.04 1.40017C127.818 1.45361 124.451 3.96539 122.688 7.65289C121.886 9.36303 121.779 11.1801 121.779 13.0505C121.726 17.0587 121.832 21.0668 121.779 25.075C121.779 28.2281 121.726 31.3811 121.726 34.5342C121.726 35.8703 121.779 37.1529 121.832 38.4355C123.436 38.7561 131.719 38.6493 132.842 38.2752C132.788 31.488 132.788 24.6475 132.735 17.7C136.208 17.6465 139.522 17.5931 142.942 17.5931C143.049 17.0587 143.156 16.7915 143.156 16.5243Z" fill="white"/>
<path d="M102.7 64.9959C102.647 63.2324 102.593 61.4153 102.54 59.6517C102.486 57.0331 101.471 54.7351 99.6006 52.918C97.3561 50.7269 94.684 49.8184 91.5843 49.8718C87.3624 49.9253 83.9956 52.4371 82.232 56.1246C81.4303 57.8347 81.3235 59.6517 81.3235 61.5222C81.27 65.5304 81.3769 69.5385 81.3235 73.5467C81.3235 76.6998 81.27 79.8528 81.27 83.0059C81.27 84.342 81.3235 85.6246 81.3769 86.9072C82.9802 87.2278 91.2637 87.1209 92.386 86.7468C92.3325 79.9597 92.3325 73.1191 92.2791 66.1717C95.7528 66.1182 99.0662 66.0648 102.487 66.0648C102.593 65.4769 102.7 65.2632 102.7 64.9959Z" fill="white"/>
</svg>
