<svg width="257" height="75" viewBox="0 0 257 75" fill="none" xmlns="http://www.w3.org/2000/svg">
<path d="M20.3554 35.7561H19.389L19.3559 36.7219C19.1671 42.2459 19.0021 47.7163 18.8379 53.1617C18.672 58.6613 18.5069 64.1355 18.3187 69.6134C17.6035 69.6847 16.5941 69.7373 15.3786 69.7668C13.6501 69.8087 11.5824 69.8028 9.52255 69.7546C7.46235 69.7065 5.42043 69.6162 3.74286 69.4906C2.59022 69.4043 1.66119 69.3044 1.02179 69.2013C1.5848 48.0931 2.05737 26.9819 2.5285 5.60234C4.38318 5.64956 6.1992 5.67702 7.99376 5.70415C11.977 5.76437 15.8544 5.82299 19.814 6.09257C19.9553 8.29043 19.8496 10.4724 19.7205 12.7206C19.7103 12.8973 19.7 13.0745 19.6897 13.2521C19.5532 15.602 19.4121 18.0306 19.5508 20.5272L19.5996 21.4065L20.478 21.4692C26.6154 21.9076 32.7473 22.029 38.8653 22.1259C39.3789 22.1341 39.8925 22.142 40.4059 22.15C45.6919 22.232 50.9673 22.3138 56.2581 22.582C56.2373 23.5582 56.2373 24.5048 56.2373 25.4194V25.4273C56.2373 26.655 56.2372 27.8213 56.1897 28.96L55.6081 42.918L55.6079 42.9247C55.3366 50.702 48.7107 56.8196 41.3298 57.2764C34.9138 57.6423 30.0958 55.1084 26.4033 49.9389C24.6429 47.4743 24.2605 44.6278 24.0676 41.4452L24.0675 41.4433C24.0201 40.6854 23.9963 39.949 23.972 39.1839L23.9706 39.1409C23.9469 38.3929 23.9223 37.618 23.8738 36.7943L23.8184 35.853H22.8755C22.4732 35.853 22.0898 35.8307 21.6742 35.8063L21.6628 35.8056C21.2577 35.7818 20.8211 35.7561 20.3554 35.7561Z" stroke="white" stroke-width="2"/>
<path d="M209.34 58.319L209.34 58.319L209.34 58.3299C209.429 59.9341 209.599 61.5372 209.773 63.1825C209.79 63.34 209.806 63.4979 209.823 63.6562C209.82 64.0253 209.786 64.3537 209.736 64.7768C203.48 65.055 197.267 65.3332 191.053 65.6114C184.874 65.8881 178.694 66.1648 172.473 66.4415C172.348 65.0105 172.27 63.6813 172.195 62.3989C172.189 62.2994 172.183 62.2002 172.178 62.1013C171.79 52.8985 171.402 43.6896 170.918 34.4798C170.839 32.5567 170.731 30.6428 170.623 28.735C170.46 25.8701 170.299 23.0188 170.24 20.1707C170.241 18.4038 170.427 16.6231 170.711 14.8198C172.075 7.02923 179.379 2.12634 185.48 1.20191L185.48 1.20193L185.487 1.20096C194.204 -0.17547 203.987 5.63338 206.563 15.0174L206.563 15.0175L206.567 15.0308C207.502 18.2615 207.665 21.4941 207.835 24.8603C207.852 25.1894 207.868 25.5198 207.886 25.8516C208.128 31.2656 208.369 36.6554 208.611 42.0451L208.613 42.0834L208.614 42.103C208.856 47.5004 209.098 52.8976 209.34 58.319Z" stroke="white" stroke-width="2"/>
<path d="M147.499 55.3171L147.729 54.5102C147.746 54.4526 147.762 54.3958 147.778 54.3399C147.936 53.7791 148.073 53.2964 148.402 52.7406C149.757 50.2246 151.103 47.7242 152.352 45.2263L152.357 45.2173L152.361 45.2084C155.311 39.5951 157.081 33.7686 156.707 27.5102L156.707 27.505C156.428 22.3816 154.665 17.8672 151.264 14.2804C146.55 9.38314 140.688 7.4651 134.052 8.75521L147.499 55.3171ZM147.499 55.3171L148.254 55.6842M147.499 55.3171L148.254 55.6842M148.254 55.6842C151.703 57.3621 155.061 58.1717 158.696 58.5188C158.741 59.5125 158.741 60.4558 158.741 61.3627C158.693 63.158 158.668 64.9282 158.644 66.6907L158.644 66.6937C158.62 68.4637 158.596 70.226 158.548 72.0115L158.547 72.025V72.0385C158.547 72.3513 158.508 72.7046 158.448 73.1208C158.432 73.2328 158.414 73.3517 158.396 73.4751C158.391 73.509 158.386 73.5431 158.38 73.5776C151.522 73.6914 145.399 72.8955 139.893 68.7214L139.366 68.3223L138.793 68.6501C138.4 68.8745 138.019 69.1479 137.672 69.399L137.599 69.4519C137.267 69.693 136.955 69.9189 136.626 70.1243L136.62 70.1281L136.614 70.132C130.934 73.7964 125.211 73.8138 119.195 70.7603C112.695 67.4212 111.807 57.7377 118.678 53.4097C122.757 51.0024 126.924 50.1228 131.441 51.4778L131.463 51.4845L131.486 51.4901L132.649 51.7809L133.198 51.9183L133.598 51.5179C133.655 51.4618 133.718 51.4029 133.8 51.3275L133.806 51.3219C133.881 51.2529 133.972 51.1687 134.059 51.0817C134.204 50.9367 134.463 50.6667 134.598 50.3047C134.851 49.7151 135.113 49.1212 135.378 48.522C136.894 45.0885 138.487 41.4823 138.831 37.521L138.832 37.5089L138.833 37.4968L138.834 37.4758C138.857 37.1157 138.879 36.7563 138.864 36.4563C138.848 36.1569 138.791 35.7264 138.494 35.3558C138.182 34.9647 137.754 34.8229 137.416 34.7607C137.086 34.7 136.695 34.6897 136.284 34.6897C131.352 34.6897 126.418 34.5929 121.473 34.496L121.463 34.4958M148.254 55.6842L121.463 34.4958M121.463 34.4958H121.454M121.463 34.4958H121.454M121.454 34.4958C120.614 34.4958 119.707 34.4328 118.699 34.3557C118.684 34.3084 118.669 34.2618 118.655 34.2149C118.596 34.0179 118.579 33.9135 118.577 33.8626C118.632 32.6809 118.631 31.4491 118.631 30.2532C118.63 29.4168 118.63 28.598 118.649 27.8262C118.696 25.8646 118.862 23.9778 119.408 22.1127M121.454 34.4958L119.408 22.1127M119.408 22.1127C120.528 18.3802 122.308 15.4213 124.722 13.2126C127.135 11.004 130.231 9.50091 134.052 8.75527L119.408 22.1127Z" stroke="white" stroke-width="2"/>
<path d="M90.9705 35.9131L90.9799 35.9127L90.9894 35.912C94.9011 35.6422 98.806 35.4669 102.823 35.2866C104.261 35.222 105.714 35.1568 107.186 35.0864C107.197 35.1829 107.208 35.2796 107.219 35.3763C107.39 36.8761 107.562 38.391 107.562 39.8578V39.8706L107.562 39.8834L107.566 40.0145C107.661 43.7533 107.754 47.3679 107.659 50.9785L107.659 50.9916V51.0048C107.659 54.5219 105.906 57.484 103.482 60.002C95.918 67.7476 85.2554 67.5683 77.8721 61.7538L77.8697 61.752C73.6356 58.4384 71.253 53.9511 70.8844 48.5139L70.8841 48.5103C70.4323 42.184 70.0668 35.8634 69.7009 29.535C69.5178 26.3691 69.3346 23.2012 69.1405 20.0297C69.1165 19.528 69.0842 19.0654 69.0012 18.682C68.916 18.2886 68.7498 17.8401 68.3517 17.5032C67.9624 17.1738 67.499 17.0778 67.113 17.0434C66.7295 17.0092 66.27 17.0258 65.7746 17.0493C63.2486 17.1364 60.7925 17.2239 57.9195 17.382C57.5797 12.8053 57.24 8.29842 56.9002 3.79672C61.5872 3.20676 66.284 2.91494 71.0321 2.65368C71.6165 2.62152 72.2019 2.58982 72.788 2.55808C76.9727 2.33145 81.2005 2.10249 85.4624 1.68713C85.5861 2.33649 85.6925 2.96614 85.7558 3.59155C85.9003 5.80859 86.0208 8.05061 86.1417 10.2993L86.1419 10.3026C86.2629 12.5541 86.3844 14.8124 86.5301 17.0474L86.5301 17.0474L86.5305 17.0535C86.7247 19.7715 86.943 22.513 87.161 25.2497L87.1612 25.2523C87.3791 27.9886 87.5967 30.7202 87.7901 33.4269C87.8132 33.8429 87.8399 34.247 87.9141 34.5758C87.9935 34.9274 88.1657 35.3725 88.6174 35.6672C89.0113 35.9241 89.4598 35.9532 89.7671 35.9582C90.0316 35.9624 90.3597 35.9451 90.7153 35.9263C90.799 35.9219 90.8842 35.9174 90.9705 35.9131Z" stroke="white" stroke-width="2"/>
<path d="M254.896 25.2417L254.896 25.2417L254.896 25.2516C254.945 26.8506 254.993 28.474 255.042 30.0976L255.042 30.0999C255.09 31.7172 255.138 33.3348 255.187 34.9284C255.185 35.1574 255.156 35.3561 255.03 35.8534C249.356 35.8606 243.828 35.9458 238.083 36.0344C237.812 36.0385 237.541 36.0427 237.27 36.0469L236.278 36.0622L236.285 37.0545C236.333 43.3161 236.358 49.5301 236.382 55.7103L236.382 55.8188C236.405 61.7569 236.428 67.6639 236.473 73.5486C236.347 73.5663 236.204 73.5843 236.044 73.6024C235.456 73.6688 234.71 73.7285 233.849 73.7802C232.129 73.8835 229.985 73.9528 227.809 73.983C225.632 74.0131 223.432 74.004 221.601 73.9515C220.297 73.9141 219.221 73.8555 218.476 73.7805C218.392 71.7329 218.318 69.6925 218.318 67.5798C218.318 64.7253 218.342 61.8701 218.366 59.01L218.366 59.0078C218.39 56.152 218.415 53.2913 218.415 50.4298C218.463 46.7872 218.439 43.1462 218.415 39.5168L218.415 39.5118C218.39 35.8753 218.366 32.2504 218.414 28.6272H218.415V28.6138C218.415 25.2418 218.614 22.1392 219.966 19.2518C223.025 12.8584 228.815 8.57438 236.038 8.48296L236.042 8.48288C241.433 8.38995 246.01 9.95922 249.866 13.7236L249.868 13.7253C253.074 16.8402 254.805 20.7589 254.896 25.2417Z" stroke="white" stroke-width="2"/>
</svg>
