<svg width="261" height="129" viewBox="0 0 261 129" fill="none" xmlns="http://www.w3.org/2000/svg">
<path d="M259.207 74.1323H259.207L259.207 74.146C259.246 76.9774 259.304 79.8082 259.362 82.6445L259.364 82.7325C259.423 85.5992 259.481 88.4717 259.52 91.3632C259.599 97.7817 259.677 104.193 259.677 110.604C259.677 112.858 259.377 114.907 258.505 116.94L258.502 116.947C256.966 120.605 254.276 123.151 250.689 124.541L250.682 124.544C247.463 125.817 244.451 126.151 241.66 125.589C238.87 125.028 236.224 123.555 233.756 121.088C231.883 119.215 230.708 116.818 230.114 114.074C229.625 111.742 229.49 109.391 229.461 106.991C229.45 106.045 229.455 105.07 229.461 104.083C229.469 102.624 229.478 101.142 229.431 99.6984C229.275 92.1164 229.197 84.6117 229.119 77.0231C229.119 76.3269 229.173 75.7051 229.235 75.0001C229.252 74.8077 229.27 74.6091 229.287 74.4011C237.016 74.1752 244.627 73.9492 252.238 73.7233C254.558 73.6544 256.878 73.5856 259.201 73.5167C259.207 73.7279 259.207 73.9319 259.207 74.1323Z" stroke="white" stroke-width="2"/>
<path d="M2.3338 103.655H2.33324C3.13126 100.858 4.84952 98.7573 8.39676 96.1471L9.27326 95.5021L8.55666 94.6831C5.43193 91.112 4.01522 87.1282 5.09873 82.5019C5.90488 79.1327 7.64644 76.5256 10.4169 74.5567C15.3129 71.1017 22.3071 71.9426 26.6168 75.8871L26.6193 75.8893C30.6009 79.509 32.7766 87.2864 27.6129 93.6137L26.9189 94.464L27.83 95.076C37.5732 101.621 37.8622 112.737 33.7196 119.47C29.4865 126.301 20.5031 129.912 12.6153 126.963L12.6153 126.963L12.6056 126.959C8.31193 125.405 5.21846 122.444 3.30665 119.168C1.54446 116.148 0.818958 112.919 1.03824 110.35C1.59849 110.278 2.19445 110.278 2.86215 110.292C2.94622 110.294 3.03167 110.296 3.11835 110.298C3.95264 110.317 4.90199 110.34 5.85533 110.181L6.33094 110.102L6.56509 109.68C7.07724 108.758 7.15972 107.834 7.17022 107.026C7.17366 106.761 7.17063 106.52 7.16777 106.29C7.16124 105.767 7.15551 105.309 7.22874 104.797L7.3918 103.655H6.23879H6.22824H6.2177H6.20716H6.19663H6.1861H6.17557H6.16504H6.15452H6.14401H6.13349H6.12298H6.11247H6.10197H6.09147H6.08097H6.07048H6.05999H6.04951H6.03902H6.02854H6.01807H6.00759H5.99713H5.98666H5.9762H5.96574H5.95528H5.94483H5.93438H5.92393H5.91349H5.90305H5.89261H5.88218H5.87175H5.86132H5.8509H5.84048H5.83006H5.81965H5.80924H5.79883H5.78842H5.77802H5.76762H5.75723H5.74684H5.73645H5.72606H5.71568H5.7053H5.69492H5.68455H5.67418H5.66381H5.65345H5.64308H5.63273H5.62237H5.61202H5.60167H5.59132H5.58098H5.57064H5.5603H5.54996H5.53963H5.5293H5.51897H5.50865H5.49833H5.48801H5.4777H5.46738H5.45707H5.44677H5.43646H5.42616H5.41586H5.40557H5.39527H5.38498H5.3747H5.36441H5.35413H5.34385H5.33357H5.3233H5.31303H5.30276H5.29249H5.28223H5.27197H5.26171H5.25146H5.2412H5.23095H5.2207H5.21046H5.20022H5.18997H5.17974H5.1695H5.15927H5.14904H5.13881H5.12859H5.11836H5.10814H5.09792H5.08771H5.0775H5.06729H5.05708H5.04687H5.03667H5.02647H5.01627H5.00607H4.99588H4.98568H4.97549H4.96531H4.95512H4.94494H4.93476H4.92458H4.91441H4.90423H4.89406H4.88389H4.87372H4.86356H4.8534H4.84324H4.83308H4.82292H4.81277H4.80262H4.79247H4.78232H4.77217H4.76203H4.75189H4.74175H4.73161H4.72148H4.71134H4.70121H4.69108H4.68096H4.67083H4.66071H4.65059H4.64047H4.63035H4.62024H4.61012H4.60001H4.5899H4.57979H4.56969H4.55959H4.54948H4.53938H4.52928H4.51919H4.50909H4.499H4.48891H4.47882H4.46873H4.45865H4.44857H4.43848H4.4284H4.41832H4.40825H4.39817H4.3881H4.37803H4.36796H4.35789H4.34782H4.33776H4.32769H4.31763H4.30757H4.29751H4.28746H4.2774H4.26735H4.2573H4.24724H4.2372H4.22715H4.2171H4.20706H4.19701H4.18697H4.17693H4.16689H4.15686H4.14682H4.13679H4.12675H4.11672H4.10669H4.09666H4.08664H4.07661H4.06659H4.05656H4.04654H4.03652H4.0265H4.01649H4.00647H3.99645H3.98644H3.97643H3.96642H3.95641H3.9464H3.93639H3.92638H3.91638H3.90637H3.89637H3.88637H3.87637H3.86637H3.85637H3.84638H3.83638H3.82639H3.81639H3.8064H3.79641H3.78642H3.77643H3.76644H3.75645H3.74647H3.73648H3.7265H3.71651H3.70653H3.69655H3.68657H3.67659H3.66661H3.65664H3.64666H3.63668H3.62671H3.61674H3.60676H3.59679H3.58682H3.57685H3.56688H3.55691H3.54694H3.53698H3.52701H3.51705H3.50708H3.49712H3.48715H3.47719H3.46723H3.45727H3.44731H3.43735H3.42739H3.41743H3.40748H3.39752H3.38756H3.37761H3.36765H3.3577H3.34775H3.33779H3.32784H3.31789H3.30794H3.29799H3.28804H3.27809H3.26814H3.25819H3.24824H3.2383H3.22835H3.2184H3.20846H3.19851H3.18857H3.17862H3.16868H3.15873H3.14879H3.13885H3.1289H3.11896H3.10902H3.09908H3.08914H3.0792H3.06925H3.05931H3.04937H3.03943H3.0295H3.01956H3.00962H2.99968H2.98974H2.9798H2.96986H2.95993H2.94999H2.94005H2.93011H2.92018H2.91024H2.9003H2.89037H2.88043H2.87049H2.86056H2.85062H2.84068H2.83075H2.82081H2.81088H2.80094H2.791H2.78107H2.77113H2.7612H2.75126H2.74132H2.73139H2.72145H2.71152H2.70158H2.69164H2.68171H2.67177H2.66183H2.6519H2.64196H2.63202H2.62209H2.61215H2.60221H2.59227H2.58234H2.5724H2.56246H2.55252H2.54258H2.53264H2.52271H2.51277H2.50283H2.49289H2.48295H2.473H2.46306H2.45312H2.44318H2.43324H2.4233H2.41335H2.40341H2.39347H2.38352H2.37358H2.36363H2.35369H2.34374H2.3338Z" stroke="white" stroke-width="2"/>
<path d="M79.7098 109.884C83.9182 109.615 87.9242 109.346 91.9283 109.077C93.3857 108.979 94.8429 108.882 96.3095 108.784L97.3754 108.713L97.2342 107.654C97.0367 106.173 96.0489 105.489 95.4821 105.096C95.4142 105.049 95.3523 105.006 95.2985 104.967C94.3341 104.155 93.3602 103.348 92.3869 102.542C90.3382 100.846 88.2921 99.1518 86.3429 97.4133L86.3429 97.4132L86.3379 97.4088C84.4887 95.7816 83.0086 93.7843 81.971 91.4868L81.971 91.4868L81.9683 91.4809C80.7522 88.834 80.6651 86.0252 81.4007 83.1521C82.9458 77.4205 86.7157 73.941 92.4518 72.7641C100.033 71.2188 106.631 75.0269 109.579 81.4374L109.582 81.4459L109.587 81.4544C110.514 83.3761 111.059 85.3545 110.854 87.5857C108.178 87.7483 105.482 87.8907 102.706 88.0373C100.563 88.1505 98.372 88.2662 96.1077 88.3955L94.0441 88.5135L95.4173 90.0583C95.6999 90.3762 95.9128 90.6594 96.118 90.9331L96.1386 90.9606C96.3282 91.2134 96.5415 91.4979 96.7881 91.7446L96.8089 91.7654L96.8308 91.7849C98.2426 93.0398 99.6539 94.2747 101.062 95.5066L101.063 95.5076C102.472 96.7407 103.878 97.9708 105.283 99.22L105.285 99.2216C107.321 101.022 109.254 102.817 110.657 105.029C111.904 107.049 112.503 109.025 112.53 110.979C112.556 112.936 112.01 114.937 110.866 117.004C109.11 120.142 106.856 122.361 104.212 123.747C101.565 125.134 98.4686 125.718 94.9825 125.494C88.1819 124.974 83.35 121.321 80.902 114.875C80.5757 113.966 80.3529 113.026 80.1409 112.005C80.0811 111.717 80.0217 111.42 79.9608 111.115C79.881 110.716 79.7988 110.304 79.7098 109.884Z" stroke="white" stroke-width="2"/>
<path d="M59.425 108.587L58.4476 108.543L58.3825 109.52C58.1478 113.041 57.9131 116.477 57.6784 119.913C57.5428 121.897 57.4073 123.881 57.2717 125.883H57.2708H57.2644H57.2581H57.2517H57.2453H57.2389H57.2325H57.2261H57.2198H57.2134H57.207H57.2006H57.1943H57.1879H57.1815H57.1751H57.1688H57.1624H57.156H57.1496H57.1433H57.1369H57.1305H57.1242H57.1178H57.1114H57.105H57.0987H57.0923H57.0859H57.0796H57.0732H57.0668H57.0605H57.0541H57.0478H57.0414H57.035H57.0287H57.0223H57.0159H57.0096H57.0032H56.9969H56.9905H56.9842H56.9778H56.9714H56.9651H56.9587H56.9524H56.946H56.9397H56.9333H56.927H56.9206H56.9143H56.9079H56.9016H56.8952H56.8889H56.8825H56.8762H56.8699H56.8635H56.8572H56.8508H56.8445H56.8381H56.8318H56.8255H56.8191H56.8128H56.8065H56.8001H56.7938H56.7874H56.7811H56.7748H56.7685H56.7621H56.7558H56.7495H56.7431H56.7368H56.7305H56.7242H56.7178H56.7115H56.7052H56.6989H56.6925H56.6862H56.6799H56.6736H56.6672H56.6609H56.6546H56.6483H56.642H56.6357H56.6294H56.623H56.6167H56.6104H56.6041H56.5978H56.5915H56.5852H56.5789H56.5726H56.5663H56.56H56.5537H56.5474H56.5411H56.5348H56.5285H56.5222H56.5159H56.5096H56.5033H56.497H56.4907H56.4844H56.4781H56.4718H56.4655H56.4592H56.4529H56.4466H56.4404H56.4341H56.4278H56.4215H56.4152H56.4089H56.4027H56.3964H56.3901H56.3838H56.3775H56.3713H56.365H56.3587H56.3525H56.3462H56.3399H56.3336H56.3274H56.3211H56.3148H56.3086H56.3023H56.296H56.2898H56.2835H56.2773H56.271H56.2647H56.2585H56.2522H56.246H56.2397H56.2335H56.2272H56.221H56.2147H56.2085H56.2022H56.196H56.1897H56.1835H56.1772H56.171H56.1648H56.1585H56.1523H56.146H56.1398H56.1336H56.1273H56.1211H56.1149H56.1087H56.1024H56.0962H56.09H56.0837H56.0775H56.0713H56.0651H56.0589H56.0526H56.0464H56.0402H56.034H56.0278H56.0216H56.0153H56.0091H56.0029H55.9967H55.9905H55.9843H55.9781H55.9719H55.9657H55.9595H55.9533H55.9471H55.9409H55.9347H55.9285H55.9223H55.9161H55.9099H55.9037H55.8975H55.8913H55.8852H55.879H55.8728H55.8666H55.8604H55.8542H55.8481H55.8419H55.8357H55.8295H55.8234H55.8172H55.811H55.8049H55.7987H55.7925H55.7864H55.7802H55.774H55.7679H55.7617H55.7555H55.7494H55.7432H55.7371H55.7309H55.7248H55.7186H55.7125H55.7063H55.7002H55.694H55.6879H55.6817H55.6756H55.6695H55.6633H55.6572H55.6511H55.6449H55.6388H55.6327H55.6265H55.6204H55.6143H55.6081H55.602H55.5959H55.5898H55.5837H55.5775H55.5714H55.5653H55.5592H55.5531H55.547H55.5409H55.5348H55.5287H55.5225H55.5164H55.5103H55.5042H55.4981H55.492H55.4859H55.4799H55.4738H55.4677H55.4616H55.4555H55.4494H55.4433H55.4372H55.4312H55.4251H55.419H55.4129H55.4068H55.4008H55.3947H55.3886H55.3826H55.3765H55.3704H55.3644H55.3583H55.3522H55.3462H55.3401H55.334H55.328H55.3219H55.3159H55.3098H55.3038H55.2977H55.2917H55.2856H55.2796H55.2736H55.2675H55.2615H55.2555H55.2494H55.2434H55.2374H55.2313H55.2253H55.2193H55.2132H55.2072H55.2012H55.1952H55.1892H55.1831H55.1771H55.1711H55.1651H55.1591H55.1531H55.1471H55.1411H55.1351H55.1291H55.1231H55.1171H55.1111H55.1051H55.0991H55.0931H55.0871H55.0811H55.0751H55.0692H55.0632H55.0572H55.0512H55.0452H55.0393H55.0333H55.0273H55.0214H55.0213C51.7618 125.727 48.5003 125.494 45.2251 125.26C44.9837 125.235 44.7295 125.237 44.52 125.242C44.4308 125.244 44.3508 125.247 44.276 125.249C44.1461 125.253 44.032 125.257 43.9133 125.257C43.9018 125.257 43.8906 125.256 43.8797 125.256C43.856 125.138 43.8411 124.991 43.8369 124.805C43.8328 124.624 43.8388 124.432 43.8474 124.212C43.8483 124.187 43.8493 124.163 43.8503 124.138C43.8576 123.954 43.8657 123.75 43.8664 123.547C44.1006 119.529 44.3542 115.49 44.608 111.449L44.6081 111.448C44.8624 107.398 45.1169 103.346 45.3518 99.3134L45.3519 99.3134L45.3522 99.3062C45.483 96.7422 45.6049 94.1819 45.7268 91.6236C45.9698 86.5189 46.2125 81.422 46.5248 76.3196C46.5518 76.0011 46.5213 75.694 46.4974 75.4702C46.4937 75.4358 46.4901 75.403 46.4867 75.3717C46.4646 75.1681 46.4492 75.0263 46.4492 74.8856C46.4492 74.7436 46.4672 74.6611 46.4898 74.6054C48.9526 74.7219 51.4734 74.8203 54.0302 74.9201C56.0164 74.9977 58.0243 75.076 60.0437 75.1644C59.9327 76.9792 59.8107 78.7194 59.6892 80.4513C59.5614 82.2739 59.4342 84.0873 59.3213 85.9686L59.2836 86.597L59.8338 86.9027C60.6989 87.3833 61.5686 87.5627 62.353 87.6487C62.7307 87.6901 63.1022 87.7109 63.4385 87.7298L63.4662 87.7313C63.8194 87.7512 64.1316 87.7693 64.4289 87.8043L64.4363 87.8052L64.4437 87.806C67.2757 88.0964 69.6081 89.1687 71.4523 91.2922C72.8249 92.9568 73.6775 94.8162 73.9635 96.8813C74.1879 98.6807 74.1897 100.49 74.1897 102.371C74.1212 104.617 73.9329 106.925 73.728 109.376C68.9716 109.027 64.3291 108.807 59.425 108.587Z" stroke="white" stroke-width="2"/>
<path d="M203.063 125.924C200.916 125.974 198.758 126.024 196.561 126.087V126.086V126.078V126.07V126.063V126.055V126.047V126.04V126.032V126.025V126.017V126.009V126.002V125.994V125.987V125.979V125.971V125.964V125.956V125.949V125.941V125.934V125.926V125.918V125.911V125.903V125.896V125.888V125.881V125.873V125.866V125.858V125.851V125.843V125.835V125.828V125.82V125.813V125.805V125.798V125.79V125.783V125.775V125.768V125.76V125.753V125.746V125.738V125.731V125.723V125.716V125.708V125.701V125.693V125.686V125.678V125.671V125.664V125.656V125.649V125.641V125.634V125.626V125.619V125.612V125.604V125.597V125.589V125.582V125.575V125.567V125.56V125.552V125.545V125.538V125.53V125.523V125.515V125.508V125.501V125.493V125.486V125.479V125.471V125.464V125.457V125.449V125.442V125.435V125.427V125.42V125.413V125.405V125.398V125.391V125.383V125.376V125.369V125.361V125.354V125.347V125.339V125.332V125.325V125.318V125.31V125.303V125.296V125.288V125.281V125.274V125.267V125.259V125.252V125.245V125.238V125.23V125.223V125.216V125.209V125.201V125.194V125.187V125.18V125.172V125.165V125.158V125.151V125.144V125.136V125.129V125.122V125.115V125.107V125.1V125.093V125.086V125.079V125.071V125.064V125.057V125.05V125.043V125.036V125.028V125.021V125.014V125.007V125V124.992V124.985V124.978V124.971V124.964V124.957V124.95V124.942V124.935V124.928V124.921V124.914V124.907V124.9V124.892V124.885V124.878V124.871V124.864V124.857V124.85V124.843V124.835V124.828V124.821V124.814V124.807V124.8V124.793V124.786V124.779V124.771V124.764V124.757V124.75V124.743V124.736V124.729V124.722V124.715V124.708V124.701V124.694V124.686V124.679V124.672V124.665V124.658V124.651V124.644V124.637V124.63V124.623V124.616V124.609V124.602V124.595V124.588V124.581V124.574V124.567V124.56V124.552V124.545V124.538V124.531V124.524V124.517V124.51V124.503V124.496V124.489V124.482V124.475V124.468V124.461V124.454V124.447V124.44V124.433V124.426V124.419V124.412V124.405V124.398V124.391V124.384V124.377V124.37V124.363V124.356V124.349V124.342V124.335V124.328V124.321V124.314V124.307V124.3V124.293V124.286V124.279V124.272V124.266V124.259V124.252V124.245V124.238V124.231V124.224V124.217V124.21V124.203V124.196V124.189V124.182V124.175V124.168V124.161V124.154V124.147V124.14V124.133V124.126V124.119V124.113V124.106V124.099V124.092V124.085V124.078V124.071V124.064V124.057V124.05V124.043V124.036V124.029V124.022V124.015V124.009V124.002V123.995V123.988V123.981V123.974V123.967V123.96V123.953V123.946V123.939V123.932V123.925V123.919V123.912V123.905V123.898V123.891V123.884V123.877V123.87V123.863V123.856V123.849V123.843V123.836V123.829V123.822V123.815V123.808V123.801V123.794V123.787V123.78V123.774V123.767V123.76V123.753V123.746V123.739V123.732V123.725V123.718V123.712V123.705V123.698V123.691V123.684V123.677V123.67V123.663V123.656V123.649V123.643V123.636V123.629V123.622V123.615V123.608V123.601V123.594V123.588V123.581V123.574V123.567V123.56V123.553V123.546V123.539V123.532V123.526V123.519V123.512V123.505V123.498V123.491V123.484V123.477V123.471V123.464V123.457V123.45V123.443V123.436V123.429V123.422V123.415V123.409V123.402V123.395V123.388V123.381V123.374V123.367V123.36V123.35L196.56 123.34C196.482 119.508 196.424 115.676 196.365 111.84L196.365 111.839C196.306 108.006 196.247 104.17 196.169 100.334C196.091 94.6914 195.934 89.0506 195.778 83.4956L195.778 83.4952C195.738 82.1185 195.679 80.7429 195.621 79.3756L195.621 79.3721C195.562 78.0065 195.504 76.6492 195.465 75.2931C195.466 75.1765 195.476 75.07 195.493 74.8934C195.493 74.8929 195.493 74.8924 195.493 74.8919C199.789 74.5064 204.03 74.3088 208.43 74.4024C208.468 76.5389 208.519 78.6358 208.57 80.7289L208.57 80.7307C208.629 83.1379 208.688 85.5404 208.727 88.0008L208.741 88.8963L209.633 88.9805C212.339 89.2358 215.071 89.1964 217.791 89.1572C218.957 89.1404 220.121 89.1237 221.28 89.1302C221.363 92.1257 221.35 95.0876 221.337 98.0859C221.333 98.9211 221.33 99.7591 221.328 100.601C219.66 100.846 217.973 100.875 216.237 100.867C215.918 100.866 215.597 100.863 215.273 100.86C213.579 100.845 211.83 100.829 210.099 100.999L209.179 101.089L209.196 102.013C209.273 106.031 209.368 110.03 209.464 114.043L209.47 114.325C209.56 118.11 209.651 121.91 209.725 125.756C207.524 125.82 205.346 125.871 203.158 125.922L203.063 125.924Z" stroke="white" stroke-width="2"/>
<path d="M16.8828 29.4604H15.9164L15.8834 30.4262C15.7308 34.8912 15.5976 39.307 15.465 43.7022C15.3329 48.0841 15.2013 52.4454 15.0517 56.8145C14.4978 56.8632 13.7507 56.9001 12.8597 56.9217C11.4678 56.9555 9.80142 56.9508 8.14057 56.9119C6.47935 56.8731 4.83409 56.8003 3.48375 56.6992C2.64641 56.6365 1.96393 56.5654 1.46941 56.4931C1.71025 47.4935 1.93112 38.4647 2.15329 29.3833C2.34691 21.4686 2.54151 13.514 2.75116 5.5035C4.1709 5.53886 5.56582 5.56008 6.94749 5.58109C10.0761 5.62869 13.1368 5.67525 16.2637 5.88251C16.3614 7.59153 16.2789 9.3051 16.1779 11.072C16.1694 11.2209 16.1608 11.3703 16.1521 11.5201C16.0423 13.4176 15.9285 15.3822 16.0409 17.3685L16.0907 18.2467L16.9681 18.3094C21.9296 18.6638 26.8855 18.7619 31.8253 18.8401C32.2399 18.8467 32.6543 18.8531 33.0686 18.8595C37.2753 18.9248 41.4698 18.9898 45.6756 19.1988C45.6625 19.923 45.6625 20.626 45.6625 21.3054V21.3132C45.6625 22.3052 45.6623 23.2428 45.6242 24.1576L45.6233 24.1796L45.6224 24.2016L45.6215 24.2236L45.6205 24.2456L45.6196 24.2677L45.6187 24.2897L45.6178 24.3117L45.6169 24.3337L45.616 24.3557L45.615 24.3777L45.6141 24.3997L45.6132 24.4217L45.6123 24.4437L45.6114 24.4658L45.6105 24.4878L45.6095 24.5098L45.6086 24.5318L45.6077 24.5538L45.6068 24.5758L45.6059 24.5978L45.6049 24.6198L45.604 24.6419L45.6031 24.6639L45.6022 24.6859L45.6013 24.7079L45.6004 24.7299L45.5994 24.7519L45.5985 24.7739L45.5976 24.7959L45.5967 24.818L45.5958 24.84L45.5949 24.862L45.5939 24.884L45.593 24.906L45.5921 24.928L45.5912 24.95L45.5903 24.972L45.5894 24.994L45.5884 25.0161L45.5875 25.0381L45.5866 25.0601L45.5857 25.0821L45.5848 25.1041L45.5839 25.1261L45.5829 25.1481L45.582 25.1701L45.5811 25.1922L45.5802 25.2142L45.5793 25.2362L45.5784 25.2582L45.5774 25.2802L45.5765 25.3022L45.5756 25.3242L45.5747 25.3462L45.5738 25.3682L45.5728 25.3903L45.5719 25.4123L45.571 25.4343L45.5701 25.4563L45.5692 25.4783L45.5683 25.5003L45.5673 25.5223L45.5664 25.5443L45.5655 25.5664L45.5646 25.5884L45.5637 25.6104L45.5628 25.6324L45.5618 25.6544L45.5609 25.6764L45.56 25.6984L45.5591 25.7204L45.5582 25.7425L45.5573 25.7645L45.5563 25.7865L45.5554 25.8085L45.5545 25.8305L45.5536 25.8525L45.5527 25.8745L45.5518 25.8965L45.5508 25.9185L45.5499 25.9406L45.549 25.9626L45.5481 25.9846L45.5472 26.0066L45.5462 26.0286L45.5453 26.0506L45.5444 26.0726L45.5435 26.0946L45.5426 26.1167L45.5417 26.1387L45.5407 26.1607L45.5398 26.1827L45.5389 26.2047L45.538 26.2267L45.5371 26.2487L45.5362 26.2707L45.5352 26.2927L45.5343 26.3148L45.5334 26.3368L45.5325 26.3588L45.5316 26.3808L45.5307 26.4028L45.5297 26.4248L45.5288 26.4468L45.5279 26.4688L45.527 26.4909L45.5261 26.5129L45.5252 26.5349L45.5242 26.5569L45.5233 26.5789L45.5224 26.6009L45.5215 26.6229L45.5206 26.6449L45.5196 26.667L45.5187 26.689L45.5178 26.711L45.5169 26.733L45.516 26.755L45.5151 26.777L45.5141 26.799L45.5132 26.821L45.5123 26.843L45.5114 26.8651L45.5105 26.8871L45.5096 26.9091L45.5086 26.9311L45.5077 26.9531L45.5068 26.9751L45.5059 26.9971L45.505 27.0191L45.5041 27.0412L45.5031 27.0632L45.5022 27.0852L45.5013 27.1072L45.5004 27.1292L45.4995 27.1512L45.4986 27.1732L45.4976 27.1952L45.4967 27.2172L45.4958 27.2393L45.4949 27.2613L45.494 27.2833L45.4931 27.3053L45.4921 27.3273L45.4912 27.3493L45.4903 27.3713L45.4894 27.3933L45.4885 27.4154L45.4876 27.4374L45.4866 27.4594L45.4857 27.4814L45.4848 27.5034L45.4839 27.5254L45.483 27.5474L45.482 27.5694L45.4811 27.5914L45.4802 27.6135L45.4793 27.6355L45.4784 27.6575L45.4775 27.6795L45.4765 27.7015L45.4756 27.7235L45.4747 27.7455L45.4738 27.7675L45.4729 27.7896L45.472 27.8116L45.471 27.8336L45.4701 27.8556L45.4692 27.8776L45.4683 27.8996L45.4674 27.9216L45.4665 27.9436L45.4655 27.9657L45.4646 27.9877L45.4637 28.0097L45.4628 28.0317L45.4619 28.0537L45.461 28.0757L45.46 28.0977L45.4591 28.1197L45.4582 28.1417L45.4573 28.1638L45.4564 28.1858L45.4555 28.2078L45.4545 28.2298L45.4536 28.2518L45.4527 28.2738L45.4518 28.2958L45.4509 28.3178L45.4499 28.3399L45.449 28.3619L45.4481 28.3839L45.4472 28.4059L45.4463 28.4279L45.4454 28.4499L45.4444 28.4719L45.4435 28.4939L45.4426 28.5159L45.4417 28.538L45.4408 28.56L45.4399 28.582L45.4389 28.604L45.438 28.626L45.4371 28.648L45.4362 28.67L45.4353 28.692L45.4344 28.7141L45.4334 28.7361L45.4325 28.7581L45.4316 28.7801L45.4307 28.8021L45.4298 28.8241L45.4289 28.8461L45.4279 28.8681L45.427 28.8902L45.4261 28.9122L45.4252 28.9342L45.4243 28.9562L45.4234 28.9782L45.4224 29.0002L45.4215 29.0222L45.4206 29.0442L45.4197 29.0662L45.4188 29.0883L45.4178 29.1103L45.4169 29.1323L45.416 29.1543L45.4151 29.1763L45.4142 29.1983L45.4133 29.2203L45.4123 29.2423L45.4114 29.2644L45.4105 29.2864L45.4096 29.3084L45.4087 29.3304L45.4078 29.3524L45.4068 29.3744L45.4059 29.3964L45.405 29.4184L45.4041 29.4404L45.4032 29.4625L45.4023 29.4845L45.4013 29.5065L45.4004 29.5285L45.3995 29.5505L45.3986 29.5725L45.3977 29.5945L45.3968 29.6165L45.3958 29.6386L45.3949 29.6606L45.394 29.6826L45.3931 29.7046L45.3922 29.7266L45.3913 29.7486L45.3903 29.7706L45.3894 29.7926L45.3885 29.8147L45.3876 29.8367L45.3867 29.8587L45.3857 29.8807L45.3848 29.9027L45.3839 29.9247L45.383 29.9467L45.3821 29.9687L45.3812 29.9907L45.3802 30.0128L45.3793 30.0348L45.3784 30.0568L45.3775 30.0788L45.3766 30.1008L45.3757 30.1228L45.3747 30.1448L45.3738 30.1668L45.3729 30.1889L45.372 30.2109L45.3711 30.2329L45.3702 30.2549L45.3692 30.2769L45.3683 30.2989L45.3674 30.3209L45.3665 30.3429L45.3656 30.3649L45.3647 30.387L45.3637 30.409L45.3628 30.431L45.3619 30.453L45.361 30.475L45.3601 30.497L45.3591 30.519L45.3582 30.541L45.3573 30.5631L45.3564 30.5851L45.3555 30.6071L45.3546 30.6291L45.3536 30.6511L45.3527 30.6731L45.3518 30.6951L45.3509 30.7171L45.35 30.7392L45.3491 30.7612L45.3481 30.7832L45.3472 30.8052L45.3463 30.8272L45.3454 30.8492L45.3445 30.8712L45.3436 30.8932L45.3426 30.9152L45.3417 30.9373L45.3408 30.9593L45.3399 30.9813L45.339 31.0033L45.3381 31.0253L45.3371 31.0473L45.3362 31.0693L45.3353 31.0913L45.3344 31.1134L45.3335 31.1354L45.3326 31.1574L45.3316 31.1794L45.3307 31.2014L45.3298 31.2234L45.3289 31.2454L45.328 31.2674L45.327 31.2894L45.3261 31.3115L45.3252 31.3335L45.3243 31.3555L45.3234 31.3775L45.3225 31.3995L45.3215 31.4215L45.3206 31.4435L45.3197 31.4655L45.3188 31.4876L45.3179 31.5096L45.317 31.5316L45.316 31.5536L45.3151 31.5756L45.3142 31.5976L45.3133 31.6196L45.3124 31.6416L45.3115 31.6637L45.3105 31.6857L45.3096 31.7077L45.3087 31.7297L45.3078 31.7517L45.3069 31.7737L45.306 31.7957L45.305 31.8177L45.3041 31.8397L45.3032 31.8618L45.3023 31.8838L45.3014 31.9058L45.3004 31.9278L45.2995 31.9498L45.2986 31.9718L45.2977 31.9938L45.2968 32.0158L45.2959 32.0379L45.2949 32.0599L45.294 32.0819L45.2931 32.1039L45.2922 32.1259L45.2913 32.1479L45.2904 32.1699L45.2894 32.1919L45.2885 32.2139L45.2876 32.236L45.2867 32.258L45.2858 32.28L45.2849 32.302L45.2839 32.324L45.283 32.346L45.2821 32.368L45.2812 32.39L45.2803 32.4121L45.2794 32.4341L45.2784 32.4561L45.2775 32.4781L45.2766 32.5001L45.2757 32.5221L45.2748 32.5441L45.2739 32.5661L45.2729 32.5882L45.272 32.6102L45.2711 32.6322L45.2702 32.6542L45.2693 32.6762L45.2683 32.6982L45.2674 32.7202L45.2665 32.7422L45.2656 32.7642L45.2647 32.7863L45.2638 32.8083L45.2628 32.8303L45.2619 32.8523L45.261 32.8743L45.2601 32.8963L45.2592 32.9183L45.2583 32.9403L45.2573 32.9624L45.2564 32.9844L45.2555 33.0064L45.2546 33.0284L45.2537 33.0504L45.2528 33.0724L45.2518 33.0944L45.2509 33.1164L45.25 33.1384L45.2491 33.1605L45.2482 33.1825L45.2473 33.2045L45.2463 33.2265L45.2454 33.2485L45.2445 33.2705L45.2436 33.2925L45.2427 33.3145L45.2418 33.3366L45.2408 33.3586L45.2399 33.3806L45.239 33.4026L45.2381 33.4246L45.2372 33.4466L45.2362 33.4686L45.2353 33.4906L45.2344 33.5126L45.2335 33.5347L45.2326 33.5567L45.2317 33.5787L45.2307 33.6007L45.2298 33.6227L45.2289 33.6447L45.228 33.6667L45.2271 33.6887L45.2262 33.7108L45.2252 33.7328L45.2243 33.7548L45.2234 33.7768L45.2225 33.7988L45.2216 33.8208L45.2207 33.8428L45.2197 33.8648L45.2188 33.8869L45.2179 33.9089L45.217 33.9309L45.2161 33.9529L45.2152 33.9749L45.2142 33.9969L45.2133 34.0189L45.2124 34.0409L45.2115 34.0629L45.2106 34.085L45.2097 34.107L45.2087 34.129L45.2078 34.151L45.2069 34.173L45.206 34.195L45.2051 34.217L45.2041 34.239L45.2032 34.2611L45.2023 34.2831L45.2014 34.3051L45.2005 34.3271L45.1996 34.3491L45.1986 34.3711L45.1977 34.3931L45.1968 34.4151L45.1959 34.4371L45.195 34.4592L45.1941 34.4812L45.1931 34.5032L45.1922 34.5252L45.1913 34.5472L45.1904 34.5692L45.1895 34.5912L45.1886 34.6132L45.1876 34.6353L45.1867 34.6573L45.1858 34.6793L45.1849 34.7013L45.184 34.7233L45.1831 34.7453L45.1821 34.7673L45.1812 34.7893L45.1803 34.8114L45.1794 34.8334L45.1785 34.8554L45.1776 34.8774L45.1766 34.8994L45.1757 34.9214L45.1748 34.9434L45.1739 34.9654L45.173 34.9874L45.172 35.0095L45.1711 35.0315L45.1702 35.0535L45.1693 35.0755L45.1684 35.0975L45.1675 35.1195L45.1665 35.1415L45.1656 35.1635L45.1647 35.1856L45.1638 35.2076L45.1629 35.2296L45.162 35.2516L45.161 35.2736L45.1601 35.2956L45.1592 35.3176L45.1583 35.3396L45.1574 35.3616L45.1565 35.3837L45.1555 35.4057L45.1546 35.4277L45.1544 35.4345C44.9391 41.6065 39.6758 46.4735 33.8068 46.8369C28.6974 47.1282 24.8687 45.1169 21.9228 40.9927C20.5357 39.0507 20.2279 36.8015 20.0724 34.2349L20.0723 34.233C20.0342 33.6244 20.0151 33.0327 19.9955 32.4146L19.9943 32.3791C19.9752 31.7757 19.9553 31.1477 19.916 30.4799L19.8606 29.5387H18.9177C18.5994 29.5387 18.2953 29.521 17.959 29.5012L17.9478 29.5006C17.6219 29.4814 17.2645 29.4604 16.8828 29.4604Z" stroke="white" stroke-width="2"/>
<path d="M170.769 47.0972L170.769 47.0972L170.77 47.1081C170.809 47.821 170.887 48.5301 170.963 49.2172L170.97 49.2845C171.047 49.9922 171.122 50.6808 171.16 51.3826C171.158 51.6297 171.139 51.8505 171.109 52.1177C166.113 52.3399 161.151 52.5621 156.188 52.7843L156.179 52.7847C151.254 53.0053 146.328 53.2258 141.371 53.4464C141.279 52.3635 141.22 51.3515 141.162 50.3708C141.157 50.2913 141.153 50.212 141.148 50.1328C140.835 42.7033 140.522 35.2676 140.131 27.8311C140.067 26.2717 139.979 24.7245 139.892 23.184C139.761 20.8754 139.631 18.5818 139.584 16.2845C139.585 14.8722 139.733 13.4462 139.962 11.9976C141.045 5.81222 146.856 1.89863 151.726 1.16085L151.726 1.16087L151.732 1.1599C158.676 0.0634613 166.481 4.69637 168.534 12.1765L168.534 12.1766L168.538 12.1899C169.287 14.7758 169.417 17.3637 169.555 20.0852C169.568 20.3497 169.581 20.6154 169.595 20.8826C169.791 25.2641 169.987 29.6262 170.182 33.9881C170.378 38.3513 170.574 42.7145 170.769 47.0972Z" stroke="white" stroke-width="2"/>
<path d="M188.182 107.977C188.202 103.614 188.221 99.2526 188.221 94.8723C188.221 91.8842 188.218 89.0159 187.618 86.1622C185.93 78.6168 178.348 73.6127 171.324 74.3442L188.182 107.977ZM188.182 107.977L188.182 107.978M188.182 107.977L188.182 107.978M188.182 107.978C188.163 112.341 188.143 116.706 188.143 121.091M188.182 107.978L188.143 121.091M188.143 121.091C188.143 121.866 188.184 122.616 188.223 123.327L188.224 123.343C188.263 124.057 188.299 124.728 188.299 125.396C188.299 125.58 188.273 125.785 188.226 126.057C188.223 126.077 188.219 126.097 188.215 126.117C183.222 126.115 178.261 126.097 173.298 126.078L173.295 126.078C168.381 126.06 163.464 126.042 158.515 126.039C158.507 125.603 158.496 125.18 158.485 124.771L158.482 124.69C158.463 124.002 158.446 123.359 158.446 122.735V122.691V122.647V122.604V122.56V122.517V122.473V122.43V122.386V122.342V122.299V122.255V122.212V122.168V122.125V122.081V122.037V121.994V121.95V121.907V121.863V121.82V121.776V121.733V121.689V121.645V121.602V121.558V121.515V121.471V121.428V121.384V121.34V121.297V121.253V121.21V121.166V121.123V121.079V121.035V120.992V120.948V120.905V120.861V120.818V120.774V120.731V120.687V120.643V120.6V120.556V120.513V120.469V120.426V120.382V120.338V120.295V120.251V120.208V120.164V120.121V120.077V120.033V119.99V119.946V119.903V119.859V119.816V119.772V119.729V119.685V119.641V119.598V119.554V119.511V119.467V119.424V119.38V119.336V119.293V119.249V119.206V119.162V119.119V119.075V119.031V118.988V118.944V118.901V118.857V118.814V118.77V118.727V118.683V118.639V118.596V118.552V118.509V118.465V118.422V118.378V118.334V118.291V118.247V118.204V118.16V118.117V118.073V118.029V117.986V117.942V117.899V117.855V117.812V117.768V117.725V117.681V117.637V117.594V117.55V117.507V117.463V117.42V117.376V117.332V117.289V117.245V117.202V117.158V117.115V117.071V117.027V116.984V116.94V116.897V116.853V116.81V116.766V116.723V116.679V116.635V116.592V116.548V116.505V116.461V116.418V116.374V116.33V116.287V116.243V116.2V116.156V116.113V116.069V116.025V115.982V115.938V115.895V115.851V115.808V115.764V115.721V115.677V115.633V115.59V115.546V115.503V115.459V115.416V115.372V115.328V115.285V115.241V115.198V115.154V115.111V115.067V115.023V114.98V114.936V114.893V114.849V114.806V114.762V114.719V114.675V114.631V114.588V114.544V114.501V114.457V114.414V114.37V114.326V114.283V114.239V114.196V114.152V114.109V114.065V114.021V113.978V113.934V113.891V113.847V113.804V113.76V113.717V113.673V113.629V113.586V113.542V113.499V113.455V113.412V113.368V113.324V113.281V113.237V113.194V113.15V113.107V113.063V113.019V112.976V112.932V112.889V112.845V112.802V112.758V112.715V112.671V112.627V112.584V112.54V112.497V112.453V112.41V112.366V112.322V112.279V112.235V112.192V112.148V112.105V112.061V112.017V111.974V111.93V111.887V111.843V111.8V111.756V111.713V111.669V111.625V111.582V111.538V111.495V111.451V111.408V111.364V111.32V111.277V111.233V111.19V111.146V111.103V111.059V111.015V110.972V110.928V110.885V110.841V110.798V110.754V110.711V110.667V110.623V110.58V110.536V110.493V110.449V110.406V110.362V110.318V110.275V110.231V110.188V110.144V110.101V110.057V110.013V109.97V109.926V109.883V109.839V109.796V109.752V109.709V109.665V109.621V109.578V109.534V109.491V109.447V109.404V109.36V109.316V109.273V109.229V109.186V109.142V109.099V109.055V109.011V108.968V108.924V108.881V108.837V108.794V108.75V108.707V108.663V108.619V108.576V108.532V108.489V108.445V108.402V108.358V108.314V108.271V108.227V108.184V108.14V108.097V108.053V108.009V107.966V107.922V107.879V107.835V107.792V107.748V107.705V107.661V107.617V107.574V107.53V107.487V107.443V107.4V107.356V107.312V107.269V107.225V107.182V107.138V107.095V107.051V107.007V106.964V106.92V106.877V106.833V106.79V106.746V106.703V106.659V106.615V106.572V106.528V106.485V106.441V106.398V106.354V106.31V106.267V106.223V106.18V106.136V106.093V106.049V106.005V105.962V105.918V105.875V105.831V105.788V105.744V105.701V105.657V105.613V105.57V105.526V105.483V105.439V105.396V105.352V105.308V105.265V105.221V105.178V105.134V105.091V105.047V105.003V104.96V104.916V104.873V104.829V104.786V104.742V104.699V104.655V104.611V104.568V104.524V104.481V104.437V104.394V104.35V104.306V104.263V104.219V104.176V104.132V104.089V104.045V104.001V103.958V103.914V103.871V103.827V103.784V103.74V103.697V103.653V103.609V103.566V103.522V103.479V103.435V103.392V103.348V103.304V103.261V103.217V103.174V103.13V103.087V103.043V102.999V102.956V102.912V102.869V102.825V102.782V102.738V102.695V102.651V102.607V102.564V102.52V102.477V102.433V102.39V102.346V102.302V102.259V102.215V102.172V102.128V102.085V102.041V101.997V101.954V101.91V101.867V101.823V101.78V101.736V101.693V101.649V101.605V101.562V101.518V101.475V101.431V101.388V101.344V101.3V101.257V101.213V101.17V101.126V101.083V101.039V100.995V100.952V100.908V100.865V100.821V100.778V100.734V100.691V100.647V100.603V100.56V100.516V100.473V100.429C158.446 99.139 158.437 97.8476 158.428 96.5571C158.411 93.9884 158.394 91.4238 158.445 88.8826C158.521 87.4658 158.746 85.9645 159.047 84.608M188.143 121.091L159.047 84.608M159.047 84.608C160.492 78.4794 166.386 74.8603 171.324 74.3442L159.047 84.608Z" stroke="white" stroke-width="2"/>
<path d="M121.668 38.9493L121.891 38.169C121.905 38.1222 121.918 38.076 121.931 38.0302C122.058 37.5803 122.174 37.1683 122.452 36.6983C123.546 34.6675 124.631 32.6523 125.637 30.6396L125.641 30.6306L125.646 30.6217C128.017 26.1097 129.432 21.4405 129.133 16.4327L129.133 16.4276C128.909 12.3307 127.502 8.73089 124.791 5.87209C121.029 1.96414 116.362 0.438108 111.07 1.46689L121.668 38.9493ZM121.668 38.9493L122.386 39.3281M121.668 38.9493L122.386 39.3281M122.386 39.3281C125.099 40.7601 127.863 41.3583 130.746 41.6358C130.775 42.3704 130.775 43.0721 130.775 43.7522C130.736 45.2022 130.716 46.6317 130.697 48.0536L130.697 48.0565C130.677 49.4859 130.658 50.9076 130.619 52.3478L130.619 52.3613V52.3748C130.619 52.6129 130.588 52.8869 130.541 53.2215C130.531 53.2867 130.521 53.3557 130.51 53.4274C125.055 53.5036 120.217 52.8416 115.865 49.543L115.339 49.1438L114.765 49.4717C114.438 49.6588 114.122 49.8855 113.843 50.0876L113.785 50.1294C113.516 50.325 113.269 50.5036 113.009 50.6659L113.003 50.6697L112.997 50.6736C108.475 53.5913 103.927 53.6088 99.1242 51.1713C94.0061 48.5414 93.3049 40.9108 98.7201 37.4976C101.978 35.5757 105.286 34.8829 108.869 35.9579L108.891 35.9646L108.914 35.9702L109.853 36.205L110.403 36.3423L110.803 35.942C110.845 35.8999 110.893 35.8549 110.96 35.7936L110.966 35.7882C111.026 35.733 111.102 35.6627 111.175 35.5898C111.292 35.4722 111.527 35.2307 111.652 34.8982C111.854 34.4271 112.064 33.9515 112.277 33.4706C113.501 30.6994 114.802 27.7542 115.083 24.521L115.085 24.5089L115.085 24.4967L115.087 24.4733C115.105 24.1878 115.123 23.8881 115.11 23.6347C115.097 23.3809 115.048 22.983 114.77 22.6357C114.476 22.268 114.077 22.1402 113.784 22.0862C113.499 22.0336 113.166 22.0256 112.835 22.0256C108.855 22.0256 104.873 21.9475 100.88 21.8692L100.87 21.8691M122.386 39.3281L100.87 21.8691M100.87 21.8691H100.861M100.87 21.8691H100.861M100.861 21.8691C100.226 21.8691 99.5425 21.824 98.7817 21.7664C98.7602 21.6937 98.7466 21.639 98.7385 21.5972C98.7337 21.5724 98.7316 21.5562 98.7307 21.5471C98.7747 20.5956 98.7743 19.5929 98.774 18.6251C98.7738 17.9503 98.7735 17.2926 98.7884 16.681C98.8266 15.1044 98.9597 13.6003 99.3931 12.1178M100.861 21.8691L99.3931 12.1178M99.3931 12.1178C100.289 9.13198 101.71 6.77501 103.629 5.01896C105.548 3.26304 108.014 2.06326 111.07 1.46695L99.3931 12.1178Z" stroke="white" stroke-width="2"/>
<path d="M76.2572 31.3812L76.2666 31.3807L76.2761 31.38C79.4321 31.1624 82.5813 31.021 85.8239 30.8754C86.9272 30.8259 88.0413 30.7759 89.1702 30.7222C89.1846 30.8467 89.1991 30.9715 89.2137 31.0965C89.3434 32.2098 89.4751 33.3411 89.5303 34.4888L89.5326 34.5816C89.6101 37.602 89.6849 40.5161 89.6083 43.4263L89.6079 43.4394V43.4526C89.6079 46.223 88.2283 48.5692 86.2895 50.5832C80.2564 56.7609 71.759 56.6189 65.8689 51.9804L65.8665 51.9785C62.4911 49.3369 60.5938 45.7642 60.2998 41.4283L60.2996 41.4247C59.9348 36.3179 59.6398 31.2167 59.3444 26.1076C59.1966 23.5515 59.0487 20.9935 58.8919 18.4318C58.8726 18.0279 58.8461 17.6401 58.7753 17.3134C58.7024 16.9765 58.5548 16.5665 58.1871 16.2553C57.8282 15.9516 57.4067 15.8684 57.0796 15.8392C56.7551 15.8103 56.3716 15.8246 55.974 15.8435C53.9856 15.912 52.0495 15.9809 49.8023 16.1027C49.4797 12.4775 49.2094 8.99932 48.9429 5.42552C52.6599 4.96518 56.3867 4.73395 60.1593 4.52637C60.631 4.50042 61.1035 4.47483 61.5768 4.4492C64.8978 4.26936 68.2571 4.08744 71.6435 3.7623C71.7285 4.22121 71.8003 4.66596 71.8451 5.10734C71.9616 6.89504 72.0588 8.70307 72.1564 10.5178L72.1566 10.521C72.2543 12.3386 72.3524 14.1629 72.4701 15.9685L72.4705 15.9747C72.6274 18.1703 72.8037 20.3847 72.9797 22.5944L72.9799 22.5962C73.1558 24.8053 73.3314 27.0095 73.4874 29.1936C73.5059 29.5258 73.5279 29.8681 73.5919 30.1514C73.6611 30.4579 73.8175 30.8744 74.2424 31.1515C74.6095 31.3909 75.0201 31.4137 75.2728 31.4177C75.4937 31.4213 75.7676 31.4068 76.0551 31.3916C76.1219 31.3881 76.1894 31.3845 76.2572 31.3812Z" stroke="white" stroke-width="2"/>
<path d="M208.414 16.3934L208.414 16.3934L208.414 16.4033C208.453 17.6944 208.492 19.0051 208.531 20.3161C208.57 21.6205 208.609 22.9252 208.648 24.2107C208.647 24.278 208.632 24.376 208.578 24.602C208.566 24.6509 208.553 24.7054 208.538 24.765C208.538 24.7652 208.538 24.7653 208.538 24.7654C204.016 24.7727 199.607 24.8407 195.027 24.9113C194.809 24.9147 194.59 24.918 194.371 24.9214L193.379 24.9367L193.387 25.929C193.426 30.9847 193.445 36.002 193.465 40.9924L193.465 41.0792C193.483 45.8165 193.502 50.5297 193.537 55.2254C193.482 55.2322 193.424 55.2392 193.363 55.2461C192.893 55.2992 192.294 55.3471 191.601 55.3888C190.216 55.472 188.488 55.5279 186.732 55.5522C184.977 55.5765 183.204 55.5691 181.728 55.5268C180.767 55.4993 179.966 55.4575 179.385 55.4055C179.32 53.809 179.264 52.2188 179.264 50.5746C179.264 48.2708 179.284 45.9662 179.303 43.6567L179.303 43.6545C179.323 41.3494 179.342 39.0393 179.342 36.7285C179.382 33.7858 179.362 30.8448 179.342 27.9154L179.342 27.9104C179.323 24.9738 179.303 22.0489 179.342 19.1256L179.342 19.1256V19.1123C179.342 16.3935 179.504 13.9256 180.577 11.6355C183.02 6.53001 187.634 3.1233 193.382 3.05054L193.386 3.05047C197.694 2.9762 201.338 4.22816 204.41 7.22727L204.412 7.22897C206.965 9.70919 208.341 12.8253 208.414 16.3934Z" stroke="white" stroke-width="2"/>
<path d="M149.168 87.3793L149.167 87.3793L149.168 87.3891C149.207 88.6767 149.246 89.9838 149.285 91.2912L149.285 91.3019L149.285 91.3046C149.324 92.6082 149.363 93.912 149.402 95.1966C149.401 95.2543 149.389 95.3287 149.334 95.5493C149.327 95.5762 149.32 95.6044 149.313 95.6341C149.304 95.6708 149.294 95.7099 149.283 95.7513C144.765 95.7587 140.359 95.8266 135.782 95.8971C135.564 95.9005 135.345 95.9039 135.125 95.9073L134.133 95.9225L134.141 96.9148C134.179 101.971 134.199 106.988 134.218 111.978L134.219 112.065C134.237 116.802 134.256 121.516 134.291 126.211C134.236 126.218 134.178 126.225 134.116 126.232C133.647 126.285 133.048 126.333 132.355 126.375C130.97 126.458 129.242 126.514 127.486 126.538C125.731 126.562 123.958 126.555 122.482 126.513C121.521 126.485 120.72 126.443 120.139 126.391C120.074 124.795 120.018 123.205 120.018 121.56C120.018 119.257 120.038 116.952 120.057 114.643L120.057 114.64C120.077 112.335 120.096 110.025 120.096 107.714C120.135 104.772 120.116 101.831 120.096 98.9012L120.096 98.8962C120.077 95.9596 120.057 93.0347 120.096 90.1115L120.096 90.1115V90.0981C120.096 87.3794 120.258 84.9114 121.331 82.6213C123.774 77.5159 128.388 74.1091 134.136 74.0364L134.14 74.0363C138.448 73.962 142.092 75.214 145.164 78.2131L145.166 78.2148C147.719 80.695 149.095 83.8111 149.168 87.3793Z" stroke="white" stroke-width="2"/>
</svg>
