<svg width="325" height="549" viewBox="0 0 325 549" fill="none" xmlns="http://www.w3.org/2000/svg">
<path d="M320.89 2.50176C322.351 5.90082 323.186 8.5001 323.708 11.9991C324.229 15.5982 325.39 527.606 324.868 531.305C324.451 534.904 322.468 537.803 321.008 541.302C316.625 541.702 312.66 542.802 308.174 543.102C303.792 543.401 299.409 543.701 294.923 543.901C290.54 544.101 286.054 544.101 281.671 544.201C277.289 544.301 272.803 543.901 268.42 543.901C264.038 543.901 47.5251 549 43.1428 549C38.6562 549 34.2739 548.7 29.8916 548.6C25.405 548.5 21.0227 547.6 16.6404 547.5C12.1538 547.4 7.66721 547.4 3.28494 547.201C0.989456 546.201 1.51115 541.602 0.885112 536.603C0.572092 533.204 -0.366961 529.605 0.154739 525.906C0.676439 521.408 2.22897 10.8994 4.10709 8.89995C8.48937 8.60003 12.0369 5.30094 16.5235 5.101C20.9058 4.90105 25.3924 6.00075 29.8791 5.8008C34.2613 5.60086 38.6436 3.40145 43.1302 3.30148C259.539 -0.397448 264.025 0.902199 268.512 0.902199C272.894 0.802226 277.381 2.60173 281.867 2.50176C286.354 2.50176 290.736 2.90165 295.118 2.90165C299.605 2.90165 303.987 -0.0975276 308.474 0.0024449C312.856 0.0024449 316.508 2.40178 320.89 2.50176Z" fill="#8BD2B8"/>
</svg>
