<svg width="325" height="491" viewBox="0 0 325 491" fill="none" xmlns="http://www.w3.org/2000/svg">
<path d="M320.89 2.44692C322.351 5.77147 323.186 8.31378 323.707 11.7361C324.229 15.2562 325.39 470.075 324.868 473.693C324.451 477.213 322.468 480.049 321.008 483.471C316.625 483.862 312.66 484.938 308.174 485.231C303.792 485.524 299.409 485.818 294.923 486.013C290.54 486.209 286.054 486.209 281.671 486.307C277.289 486.404 272.803 486.013 268.42 486.013C264.038 486.013 47.5251 491 43.1428 491C38.6562 491 34.2739 490.707 29.8916 490.609C25.405 490.511 21.0227 489.631 16.6404 489.533C12.1538 489.435 7.66721 489.436 3.28494 489.24C0.989456 488.262 1.51115 483.764 0.885112 478.875C0.572092 475.551 -0.366961 472.03 0.154739 468.413C0.676439 464.012 2.22885 10.6605 4.10697 8.70486C8.48925 8.41152 12.0368 5.18474 16.5234 4.98918C20.9057 4.79362 25.3923 5.86921 29.8789 5.67365C34.2612 5.47808 38.6435 3.32689 43.1301 3.22911C259.538 -0.388736 264.025 0.882422 268.512 0.882422C272.894 0.784641 277.381 2.5447 281.867 2.44692C286.354 2.44692 290.736 2.83804 295.118 2.83804C299.605 2.83804 303.987 -0.0953897 308.474 0.00239131C312.856 0.00239131 316.508 2.34914 320.89 2.44692Z" fill="#FA7D3C"/>
</svg>
