<svg width="187" height="246" viewBox="0 0 187 246" fill="none" xmlns="http://www.w3.org/2000/svg">
<path d="M105.552 47.6193L104.23 46.2196C94.6563 36.0166 76.7827 19.2329 74.8103 17.3643L74.2813 16.8616L63.1092 22.0602L58.5302 15.2246L58.2654 15.1163C53.9191 13.362 45.0642 19.1508 44.0692 19.8173C38.5638 23.5053 35.5989 26.5388 35.2961 28.8841C35.1729 29.7761 35.4919 30.3241 35.624 30.5213L39.5646 36.4039C34.9069 41.2856 24.5847 52.0566 23.4342 53.2082C23.1466 53.4961 22.9141 53.7946 22.7369 54.1038L22.6482 54.2584C22.471 54.5676 22.3489 54.8875 22.2488 55.2402C22.1933 55.3725 22.1931 55.5156 22.1708 55.6257C22.059 56.3195 22.1793 56.8578 22.2451 57.0995C22.7451 61.0019 27.621 90.4441 31.9408 116.402L32.0823 117.403C36.9039 146.405 41.867 176.408 42.7052 182.321C44.1309 192.555 46.9753 205.552 47.7958 209.287L47.8287 209.408L48.0048 209.671L48.0489 209.736C48.0709 209.769 48.0929 209.802 48.1589 209.901C48.203 209.966 48.3242 210.076 48.4122 210.207C48.5555 210.349 48.7428 210.557 49.0072 210.808L49.1064 210.885C49.5141 211.278 50.0982 211.792 50.8587 212.425C52.9639 214.205 73.1968 227.122 75.8889 227.985L75.9993 228.007C76.1648 228.038 77.5003 228.239 79.9313 227.134C81.7326 226.308 116.042 211.896 130.704 205.739L131.555 205.36C131.677 205.326 131.865 205.248 132.097 205.092C132.329 204.937 132.605 204.704 132.849 204.35L133.279 204.348L133.004 204.151C133.27 203.687 133.514 203.048 133.549 202.167C133.606 201.034 130.097 183.817 122.641 147.438C118.573 127.595 114.353 107.093 113.097 100.412C110.432 85.8189 103.116 51.2985 103.039 50.969L102.973 50.7274L100.936 48.1881L105.552 47.6193ZM102.002 215.682C87.803 221.671 80.1235 224.911 79.1511 225.324L90.3256 207.935L93.3643 206.662L126.421 205.371C120.93 207.716 111.217 211.795 102.002 215.682ZM34.2449 118.049L33.3069 112.345C29.8602 91.4199 26.533 71.4621 25.0283 62.0433C28.6215 70.4916 34.9694 87.1403 41.3652 112.898C51.3862 153.177 49.912 189.063 48.6685 203.56C47.4763 197.979 45.7383 189.288 44.7151 182.023C43.8989 176.142 39.0122 146.612 34.2449 118.049ZM75.7746 20.9556C81.163 26.0588 93.5707 37.8388 101.437 46.1385L99.3717 46.4269L77.6452 29.5579L75.7746 20.9556ZM50.789 38.169C46.8218 40.0648 43.2542 40.8358 42.7033 40.3003C42.7033 40.3003 42.5932 40.136 42.7819 39.6287C45.8946 39.9717 51.0003 37.4085 52.0282 36.8628L52.0613 36.8406C53.8188 35.8061 55.4328 34.7726 56.8589 33.8173C62.9282 29.7516 64.633 27.4193 65.0879 26.3052L66.5023 25.691C63.8774 29.8775 58.3373 34.3028 50.789 38.169ZM40.6874 38.0799L41.0176 38.5729C40.3629 40.2493 40.7694 41.2149 41.2763 41.6847C43.2817 43.6741 49.7017 40.8494 51.6356 39.9348C54.1001 38.6648 56.4103 37.3077 58.4997 35.908C63.2423 32.731 66.6052 29.4309 68.544 26.0849C69.3528 24.6385 69.5644 23.735 69.1901 23.1763L68.7278 22.4862L64.6394 24.2727L64.2431 23.6812L73.393 19.4087L75.7016 29.8125L26.3493 52.9694C29.8563 49.3823 38.176 40.7145 40.6874 38.0799ZM89.7333 206.047L53.6495 208.127C77.2635 197.689 102.104 186.857 103.418 186.596C103.451 186.574 103.506 186.584 103.54 186.562L92.4294 204.907L89.7333 206.047ZM79.7457 105.137C73.4797 75.1978 75.9794 45.4331 77.3375 34.3347C87.451 56.031 96.1892 91.8844 96.2878 92.2469C107.624 137.215 106.058 174.972 105.465 184.129C103.532 179.521 87.0397 139.911 79.7457 105.137ZM75.6087 32.1124C74.4764 40.679 70.9669 73.0247 77.8238 105.568C84.9975 139.803 100.709 177.889 103.488 184.549C103.367 184.583 103.212 184.639 103.036 184.662C101.059 185.082 60.7037 202.878 50.2835 207.478C51.3412 197.58 54.5677 157.711 43.3094 112.358C34.9752 78.757 26.7095 60.5363 24.5215 56.0507L75.6087 32.1124ZM87.8411 208.171L76.3344 226.068C73.4221 224.877 54.4569 212.919 52.1533 210.986C51.8557 210.757 51.5912 210.506 51.3708 210.32L87.8411 208.171ZM105.847 186.635C106.023 186.755 106.244 186.941 106.464 187.126C108.349 188.72 124.335 199.674 129.649 203.304L94.9802 204.627L105.847 186.635ZM131.584 202.103C131.573 202.158 131.595 202.191 131.561 202.213C129.676 200.905 124.638 197.472 119.632 194.017C112.918 189.373 108.552 186.299 107.748 185.6C107.627 185.491 107.505 185.381 107.384 185.272C107.837 179.493 110.236 139.465 98.2208 91.7613C98.1222 91.3989 89.2088 54.8535 78.9521 33.0151L98.3856 48.1825L101.128 51.6304C101.62 54.0146 108.521 86.6233 111.12 100.832C112.343 107.535 116.563 128.037 120.652 147.913C125.551 171.436 131.576 200.728 131.584 202.103ZM51.0933 35.1085C48.7834 36.3226 44.5957 38.0328 42.7859 37.6263L38.1189 30.6593C40.2612 30.4144 44.028 29.3671 49.7988 25.5014C54.8399 22.1244 57.0969 19.7555 58.1267 18.2087L63.1901 25.7673C62.7801 26.518 60.743 29.3586 51.0933 35.1085ZM48.698 23.8582C42.4961 28.0127 38.8957 28.663 37.3941 28.7166C37.7715 27.702 39.2997 25.3928 45.17 21.4605C47.3589 19.9942 53.4602 16.4784 56.6723 16.7548C56.1514 17.7703 54.4025 20.0369 48.698 23.8582Z" fill="white"/>
</svg>
