<svg width="36" height="36" viewBox="0 0 36 36" fill="none" xmlns="http://www.w3.org/2000/svg">
<path d="M35.2567 20.2196C34.8267 22.5823 34.1271 24.8207 33.0168 26.8725C32.3109 28.1782 31.4444 29.4031 30.3791 30.5285C29.7629 31.1751 29.1276 31.772 28.4537 32.3067C27.0803 33.4072 25.5913 34.2591 23.9933 34.8684C23.6659 34.9927 23.3386 35.1047 23.0049 35.2104V24.0124H26.5476L27.0803 20.0268H23.0049V17.49C23.0049 16.3398 23.3386 15.5563 25.0394 15.5563H27.1958V11.9999C26.8236 11.9501 25.5336 11.8444 24.0318 11.8444C20.8998 11.8444 18.7563 13.6973 18.7563 17.0983V20.0331H15.2264V24.0186H18.7563V35.9689C18.5316 35.9813 18.307 35.9938 18.076 35.9938C18.0695 35.9938 18.0695 35.9938 18.0631 35.9938C17.8064 36 17.5497 36 17.293 36C8.35284 35.8756 1.08778 28.9057 0.580768 20.0579C0.20853 13.5791 2.40987 8.08895 7.55702 3.93555C12.6657 -0.186754 18.4867 -0.789866 23.268 0.832942C32.2788 4.35213 36.752 11.9688 35.2567 20.2196Z" fill="white"/>
</svg>
