<svg width="230" height="54" viewBox="0 0 230 54" fill="none" xmlns="http://www.w3.org/2000/svg">
<path d="M199.646 4.5873L199.809 4.59887L199.81 4.57749C201.266 4.49456 202.069 4.5664 202.489 4.65316L202.413 5.21145L203.586 5.184C210.035 5.03309 215.634 6.84301 219.603 11.1716L219.656 11.2301L219.718 11.2795C229.877 19.3337 231.924 34.2208 221.927 44.2698L221.866 44.3318L221.816 44.4037C218.652 48.9469 213.733 51.1694 207.562 51.3221L207.473 51.3243L207.386 51.3421C206.28 51.5686 205.668 51.7419 205.32 51.8876C205.291 51.8996 205.258 51.9136 205.223 51.93C204.847 51.8806 204.188 51.815 203.012 51.7438L202.922 51.7383L202.831 51.7492C202.564 51.7817 201.676 51.8117 200.153 51.8312C198.662 51.8503 196.627 51.8592 194.123 51.8591C189.116 51.8588 182.248 51.8221 174.138 51.7577C157.918 51.6288 136.738 51.3891 115.56 51.1084C94.3833 50.8276 73.211 50.5058 57.0077 50.2127C48.9058 50.0661 42.0479 49.9268 37.0534 49.8034C32.0145 49.6789 28.956 49.5716 28.3701 49.497L28.2749 49.4849L28.1792 49.4911C25.9194 49.6377 24.9332 49.5048 24.0814 49.2368C23.6771 49.1097 23.2919 48.949 22.7827 48.7366C22.7172 48.7093 22.6497 48.6811 22.5797 48.652C21.9772 48.4015 21.2494 48.1066 20.2688 47.7842L20.1822 47.7557L20.0918 47.7434C13.6617 46.8654 8.86805 43.2892 5.99414 38.2439L5.8975 38.0743L5.74413 37.9534C3.59797 36.2624 2.76543 33.625 3.01392 31.0195L3.03217 30.8282L2.97821 30.6438C0.263909 21.3667 4.10729 12.0654 12.1119 7.13525L12.2011 7.08032L12.277 7.0081C12.6105 6.69058 12.9164 6.39619 13.2003 6.12303C14.6164 4.76011 15.4836 3.92551 16.4995 3.38126C17.6396 2.77041 19.031 2.50984 21.8216 2.60355L21.9138 2.60665L22.005 2.59282C22.2892 2.54973 23.1967 2.50675 24.7555 2.47508C26.2772 2.44417 28.3448 2.42456 30.8832 2.41511C35.9588 2.39621 42.9013 2.41797 51.0912 2.47031C67.4703 2.575 88.8287 2.80198 110.199 3.07023C150.454 3.57551 190.678 4.22659 197.811 4.48111L197.807 4.73662L198.907 4.6425C199.169 4.62001 199.415 4.60178 199.646 4.5873ZM205.692 52.0096C205.698 52.011 205.702 52.0119 205.702 52.012C205.703 52.012 205.701 52.0117 205.697 52.0107L205.692 52.0096Z" stroke="white" stroke-width="2"/>
<path d="M58.0273 15.2368C58.0921 15.6476 58.1245 15.9637 58.1568 16.2797C58.2864 18.4287 58.4159 20.546 58.5454 22.695C58.6749 24.7176 58.7721 26.7085 58.9016 28.7311C58.934 29.2367 59.0959 29.6476 59.6787 29.8372C60.1321 29.9952 60.553 30.248 61.0064 30.4692C61.4273 30.6589 61.6864 30.9433 61.6864 31.4489C61.7188 32.871 61.8159 34.2615 61.8807 35.6837C61.9131 36.0629 61.913 36.4421 61.913 36.9162C60.4235 36.3789 59.193 35.5572 57.8006 34.9884C57.6711 35.1464 57.5416 35.3044 57.3797 35.4308C55.5987 37.1374 53.5587 37.8326 51.0654 37.2006C48.1511 36.4737 46.1758 33.8823 46.0463 30.9433C45.9167 27.2774 45.6901 23.5799 45.4634 19.914C45.3987 18.7447 45.3015 17.607 45.2367 16.4377C45.2044 15.9637 45.3015 15.8689 45.6901 15.8689C46.5968 15.8373 47.471 15.8057 48.3777 15.7741C49.0901 15.7425 49.8349 15.7109 50.5473 15.6476C52.5873 15.5212 54.5949 15.3948 56.6025 15.3C57.0559 15.2684 57.5416 15.2684 58.0273 15.2368Z" fill="white"/>
<path d="M67.6124 30.3744C67.6447 28.2571 67.6771 26.2345 67.7095 24.1171C67.3209 24.0855 66.9647 24.0223 66.6085 24.0223C65.0866 23.9591 63.5323 23.9275 62.0104 23.8643C61.9133 23.8643 61.8161 23.8327 61.6542 23.8011C61.5571 22.4422 61.8161 21.1781 62.399 19.9772C63.5647 17.6386 65.6047 16.3429 68.0981 15.6793C69.1667 15.3948 70.3 15.2052 71.3686 15.2368C73.9915 15.3 76.42 16.1217 78.2658 18.0179C79.6905 19.4716 80.5324 21.2729 80.6296 23.3271C80.6944 24.5596 80.662 25.7921 80.6296 27.0246C80.5648 30.0268 80.4677 33.0291 80.4029 36.0313C80.4029 36.3157 80.3705 36.5685 80.3705 36.9478C77.942 36.9162 75.5781 36.853 73.1495 36.8214C73.1495 36.4421 73.1172 36.1893 73.1172 35.9049C73.1495 34.4828 73.2143 33.0291 73.2467 31.6069C73.2467 31.5437 73.2467 31.4489 73.2467 31.3857C73.2467 30.7221 73.1819 30.6589 72.5019 30.6273C71.1743 30.5641 69.879 30.5009 68.5514 30.4693C68.26 30.406 68.0009 30.406 67.6124 30.3744Z" fill="white"/>
<path d="M137.879 30.3742C138.462 30.4374 138.818 30.5006 139.207 30.5322C140.826 30.5954 141.798 31.7331 141.733 33.092C141.7 34.0085 141.798 34.9566 141.83 35.873C141.83 36.0943 141.83 36.3155 141.83 36.5999C139.952 36.8527 138.106 36.6947 136.163 36.8211C136.131 36.3471 136.098 35.9046 136.066 35.4622C135.159 35.4622 134.253 35.4622 133.346 35.4622C133.314 35.9362 133.281 36.3787 133.249 36.8527C131.209 36.9791 129.201 36.9475 127.161 36.9475C127.096 34.5773 127.032 32.2704 126.935 29.9318C128.716 29.7105 130.399 29.9002 132.116 29.8054C132.213 29.995 132.31 30.1846 132.407 30.3426C132.796 30.469 134.058 28.32 134.22 27.3088C133.961 27.3404 133.702 27.372 133.476 27.4036C131.63 27.688 130.076 27.0875 128.942 25.6654C126.935 23.1688 126.902 19.9454 128.845 17.4488C131.468 14.0673 136.39 13.8145 139.434 17.0379C140.697 18.3652 141.312 20.0402 141.215 21.9047C141.118 24.5909 140.081 26.9927 138.592 29.2365C138.398 29.5525 138.203 29.9002 137.879 30.3742Z" fill="white"/>
<path d="M186.386 30.2479C188.944 30.0583 191.308 29.8687 193.737 29.6791C193.672 29.205 193.348 29.047 193.089 28.8574C191.826 27.8461 190.531 26.8664 189.301 25.8552C188.459 25.1599 187.811 24.3066 187.358 23.327C186.807 22.1577 186.742 20.9252 187.066 19.6927C187.714 17.1961 189.398 15.6791 191.923 15.1419C195.226 14.415 198.173 16.0584 199.533 18.7762C199.986 19.6927 200.245 20.6723 200.116 21.7784C198.043 21.9048 195.939 22.0629 193.672 22.2209C193.931 22.5053 194.061 22.7265 194.255 22.8529C195.421 23.8326 196.619 24.8123 197.784 25.8236C198.659 26.5504 199.501 27.2773 200.116 28.2253C201.249 29.9319 201.282 31.7016 200.278 33.4398C198.788 36.0944 196.392 37.3269 193.348 37.1373C190.369 36.9792 188.232 35.3991 187.099 32.6813C186.742 31.9544 186.645 31.1644 186.386 30.2479Z" fill="white"/>
<path d="M93.5493 15.9634C94.2941 15.9317 94.9741 15.8369 95.6541 15.8369C98.3094 15.8053 100.997 15.8053 103.652 15.7737C105.692 15.7421 107.732 15.6789 109.837 15.6157C110.096 17.2907 109.967 18.934 110.031 20.6405C108.833 20.6721 107.732 20.7353 106.567 20.7669C106.534 21.1146 106.502 21.3358 106.502 21.5886C106.534 22.8843 106.631 24.1484 106.631 25.4441C106.631 27.6247 106.858 29.8053 106.631 32.0174C106.34 34.5456 104.332 36.6946 101.612 37.2003C99.896 37.5163 98.277 37.2319 96.7874 36.3154C95.395 35.4621 94.5207 34.2296 94.0674 32.6811C93.7436 31.5434 93.7112 30.4057 93.7112 29.2364C93.6788 26.8346 93.6141 24.4328 93.5817 22.0626C93.5493 20.0717 93.5493 18.0491 93.5493 15.9634Z" fill="white"/>
<path d="M118.839 20.0401C120.037 20.1349 121.17 20.1981 122.336 20.2929C123.47 20.3877 124.603 20.4509 125.833 20.5457C125.833 22.2839 125.607 24.022 125.51 25.8234C124.279 25.7918 123.146 25.7602 121.98 25.697C120.847 25.6338 119.713 25.5705 118.548 25.5073C118.321 26.8663 118.256 28.1304 118.224 29.5209C120.426 29.7105 122.563 29.8685 124.7 30.0581C124.959 32.9971 123.923 35.2725 121.3 36.5998C117.447 38.5908 112.784 36.5366 111.715 32.4283C111.553 31.8278 111.521 31.1958 111.553 30.5637C111.618 28.7624 111.715 26.9295 111.845 25.1281C112.007 22.1575 112.201 19.1868 112.363 16.2162C112.363 15.9634 112.395 15.7106 112.428 15.3945C113.205 15.4261 113.917 15.4261 114.629 15.4577C115.471 15.4893 116.281 15.5841 117.09 15.6474C117.511 15.679 117.965 15.6474 118.418 15.6474C119.033 15.679 119.098 15.7422 119.066 16.311C119.001 17.3539 118.936 18.3652 118.871 19.4081C118.839 19.5661 118.839 19.7557 118.839 20.0401Z" fill="white"/>
<path d="M177.222 20.0401C178.42 20.1349 179.554 20.1981 180.72 20.2929C181.853 20.3877 182.986 20.4509 184.217 20.5457C184.217 22.2839 183.99 24.022 183.893 25.8234C182.662 25.7918 181.529 25.7602 180.363 25.697C179.23 25.6338 178.097 25.5705 176.931 25.5073C176.704 26.8663 176.639 28.1304 176.607 29.5209C178.809 29.7105 180.946 29.8685 183.083 30.0581C183.342 32.9971 182.306 35.2725 179.683 36.5998C175.83 38.5908 171.167 36.5366 170.098 32.4283C169.937 31.8278 169.904 31.1958 169.937 30.5637C170.001 28.7624 170.098 26.9295 170.228 25.1281C170.39 22.1575 170.584 19.1868 170.746 16.2162C170.746 15.9634 170.778 15.7106 170.811 15.3945C171.588 15.4261 172.3 15.4261 173.013 15.4577C173.855 15.4893 174.664 15.5841 175.474 15.6474C175.895 15.679 176.348 15.6474 176.801 15.6474C177.417 15.679 177.481 15.7422 177.449 16.311C177.384 17.3539 177.319 18.3652 177.255 19.4081C177.19 19.5661 177.222 19.7557 177.222 20.0401Z" fill="white"/>
<path d="M158.765 31.6698C161.874 31.8278 164.788 31.4486 167.8 31.6698C167.8 33.3763 167.8 35.0829 167.8 36.8842C167.605 36.9158 167.314 37.0106 167.022 37.0106C165.015 37.0422 162.975 37.0422 160.967 37.0738C158.312 37.1054 155.657 37.1686 153.001 37.2319C152.71 37.2319 152.451 37.2319 152.095 37.2319C152.062 36.3154 151.998 35.4305 151.965 34.5772C151.933 33.9768 151.9 33.3763 151.933 32.7759C151.933 32.4599 151.998 32.1122 152.16 31.8594C154.2 28.3831 156.24 24.9069 158.28 21.4306C158.312 21.3674 158.312 21.3042 158.344 21.1146C157.405 20.7669 156.499 20.4509 155.495 20.1033C156.207 18.3967 156.92 16.7534 157.632 15.0469C160.579 15.9317 163.493 16.8166 166.472 17.7331C163.881 22.3155 161.356 26.9294 158.765 31.6698Z" fill="white"/>
<path d="M37.012 36.8846C37.012 36.2526 36.9796 35.4309 36.9473 34.4196C36.9473 33.7244 36.9473 32.8395 36.9473 31.8598C36.9473 31.6702 36.8825 31.3542 36.8177 30.9434C36.073 31.133 35.4253 31.2278 34.8425 31.1962C33.4825 31.4174 31.5072 30.4061 30.8596 28.6048C30.4063 27.9095 30.2444 27.1194 30.3415 26.2662C30.1796 23.8328 30.1148 21.3678 30.1796 19.0924C30.0177 18.1443 29.9529 17.2911 30.0825 16.659C29.9529 16.2482 29.9853 16.027 30.1148 15.9321C32.1872 15.6793 34.3244 15.6161 36.5587 15.7741C36.5911 15.8057 36.6558 15.9954 36.6558 16.3746C36.6882 17.6387 36.6882 19.0608 36.7206 20.6409C36.7206 20.8621 36.7854 21.2098 36.8177 21.747C38.9225 21.589 40.9301 21.5574 42.9378 21.589C43.0997 22.0314 43.1644 22.5371 43.0349 23.1059C43.2292 26.361 43.2616 29.6476 43.1968 32.8395C43.3587 34.072 43.3911 35.1465 43.294 36.063C43.4235 36.5054 43.4235 36.7582 43.294 36.8846C41.2216 37.1058 39.1492 37.1058 37.012 36.8846Z" fill="white"/>
</svg>
