<svg width="249" height="33" viewBox="0 0 249 33" fill="none" xmlns="http://www.w3.org/2000/svg">
<g clip-path="url(#clip0)">
<path d="M40.8399 0.69043C40.9342 1.28876 40.9814 1.74901 41.0285 2.20926C41.2172 5.33897 41.4058 8.42265 41.5944 11.5524C41.7831 14.498 41.9245 17.3975 42.1132 20.3432C42.1603 21.0796 42.3961 21.6779 43.245 21.954C43.9052 22.1842 44.5183 22.5524 45.1785 22.8745C45.7916 23.1507 46.1689 23.5649 46.1689 24.3013C46.216 26.3724 46.3575 28.3975 46.4518 30.4687C46.499 31.021 46.499 31.5733 46.499 32.2637C44.3297 31.4812 42.5376 30.2846 40.5098 29.4561C40.3211 29.6862 40.1325 29.9164 39.8967 30.1005C37.303 32.5858 34.3319 33.5984 30.7007 32.6779C26.4564 31.6193 23.5797 27.8452 23.391 23.5649C23.2024 18.226 22.8723 12.8411 22.5422 7.50215C22.4478 5.79922 22.3064 4.14231 22.212 2.43938C22.1649 1.74901 22.3064 1.61093 22.8723 1.61093C24.1927 1.56491 25.466 1.51888 26.7865 1.47286C27.824 1.42683 28.9086 1.38081 29.9461 1.28876C32.9172 1.10466 35.841 0.920555 38.7649 0.78248C39.4251 0.736455 40.1325 0.736455 40.8399 0.69043Z" fill="white"/>
<path d="M54.7989 22.7366C54.846 19.6529 54.8932 16.7073 54.9403 13.6236C54.3744 13.5776 53.8557 13.4855 53.3369 13.4855C51.1205 13.3935 48.8568 13.3475 46.6403 13.2554C46.4989 13.2554 46.3574 13.2094 46.1216 13.1634C45.9801 11.1843 46.3574 9.34327 47.2062 7.59431C48.904 4.18846 51.875 2.30143 55.5062 1.3349C57.0625 0.920673 58.7131 0.644522 60.2693 0.690547C64.0892 0.782598 67.6261 1.97925 70.3142 4.74076C72.3892 6.85791 73.6153 9.48134 73.7568 12.473C73.8511 14.268 73.804 16.0629 73.7568 17.8579C73.6625 22.2303 73.521 26.6027 73.4267 30.9751C73.4267 31.3893 73.3795 31.7575 73.3795 32.3098C69.8426 32.2638 66.4 32.1717 62.8631 32.1257C62.8631 31.5734 62.8159 31.2052 62.8159 30.791C62.8631 28.7198 62.9574 26.6027 63.0045 24.5316C63.0045 24.4395 63.0045 24.3014 63.0045 24.2094C63.0045 23.2428 62.9102 23.1508 61.9199 23.1048C59.9864 23.0127 58.1 22.9207 56.1665 22.8747C55.742 22.7826 55.3648 22.7826 54.7989 22.7366Z" fill="white"/>
<path d="M157.134 22.7363C157.983 22.8284 158.502 22.9204 159.068 22.9665C161.426 23.0585 162.84 24.7154 162.746 26.6945C162.699 28.0292 162.84 29.41 162.888 30.7447C162.888 31.0669 162.888 31.389 162.888 31.8033C160.152 32.1715 157.464 31.9413 154.635 32.1255C154.588 31.4351 154.54 30.7907 154.493 30.1464C153.173 30.1464 151.852 30.1464 150.532 30.1464C150.485 30.8367 150.438 31.4811 150.39 32.1715C147.419 32.3556 144.495 32.3095 141.524 32.3095C141.43 28.8577 141.336 25.4978 141.194 22.092C143.788 21.7698 146.24 22.0459 148.74 21.9079C148.881 22.184 149.023 22.4602 149.164 22.6903C149.73 22.8744 151.569 19.7447 151.805 18.2719C151.428 18.3179 151.051 18.3639 150.72 18.41C148.032 18.8242 145.769 17.9497 144.118 15.8786C141.194 12.2426 141.147 7.54804 143.977 3.91206C147.797 -1.01263 154.965 -1.38083 159.398 3.31373C161.237 5.24679 162.133 7.68612 161.991 10.4016C161.85 14.3137 160.341 17.8116 158.172 21.0794C157.889 21.5397 157.606 22.0459 157.134 22.7363Z" fill="white"/>
<path d="M227.778 22.5525C231.504 22.2764 234.946 22.0002 238.483 21.7241C238.389 21.0337 237.918 20.8035 237.54 20.5274C235.701 19.0546 233.815 17.6278 232.023 16.155C230.796 15.1425 229.853 13.8998 229.193 12.473C228.391 10.7701 228.297 8.9751 228.769 7.18012C229.712 3.54413 232.164 1.33493 235.843 0.552501C240.653 -0.506077 244.944 1.88723 246.925 5.84539C247.585 7.18012 247.962 8.6069 247.774 10.2178C244.756 10.4019 241.69 10.632 238.389 10.8621C238.766 11.2764 238.955 11.5985 239.238 11.7826C240.936 13.2094 242.681 14.6362 244.378 16.109C245.652 17.1676 246.878 18.2261 247.774 19.6069C249.424 22.0922 249.471 24.6697 248.01 27.201C245.84 31.0671 242.35 32.8621 237.918 32.586C233.579 32.3559 230.466 30.0546 228.816 26.0964C228.297 25.0379 228.156 23.8872 227.778 22.5525Z" fill="white"/>
<path d="M92.5732 1.74895C93.6579 1.70293 94.6482 1.56485 95.6386 1.56485C99.5056 1.51883 103.42 1.51883 107.287 1.4728C110.258 1.42678 113.229 1.33473 116.294 1.24268C116.672 3.68201 116.483 6.07531 116.577 8.56067C114.832 8.60669 113.229 8.69874 111.531 8.74477C111.484 9.25104 111.437 9.57322 111.437 9.94142C111.484 11.8284 111.626 13.6695 111.626 15.5565C111.626 18.7322 111.956 21.9079 111.626 25.1297C111.201 28.8117 108.277 31.9414 104.316 32.6778C101.816 33.1381 99.4585 32.7238 97.2892 31.3891C95.2613 30.1464 93.988 28.3515 93.3278 26.0962C92.8562 24.4393 92.809 22.7824 92.809 21.0795C92.7619 17.5816 92.6676 14.0837 92.6204 10.6318C92.5732 7.73221 92.5732 4.78661 92.5732 1.74895Z" fill="white"/>
<path d="M129.405 7.6861C131.149 7.82418 132.8 7.91623 134.498 8.0543C136.148 8.19238 137.799 8.28443 139.591 8.4225C139.591 10.9539 139.261 13.4853 139.119 16.1087C137.327 16.0627 135.677 16.0166 133.979 15.9246C132.328 15.8325 130.678 15.7405 128.98 15.6484C128.65 17.6275 128.556 19.4685 128.509 21.4936C131.715 21.7698 134.828 21.9999 137.94 22.2761C138.318 26.5564 136.809 29.8702 132.989 31.8033C127.377 34.7028 120.586 31.7112 119.03 25.7279C118.794 24.8535 118.747 23.933 118.794 23.0125C118.888 20.389 119.03 17.7196 119.218 15.0961C119.454 10.7698 119.737 6.44342 119.973 2.11706C119.973 1.74886 120.02 1.38066 120.067 0.92041C121.199 0.966435 122.236 0.966435 123.274 1.01246C124.5 1.05849 125.679 1.19656 126.858 1.28861C127.471 1.33464 128.131 1.28861 128.792 1.28861C129.688 1.33464 129.782 1.42669 129.735 2.25514C129.64 3.77397 129.546 5.24677 129.452 6.7656C129.405 6.99572 129.405 7.27187 129.405 7.6861Z" fill="white"/>
<path d="M214.432 7.6861C216.177 7.82418 217.828 7.91623 219.526 8.0543C221.176 8.19238 222.827 8.28443 224.619 8.4225C224.619 10.9539 224.289 13.4853 224.147 16.1087C222.355 16.0627 220.705 16.0166 219.007 15.9246C217.356 15.8325 215.706 15.7405 214.008 15.6484C213.678 17.6275 213.584 19.4685 213.536 21.4936C216.743 21.7698 219.856 21.9999 222.968 22.2761C223.345 26.5564 221.836 29.8702 218.016 31.8033C212.405 34.7028 205.614 31.7112 204.057 25.7279C203.822 24.8535 203.774 23.933 203.822 23.0125C203.916 20.389 204.057 17.7196 204.246 15.0961C204.482 10.7698 204.765 6.44342 205.001 2.11706C205.001 1.74886 205.048 1.38066 205.095 0.92041C206.227 0.966435 207.264 0.966435 208.302 1.01246C209.528 1.05849 210.707 1.19656 211.886 1.28861C212.499 1.33464 213.159 1.28861 213.819 1.28861C214.715 1.33464 214.81 1.42669 214.763 2.25514C214.668 3.77397 214.574 5.24677 214.48 6.7656C214.385 6.99572 214.432 7.27187 214.432 7.6861Z" fill="white"/>
<path d="M187.552 24.6233C192.079 24.8534 196.323 24.3011 200.709 24.6233C200.709 27.1086 200.709 29.594 200.709 32.2174C200.426 32.2634 200.002 32.4015 199.577 32.4015C196.653 32.4475 193.682 32.4475 190.758 32.4936C186.891 32.5396 183.024 32.6316 179.157 32.7237C178.733 32.7237 178.356 32.7237 177.837 32.7237C177.79 31.389 177.695 30.1003 177.648 28.8576C177.601 27.9831 177.554 27.1086 177.601 26.2341C177.601 25.7739 177.695 25.2676 177.931 24.8994C180.902 19.8367 183.873 14.7739 186.844 9.71113C186.891 9.61908 186.891 9.52703 186.939 9.25088C185.571 8.74461 184.251 8.28435 182.789 7.77808C183.826 5.29272 184.864 2.89942 185.901 0.414062C190.193 1.70277 194.437 2.99147 198.776 4.3262C195.003 10.9998 191.324 17.7195 187.552 24.6233Z" fill="white"/>
<path d="M10.2336 32.2174C10.2336 31.2969 10.1865 30.1002 10.1393 28.6274C10.1393 27.6149 10.1393 26.3262 10.1393 24.8994C10.1393 24.6233 10.045 24.163 9.95066 23.5647C8.866 23.8408 7.92282 23.9789 7.07396 23.9329C5.09327 24.2551 2.21657 22.7823 1.27339 20.1588C0.613161 19.1463 0.377366 17.9956 0.518843 16.753C0.283047 13.209 0.188729 9.61907 0.283047 6.30527C0.047252 4.92451 -0.0470662 3.68184 0.14157 2.76133C-0.0470662 2.16301 9.29013e-05 1.84083 0.188729 1.70276C3.20691 1.33456 6.31941 1.24251 9.57339 1.47263C9.62055 1.51866 9.71486 1.79481 9.71486 2.34711C9.76202 4.18811 9.76202 6.25924 9.80918 8.5605C9.80918 8.88267 9.9035 9.38895 9.95066 10.1714C13.016 9.94125 15.9399 9.89522 18.8637 9.94125C19.0995 10.5856 19.1938 11.322 19.0052 12.1505C19.2882 16.891 19.3353 21.6777 19.241 26.3262C19.4768 28.1212 19.524 29.686 19.3825 31.0207C19.5711 31.6651 19.5711 32.0333 19.3825 32.2174C16.3643 32.5396 13.3461 32.5396 10.2336 32.2174Z" fill="white"/>
</g>
<defs>
<clipPath id="clip0">
<rect width="249" height="33" fill="white"/>
</clipPath>
</defs>
</svg>
