<svg width="359" height="4" viewBox="0 0 359 4" fill="none" xmlns="http://www.w3.org/2000/svg">
<path d="M354.721 2.89109C358.245 3.2824 359.42 3.47805 355.846 3.86935C352.958 3.86935 349.483 3.15196 346.595 3.15196C343.707 3.15196 340.771 3.93457 337.883 3.93457C334.995 3.93457 332.058 3.6737 329.17 3.6737C326.282 3.6737 323.345 3.99979 320.458 3.99979C317.57 3.99979 314.633 2.89109 311.745 2.89109C308.808 2.89109 305.871 3.60848 302.983 3.60848C300.095 3.60848 297.159 2.95631 294.271 2.95631C291.383 2.95631 288.446 3.02153 285.558 3.02153C282.67 3.02153 279.733 3.34761 276.846 3.34761C273.958 3.34761 271.021 3.60848 268.133 3.60848C265.245 3.60848 262.308 2.95631 259.42 2.95631C256.532 2.95631 253.596 2.43457 250.708 2.43457C247.82 2.43457 244.883 2.63022 241.995 2.63022C239.107 2.63022 236.17 3.08674 233.283 3.08674C230.395 3.08674 227.458 2.43457 224.57 2.43457C221.682 2.43457 218.745 2.76066 215.857 2.76066C212.969 2.76066 210.033 3.80414 207.145 3.80414C204.257 3.80414 201.32 3.15196 198.432 3.15196C195.544 3.15196 192.607 2.89109 189.72 2.89109C186.832 2.89109 183.895 3.2824 181.007 3.2824C178.119 3.2824 175.182 2.89109 172.294 2.89109C169.406 2.89109 166.47 3.41283 163.582 3.34761C160.694 3.34761 157.757 3.08674 154.869 3.08674C151.981 3.08674 149.044 3.21718 146.156 3.21718C143.269 3.21718 140.332 3.54327 137.444 3.54327C134.556 3.54327 131.619 3.2824 128.731 3.2824C125.843 3.2824 122.907 2.89109 120.019 2.89109C117.131 2.89109 114.194 3.2824 111.306 3.2824C108.418 3.2824 105.481 3.15196 102.593 3.15196C99.7056 3.15196 96.7687 3.93457 93.8808 3.93457C90.993 3.93457 88.0561 3.34761 85.1682 3.34761C82.2803 3.34761 79.3435 2.69544 76.4556 2.69544C73.5677 2.69544 70.6309 3.15196 67.743 3.15196C64.8551 3.15196 61.9183 2.30414 59.0304 2.30414C56.1425 2.30414 53.2057 2.82587 50.3178 2.82587C47.4299 2.82587 44.4931 2.56501 41.6052 2.56501C38.7173 2.56501 35.7805 2.10848 32.8926 2.10848C30.0047 2.10848 27.0679 2.23892 24.18 2.23892C21.2921 2.23892 18.3553 3.54327 15.4674 3.54327C12.5795 3.54327 9.69162 2.76066 6.80373 2.76066C-1.4194 2.56501 -2.39834 2.10848 5.28637 1.84761C8.2232 1.84761 11.1111 1.06501 14.0479 1.06501C16.9848 1.06501 19.8726 1.26066 22.8095 1.26066C25.7463 1.26066 28.6342 1.06501 31.571 1.06501C34.5079 1.06501 37.3957 2.10848 40.3326 2.10848C43.2694 2.10848 46.1573 2.49979 49.0941 2.49979C52.031 2.49979 54.9189 1.84761 57.8557 1.84761C60.7925 1.84761 63.6804 1.39109 66.6172 1.39109C69.5541 1.39109 72.442 1.26066 75.3788 1.26066C78.3156 1.26066 81.2035 2.30414 84.1403 2.30414C87.0772 2.30414 89.9651 2.23892 92.9019 2.23892C95.8387 2.23892 98.7266 1.32587 101.663 1.32587C104.6 1.32587 107.488 1.91283 110.425 1.91283C113.362 1.91283 116.25 2.56501 119.187 2.56501C122.123 2.56501 125.011 0.93457 127.948 0.93457C130.885 0.93457 133.773 1.97805 136.71 1.97805C139.646 1.97805 142.534 1.7824 145.471 1.7824C148.408 1.7824 151.296 1.58674 154.233 1.58674C157.17 1.58674 160.057 1.7824 162.994 1.7824C165.931 1.7824 168.819 2.63022 171.756 2.63022C174.693 2.63022 177.581 2.69544 180.517 2.69544C183.454 2.69544 186.342 1.19544 189.279 1.19544C192.216 1.19544 195.104 1.26066 198.041 1.26066C200.977 1.26066 203.865 2.1737 206.802 2.1737C209.739 2.1737 212.627 1.52153 215.564 1.52153C218.5 1.52153 221.388 2.23892 224.325 2.23892C227.262 2.23892 230.15 1.19544 233.087 1.19544C236.024 1.19544 238.911 1.52153 241.848 1.52153C244.785 1.52153 247.673 1.26066 250.61 1.26066C253.547 1.26066 256.435 1.7824 259.371 1.7824C262.308 1.7824 265.196 2.23892 268.133 2.23892C271.07 2.23892 273.958 2.30414 276.895 2.30414C279.831 2.30414 282.719 2.43457 285.656 2.43457C288.593 2.43457 291.481 2.36935 294.418 2.36935C297.354 2.36935 300.242 2.49979 303.179 2.49979C306.116 2.49979 309.004 2.36935 311.941 2.36935C314.878 2.36935 317.814 0.999788 320.702 0.999788C323.639 0.999788 326.527 2.56501 329.464 2.56501C332.401 2.56501 335.289 1.71718 338.225 1.71718C341.162 1.71718 344.05 2.76066 346.987 2.76066C349.532 2.82587 351.784 2.89109 354.721 2.89109Z" fill="white"/>
</svg>
