<svg width="37" height="36" viewBox="0 0 37 36" fill="none" xmlns="http://www.w3.org/2000/svg">
<path d="M18.0459 15.2463C16.3304 15.2463 14.9441 16.6326 14.9441 18.3481C14.9441 20.0636 16.3304 21.45 18.0459 21.45C19.7614 21.45 21.1477 20.0636 21.1477 18.3481C21.1477 16.6326 19.755 15.2463 18.0459 15.2463ZM18.0459 15.2463C16.3304 15.2463 14.9441 16.6326 14.9441 18.3481C14.9441 20.0636 16.3304 21.45 18.0459 21.45C19.7614 21.45 21.1477 20.0636 21.1477 18.3481C21.1477 16.6326 19.755 15.2463 18.0459 15.2463ZM25.6168 14.588C25.5725 13.6828 25.4269 13.189 25.294 12.8598C25.1421 12.4547 24.9079 12.0875 24.5977 11.79C24.3002 11.4798 23.933 11.2456 23.5279 11.0937C23.1987 10.9671 22.7049 10.8152 21.7997 10.7708C20.8185 10.7265 20.521 10.7139 18.0395 10.7139C15.5581 10.7139 15.2606 10.7265 14.2794 10.7708C13.3742 10.8152 12.8804 10.9607 12.5512 11.0937C12.1461 11.2393 11.7789 11.4798 11.4814 11.79C11.1712 12.0875 10.937 12.4547 10.7851 12.8598C10.6585 13.189 10.5066 13.6828 10.4622 14.588C10.4179 15.5692 10.4053 15.8604 10.4053 18.3481C10.4053 20.8359 10.4116 21.1271 10.4622 22.1083C10.5066 23.0135 10.6522 23.5073 10.7851 23.8365C10.937 24.2416 11.1712 24.6088 11.4814 24.9063C11.7789 25.2165 12.1461 25.4507 12.5512 25.6026C12.8804 25.7292 13.3742 25.8811 14.2794 25.9255C15.2606 25.9698 15.5518 25.9824 18.0395 25.9824C20.5273 25.9824 20.8185 25.9698 21.7997 25.9255C22.7049 25.8811 23.1987 25.7292 23.5279 25.6026C24.3381 25.2861 24.9838 24.6467 25.294 23.8365C25.4206 23.5073 25.5725 23.0135 25.6168 22.1083C25.6612 21.1271 25.6675 20.8296 25.6675 18.3481C25.6675 15.8667 25.6612 15.5692 25.6168 14.588ZM18.0459 23.1275C15.4062 23.1275 13.2665 20.9879 13.2665 18.3481C13.2665 15.7084 15.4062 13.5688 18.0459 13.5688C20.6856 13.5688 22.8252 15.7084 22.8252 18.3481C22.8252 20.9879 20.6856 23.1275 18.0459 23.1275ZM23.0088 14.4994C22.3948 14.4994 21.8947 13.9993 21.8947 13.3852C21.8947 12.7712 22.3948 12.2711 23.0088 12.2711C23.6228 12.2711 24.1229 12.7712 24.1229 13.3852C24.1229 13.9993 23.6292 14.4994 23.0088 14.4994ZM18.0459 15.2463C16.3304 15.2463 14.9441 16.6326 14.9441 18.3481C14.9441 20.0636 16.3304 21.45 18.0459 21.45C19.7614 21.45 21.1477 20.0636 21.1477 18.3481C21.1477 16.6326 19.755 15.2463 18.0459 15.2463Z" fill="white"/>
<path d="M18.0462 21.4497C19.7592 21.4497 21.148 20.061 21.148 18.3479C21.148 16.6348 19.7592 15.2461 18.0462 15.2461C16.3331 15.2461 14.9443 16.6348 14.9443 18.3479C14.9443 20.061 16.3331 21.4497 18.0462 21.4497Z" fill="white"/>
<path d="M36.6127 16.0059C36.2772 11.024 33.4475 5.98516 27.6047 3.00995C21.7176 0.00941241 15.7229 0.21198 9.8104 3.14921C1.72668 7.15626 -1.97018 16.5377 1.37852 24.691C3.32823 29.4261 6.76555 32.6798 11.5765 34.3573C15.3557 35.674 19.2298 35.5601 23.1166 34.6485C31.4219 32.6925 36.8152 25.5836 36.6127 16.0059ZM27.2945 22.1843C27.2502 23.1718 27.092 23.8491 26.8641 24.4442C26.383 25.6975 25.3955 26.6787 24.1421 27.1662C23.547 27.3941 22.876 27.5523 21.8822 27.5966C20.8883 27.6409 20.5718 27.6536 18.046 27.6536C15.5203 27.6536 15.2038 27.6409 14.2099 27.5966C13.2161 27.5523 12.5451 27.3941 11.95 27.1662C11.3297 26.9319 10.7663 26.5648 10.3042 26.09C9.82939 25.6279 9.46224 25.0645 9.22802 24.4442C9.00013 23.8491 8.84187 23.1781 8.79756 22.1843C8.75325 21.1904 8.74059 20.8739 8.74059 18.3481C8.74059 15.8224 8.75325 15.5059 8.79756 14.512C8.84187 13.5245 9.00013 12.8472 9.22802 12.2521C9.46224 11.6317 9.82939 11.0684 10.3042 10.6062C10.7663 10.1315 11.3297 9.76432 11.95 9.5301C12.5451 9.30221 13.2161 9.14396 14.2099 9.09965C15.2038 9.05533 15.5203 9.04267 18.046 9.04267C20.5718 9.04267 20.8883 9.05533 21.8822 9.09965C22.8697 9.14396 23.547 9.30221 24.1421 9.5301C24.7624 9.76432 25.3258 10.1315 25.7879 10.6062C26.2627 11.0684 26.6299 11.6317 26.8578 12.2521C27.0856 12.8472 27.2439 13.5182 27.2882 14.512C27.3325 15.5059 27.3452 15.8224 27.3452 18.3481C27.3515 20.8739 27.3388 21.1904 27.2945 22.1843Z" fill="white"/>
</svg>
