<svg width="40" height="50" viewBox="0 0 40 50" fill="none" xmlns="http://www.w3.org/2000/svg">
<path d="M22.1128 43.134C22.2175 42.9244 22.1966 42.9663 22.1547 43.0292C22.1337 43.0502 22.1337 43.0921 22.1128 43.134C22.1128 43.113 22.1128 43.134 22.1128 43.134Z" fill="white"/>
<path d="M39.4985 18.3822C39.3729 17.7744 38.9958 17.2295 38.3255 17.2295C37.9275 17.2295 37.5086 17.3972 37.1315 17.5019C34.8064 18.2355 32.5022 19.1367 30.219 19.996C30.1561 20.0169 30.1142 20.0379 30.0514 20.0588C29.5487 20.2475 29.1297 20.7714 29.3183 21.3582C29.4858 21.8612 30.0514 22.3013 30.617 22.0918C32.6279 21.3163 34.6598 20.5618 36.7126 19.8702C37.0058 19.7654 37.2991 19.6816 37.5714 19.5768C37.6133 20.1427 37.6133 20.7295 37.5924 21.2954C37.5714 22.1756 37.5086 23.0558 37.4038 23.9361C37.3829 24.0199 37.3829 24.1247 37.3619 24.2085C37.3619 24.1457 37.3829 24.1247 37.3619 24.2295C37.3619 24.2924 37.341 24.3552 37.341 24.4181C37.2991 24.6906 37.2572 24.963 37.2153 25.2145C37.1106 25.7804 37.0058 26.3463 36.8802 26.9121C36.6078 28.1067 36.2727 29.3013 35.8747 30.454C35.77 30.7475 35.6652 31.0409 35.5605 31.3133C35.4976 31.46 35.4348 31.6277 35.372 31.7744C35.351 31.8582 35.3091 31.9211 35.2882 32.0049C35.2882 32.0259 35.2253 32.1726 35.2044 32.2145C34.953 32.8014 34.6807 33.3882 34.3875 33.975C34.157 34.4361 33.8847 34.8762 33.6124 35.2954C33.5496 35.3792 33.4867 35.463 33.4239 35.5469C33.382 35.5888 33.3611 35.6307 33.3192 35.6936C33.2982 35.7145 33.1935 35.9031 33.2773 35.7564C33.361 35.6097 33.2563 35.7984 33.2354 35.8193C33.2144 35.8612 33.1725 35.8822 33.1516 35.9241C33.0678 36.0289 32.984 36.1337 32.9002 36.2385C32.607 36.5738 32.3137 36.8882 31.9785 37.1816C31.8319 37.3073 31.6853 37.4331 31.5387 37.5588C31.4968 37.5798 31.4758 37.6217 31.4339 37.6427C31.3501 37.7055 31.2663 37.7684 31.1826 37.8313C30.5541 38.2924 29.8629 38.6696 29.1507 38.984C29.1297 38.984 29.1297 39.0049 29.1088 39.0049C29.1088 39.0049 29.1088 39.0049 29.0878 39.0049C29.0041 39.0259 28.9412 39.0678 28.8574 39.0888C28.6898 39.1516 28.5013 39.2145 28.3337 39.2774C27.9986 39.3822 27.6634 39.487 27.3283 39.5708C27.0141 39.6546 26.6789 39.7175 26.3438 39.7804C26.1971 39.8013 26.0296 39.8433 25.8829 39.8642C25.8829 39.8642 25.862 39.8642 25.8411 39.8642C25.862 39.8642 25.862 39.8642 25.8829 39.8642C25.7992 39.8642 25.7154 39.8852 25.6316 39.8852C25.087 39.9481 24.5633 39.99 24.0187 39.99C23.9139 39.99 23.8092 39.99 23.7044 39.99C24.3538 38.8582 25.066 37.7475 25.8411 36.6786C26.0296 36.4271 26.2181 36.1546 26.4066 35.9031C26.4485 35.8403 26.5113 35.7774 26.5532 35.7145C26.5742 35.6936 26.5951 35.6516 26.637 35.6097C26.7208 35.484 26.8256 35.3792 26.9093 35.2534C27.3492 34.7085 27.7891 34.1636 28.25 33.6397C29.2764 32.466 30.3656 31.3343 31.4968 30.2445C31.8948 29.8672 31.9157 29.1337 31.4968 28.7564C31.0778 28.3582 30.4285 28.3582 30.0095 28.7564C26.5951 32.0678 23.474 35.7984 21.2746 40.0319C21.2118 40.1367 21.1699 40.2415 21.128 40.3463C21.107 40.3882 21.0651 40.4511 21.0442 40.493C19.9968 42.5678 19.138 44.7894 18.7819 47.0948C18.6981 47.5558 18.6353 48.0379 18.6353 48.499C18.6353 49.0439 19.117 49.5678 19.6826 49.5469C20.2482 49.5259 20.73 49.0858 20.73 48.499C20.73 48.4151 20.73 48.3523 20.7509 48.2684C20.7509 48.1846 20.7719 48.0798 20.7719 47.996C20.7719 47.954 20.7928 47.8912 20.7928 47.8493C20.9185 46.99 21.128 46.1517 21.3793 45.3343C21.5679 44.7475 21.7564 44.1606 21.9868 43.5738C22.0496 43.4271 22.0915 43.3014 22.1544 43.1546C22.1544 43.1546 22.1544 43.1546 22.1544 43.1756C22.1544 43.1756 22.1544 43.1546 22.1753 43.1337C22.1753 43.1127 22.1963 43.0918 22.1963 43.0918C22.1963 43.0918 22.1963 43.0708 22.2172 43.0708C22.2172 43.0708 22.2172 43.0499 22.2382 43.0499C22.28 42.9451 22.3219 42.8612 22.3638 42.7564C22.4686 42.5259 22.5733 42.2954 22.678 42.0858C24.1234 42.2115 25.6106 42.0858 27.0141 41.8343C30.4703 41.1846 33.5705 39.2564 35.5186 36.3014C36.2308 35.2325 36.7545 34.0588 37.2362 32.8852C37.7599 31.6487 38.1998 30.3912 38.5559 29.0918C39.1634 26.9121 39.5404 24.6487 39.6871 22.3642C39.708 21.0229 39.7499 19.6606 39.4985 18.3822ZM38.3465 19.3253C38.4093 19.3043 38.4721 19.3043 38.514 19.2834C38.4512 19.3043 38.3883 19.3253 38.3465 19.3253Z" fill="white"/>
<path d="M25.7994 39.8438C25.5062 39.8852 25.6947 39.8645 25.7994 39.8438V39.8438Z" fill="white"/>
<path d="M3.28127 17.9837C3.30222 17.9837 3.30222 17.9837 3.32317 18.0045C3.15559 17.9214 3.13464 17.9214 3.17653 17.9422C3.19748 17.9422 3.21842 17.963 3.23937 17.963C3.26032 17.963 3.28127 17.963 3.28127 17.9837Z" fill="white"/>
<path d="M3.95156 32.3197C3.95156 32.2987 3.93061 32.2568 3.90967 32.2358C3.90967 32.2358 3.90967 32.2568 3.93061 32.2568C3.95156 32.2778 3.95156 32.2987 3.95156 32.3197Z" fill="white"/>
<path d="M13.0845 32.1312C12.854 31.9006 12.6027 31.6911 12.3513 31.4815C11.9324 31.1252 11.283 31.0414 10.8641 31.4815C10.508 31.8797 10.4242 32.5923 10.8641 32.9695C11.5344 33.5354 12.1628 34.1641 12.7493 34.7929C13.0216 35.0863 13.2939 35.4006 13.5662 35.6941C13.6919 35.8408 13.8386 36.0084 13.9642 36.1761C14.0271 36.2599 14.0899 36.3438 14.1528 36.4276C14.1737 36.4695 14.1947 36.4905 14.2365 36.5324C14.0271 36.3018 14.2156 36.5114 14.2575 36.5743C14.7812 37.2659 15.263 38.0204 15.6609 38.7959C15.7028 38.9006 15.7657 39.0054 15.8076 39.1102C15.8285 39.1731 15.8495 39.215 15.8704 39.2779C15.9542 39.4875 16.017 39.6971 16.0799 39.9066C16.1008 40.0114 16.1427 40.1372 16.1637 40.242C16.1218 40.242 16.0799 40.242 16.0589 40.242C15.9123 40.242 15.7657 40.2629 15.5981 40.2629C15.0535 40.2629 14.4879 40.242 13.9433 40.1791C13.8805 40.1791 13.8176 40.1581 13.7338 40.1581C13.7129 40.1581 13.6919 40.1581 13.65 40.1372C13.4615 40.1162 13.273 40.0743 13.0845 40.0324C12.6655 39.9485 12.2466 39.8438 11.8276 39.718C11.3877 39.5923 10.885 39.4665 10.487 39.236C10.508 39.2569 10.7803 39.3617 10.6336 39.2988C10.5917 39.2779 10.5708 39.2779 10.5289 39.2569C10.4661 39.236 10.4032 39.1941 10.3404 39.1731C10.2147 39.1102 10.11 39.0683 9.98428 39.0054C9.75387 38.8797 9.52345 38.7749 9.29303 38.6282C8.81125 38.3557 8.37136 38.0414 7.91052 37.706C7.91052 37.706 7.91052 37.706 7.88957 37.706C7.82673 37.6641 7.76389 37.6012 7.722 37.5593C7.61726 37.4545 7.49158 37.3707 7.38684 37.2659C7.15643 37.0563 6.926 36.8468 6.71653 36.6162C6.48612 36.3857 6.27665 36.1342 6.04623 35.8827C5.94149 35.7569 5.8577 35.6521 5.75297 35.5264C5.73202 35.5054 5.73202 35.4845 5.71108 35.4845C5.64823 35.4216 5.60634 35.3378 5.54349 35.2749C5.10361 34.6671 4.72656 34.0384 4.3914 33.3887C4.20288 33.0324 4.0353 32.6761 3.88867 32.3198C3.88867 32.3198 3.88867 32.3198 3.88867 32.2988C3.90962 32.3198 3.88867 32.3198 3.86773 32.236C3.86773 32.215 3.84678 32.1941 3.84678 32.1731C3.84678 32.1941 3.86773 32.1941 3.86773 32.215C3.82583 32.1312 3.78394 32.0264 3.76299 31.9426C3.6792 31.733 3.61637 31.5444 3.53258 31.3348C3.21837 30.4545 2.967 29.5533 2.75753 28.6312C2.6528 28.1282 2.54806 27.6252 2.46427 27.1222C2.42238 26.8707 2.40143 26.5982 2.33859 26.3468C2.33859 26.2839 2.31764 26.221 2.31764 26.1581C2.29669 26.0114 2.27575 25.8438 2.2548 25.6971C2.12912 24.4815 2.06628 23.2869 2.04533 22.0713C2.04533 21.4006 2.04533 20.73 2.06628 20.0593C2.06628 19.9545 2.06627 19.8497 2.08722 19.745C2.31764 19.8497 2.52711 19.9336 2.75753 20.0384C4.47519 20.7509 6.23475 21.3587 7.99431 21.9665C8.11999 22.0084 8.24567 22.0503 8.3923 22.0923C8.91598 22.2809 9.56534 21.8827 9.69102 21.3587C9.8167 20.7719 9.52345 20.2689 8.95788 20.0593C7.99431 19.724 7.0098 19.3887 6.04623 19.0324C5.31308 18.7599 4.57993 18.4875 3.84678 18.215C3.70015 18.1521 3.55352 18.1102 3.40689 18.0474C3.365 18.0264 3.3231 18.0054 3.28121 18.0054C3.30216 18.0054 3.30216 18.0054 3.32311 18.0264C3.30216 18.0054 3.28121 18.0054 3.26026 18.0054C3.23931 18.0054 3.23932 18.0054 3.21837 17.9845C3.19742 17.9845 3.15553 17.9635 3.15553 17.9426C2.71564 17.7539 2.2967 17.5653 1.85681 17.3977C1.62639 17.3138 1.41692 17.2509 1.16555 17.23C0.537137 17.209 0.0134577 17.8587 0.0972462 18.4456C-0.133172 22.4276 -0.00748807 26.5144 1.06081 30.3707C1.79396 33.0533 3.0089 35.6102 4.85224 37.6851C6.17191 39.1731 7.82673 40.3677 9.67008 41.1432C11.1364 41.7719 12.6446 42.1491 14.2365 42.2959C14.8859 42.3587 15.5562 42.3797 16.2056 42.3168C16.6874 42.2749 17.1482 42.1911 17.5881 42.0234C18.028 41.8557 18.3631 41.4994 18.3631 41.0174C18.3631 39.1312 17.4205 37.3288 16.3522 35.8408C15.3886 34.4994 14.2784 33.2629 13.0845 32.1312ZM2.15007 17.9006C2.12912 17.8378 2.08722 17.7539 2.08722 17.733C2.08722 17.7539 2.10817 17.8378 2.15007 17.9006ZM5.8577 35.6102L5.83676 35.5893C5.87865 35.6521 5.94149 35.715 5.8577 35.6102Z" fill="white"/>
<path d="M13.8386 27.6459C14.6137 28.7986 15.5354 29.8675 16.5618 30.7896C17.1064 31.2926 17.7139 31.7327 18.3004 32.1729C18.7612 32.5082 19.2849 32.9064 19.8924 32.7387C20.3951 32.592 20.5836 32.1938 20.7093 31.7327C20.814 31.3555 20.9188 30.9782 21.0025 30.601C21.3796 29.0082 21.6519 27.3735 21.8195 25.7387C22.1127 22.9932 22.1546 20.2267 21.9871 17.4812C21.9033 15.9094 21.7357 14.3166 21.5053 12.7657C21.4843 12.7028 21.4843 12.619 21.4634 12.5561C21.3796 12.0112 20.6674 11.6549 20.1647 11.8226C19.5781 12.0112 19.3268 12.5351 19.4315 13.122C19.4734 13.3735 19.5153 13.625 19.5362 13.8764C19.5362 13.9393 19.5572 14.0232 19.5572 14.086C19.5782 14.2747 19.5991 14.4423 19.62 14.6309C19.6619 15.0501 19.7038 15.4693 19.7457 15.8884C19.9552 18.3196 20.018 20.7717 19.8924 23.2028C19.8505 23.9363 19.8086 24.6699 19.7248 25.4034C19.6829 25.7597 19.641 26.116 19.5991 26.4723C19.5991 26.4932 19.5781 26.598 19.5781 26.6399C19.5781 26.7028 19.5572 26.7657 19.5572 26.8285C19.5363 27.0381 19.4944 27.2477 19.4525 27.4573C19.3268 28.2327 19.1801 28.9872 19.0126 29.7417C18.9916 29.8675 18.9497 29.9932 18.9288 30.119C18.9078 30.098 18.8869 30.0771 18.866 30.0771C18.845 30.0561 18.8241 30.0351 18.7822 30.0142C18.6355 29.9094 18.5098 29.8046 18.3632 29.6788C17.9652 29.3435 17.5672 28.9872 17.2111 28.61C17.0017 28.3794 16.7712 28.1489 16.5618 27.9184C16.457 27.7926 16.3523 27.6669 16.2476 27.5411C16.1847 27.4782 16.1428 27.4154 16.1009 27.3525C16.08 27.3315 16.08 27.3106 16.059 27.2896C15.5982 26.6818 15.1793 26.0321 14.8232 25.3615C14.6346 25.0052 14.4461 24.6279 14.2785 24.2507C14.2576 24.2088 14.2576 24.1878 14.2366 24.1459C14.1947 24.0411 14.1528 23.9573 14.1319 23.8525C14.0481 23.6429 13.9643 23.4124 13.9015 23.2028C13.7549 22.7627 13.6292 22.3016 13.5454 21.8405C13.5035 21.61 13.4616 21.3794 13.4197 21.1489C13.3988 21.0232 13.3778 20.9184 13.3569 20.7926C13.4197 21.1699 13.3359 20.6878 13.3359 20.583C13.2312 19.5142 13.2312 18.4453 13.3359 17.3764C13.3569 17.2297 13.3569 17.104 13.3778 16.9573C13.3778 16.9573 13.3778 16.9573 13.3778 16.9363C13.3988 16.8735 13.3988 16.7896 13.3988 16.7267C13.4406 16.4124 13.5035 16.077 13.5663 15.7627C13.692 15.113 13.8596 14.4633 14.0691 13.8345C14.1738 13.4992 14.2785 13.1848 14.3833 12.8705C14.4461 12.7028 14.509 12.5351 14.5718 12.3675C14.6137 12.2836 14.6346 12.1998 14.6765 12.116C14.6975 12.0741 14.6975 12.0321 14.7184 12.0112C14.7603 11.9483 14.7813 11.8645 14.8232 11.8016C15.5144 10.5022 16.2057 9.20279 16.9388 7.92435C17.4206 7.06507 17.9233 6.20579 18.447 5.36746C18.6774 4.99022 18.9288 4.59201 19.1802 4.23573C19.2849 4.06806 19.4106 3.92135 19.5153 3.75369C19.5153 3.75369 19.5153 3.75369 19.5153 3.73273C19.5363 3.77465 19.5782 3.81656 19.5991 3.85848C19.5991 3.85848 19.5991 3.85848 19.62 3.87944C19.6829 3.96327 19.7457 4.0471 19.8086 4.10998C20.0809 4.46626 20.3322 4.80159 20.5836 5.15788C21.9661 7.10698 23.2229 9.18184 24.2284 11.3405C24.375 11.6549 24.5007 11.9483 24.6473 12.2627C24.6473 12.2627 24.6473 12.2836 24.6683 12.2836C24.6892 12.3465 24.7311 12.4303 24.7521 12.4932C24.8149 12.6609 24.8778 12.8285 24.9616 12.9962C25.2129 13.6459 25.4224 14.2956 25.6319 14.9663C25.8204 15.6369 25.988 16.3076 26.0927 16.9782C26.1136 17.125 26.1346 17.2926 26.1765 17.4393C26.1765 17.4603 26.1765 17.4603 26.1765 17.4603C26.1765 17.4812 26.1765 17.4812 26.1765 17.5022C26.1974 17.586 26.1974 17.6908 26.1974 17.7747C26.2184 18.0261 26.2393 18.2776 26.2812 18.5291C26.2184 18.0052 26.2603 18.4034 26.2812 18.5711C26.3022 18.8016 26.3022 19.0321 26.3022 19.2627C26.3022 19.598 26.2812 19.9333 26.2393 20.2687C26.2393 20.3315 26.2184 20.3735 26.2184 20.4154C26.2184 20.4154 26.2184 20.4363 26.2184 20.4573C26.2184 20.5202 26.1974 20.583 26.1974 20.6459C26.1555 20.8764 26.1136 21.107 26.0717 21.3166C25.967 21.8405 25.8204 22.3435 25.6528 22.8675C25.569 23.1399 25.4643 23.4124 25.3386 23.6848C25.3176 23.7268 25.3176 23.7477 25.2967 23.7896C25.2548 23.8944 25.3386 23.7058 25.3386 23.7058C25.3176 23.7896 25.2758 23.8525 25.2339 23.9363C25.171 24.083 25.1082 24.2297 25.0244 24.3764C24.7102 25.0262 24.3541 25.6339 23.977 26.2417C23.7676 26.5561 23.5371 26.8705 23.3067 27.1848C23.3067 27.2058 23.2648 27.2477 23.2439 27.2687C23.2229 27.2896 23.2229 27.2896 23.2229 27.3106C23.1601 27.3944 23.0973 27.4573 23.0554 27.5411C22.9087 27.7088 22.7621 27.8974 22.6155 28.0651C22.3222 28.4004 22.029 28.7148 21.7148 29.0291C21.3377 29.4273 21.2958 30.119 21.7148 30.5172C22.1337 30.8944 22.783 30.9363 23.202 30.5172C25.3386 28.3375 27.0563 25.6968 27.8941 22.7417C28.2921 21.3585 28.5226 19.8285 28.3969 18.3824C28.3969 18.3405 28.3969 18.2986 28.3759 18.2567C28.3759 18.2148 28.3759 18.1938 28.355 18.1519C28.355 18.1519 28.355 18.1519 28.355 18.11C28.355 18.0052 28.334 17.9004 28.334 17.7956C28.2502 17.0411 28.1246 16.2657 27.957 15.5321C27.6428 14.1699 27.2029 12.8285 26.6583 11.5501C25.6528 9.13992 24.3541 6.83453 22.8668 4.67585C22.3222 3.87944 21.7567 3.12495 21.1701 2.37046C20.8978 2.03513 20.6465 1.67884 20.3532 1.34351C20.3322 1.32255 20.3322 1.32255 20.3113 1.30159C19.9342 0.861473 19.2221 0.924347 18.8241 1.30159C18.2585 1.82555 17.8186 2.4962 17.3787 3.12495C16.8341 3.94231 16.3314 4.75968 15.8286 5.598C14.9279 7.10698 14.09 8.65788 13.2731 10.2088C12.3933 11.8645 11.8277 13.7088 11.4926 15.5531C11.0527 17.9004 11.0317 20.3106 11.5973 22.6369C12.0581 24.4393 12.8122 26.1369 13.8386 27.6459ZM18.7403 29.8884C18.7193 29.8675 18.7193 29.8675 18.7403 29.8884V29.8884ZM18.6774 31.2717C18.6774 31.2926 18.6565 31.3136 18.6565 31.3345C18.6146 31.5232 18.5936 31.4393 18.6774 31.2717ZM28.3969 18.0052C28.3969 17.9842 28.3969 17.9842 28.3969 18.0052C28.3969 17.9842 28.3969 17.9842 28.3969 18.0052ZM19.6619 3.75369C19.6829 3.77465 19.6829 3.79561 19.7038 3.81656C19.6829 3.77465 19.6619 3.75369 19.6619 3.75369ZM19.7667 3.85848C19.7667 3.87944 19.7667 3.87944 19.7667 3.85848V3.85848Z" fill="white"/>
</svg>
