<svg width="93" height="33" viewBox="0 0 93 33" fill="none" xmlns="http://www.w3.org/2000/svg">
<path d="M23.3038 8.88721C19.8166 8.88721 16.9982 12.8689 17.0061 17.7743C17.0061 22.6797 19.8325 26.6534 23.3197 26.6454C26.8069 26.6454 29.6253 22.6638 29.6174 17.7663C29.6094 12.8609 26.783 8.88721 23.3038 8.88721ZM23.3117 24.1768C22.3006 24.1768 21.4806 21.31 21.4806 17.7663C21.4806 14.2226 22.2927 11.3558 23.3117 11.3558C24.3229 11.3558 25.1429 14.2226 25.1429 17.7663C25.1429 21.302 24.3229 24.1768 23.3117 24.1768Z" fill="white"/>
<path d="M16.7593 25.594C13.28 17.0175 13.7338 7.78797 15.4536 3.79834H7.0381C7.0381 3.79834 8.00942 4.96895 7.22918 6.76866C6.20212 9.26118 3.29612 17.2086 2.33276 24.5826C2.31684 24.718 2.30092 24.8454 2.29295 24.9728C1.30571 25.2038 0.509546 25.4745 0 25.7692L1.3296 32.745H3.41555C3.79771 30.8338 4.21967 28.1502 4.8168 28.1263C7.49987 27.6087 11.0587 27.6963 13.3437 28.1183C14.2115 28.3652 14.5061 30.9612 14.9042 32.7371H17.2927C17.6749 30.8179 18.1605 28.3413 18.4392 26.8283C18.0411 26.3345 17.4599 25.9284 16.7593 25.594ZM6.12251 24.3995C6.61613 15.0824 10.0396 7.77204 10.0396 7.77204C10.0396 7.77204 8.74189 15.7194 10.995 24.3437C9.37086 24.2402 7.69095 24.272 6.12251 24.3995Z" fill="white"/>
<path d="M72.1724 8.85498H70.9065L70.9145 22.7987C70.9145 25.4585 70.9145 26.2946 73.7329 26.2867H75.3491L75.3411 12.5977C75.3332 9.50797 74.3698 8.85498 72.1724 8.85498Z" fill="white"/>
<path d="M50.4609 8.83154C46.9817 8.83154 44.1553 12.8769 44.1553 17.8619C44.1553 18.4911 44.1632 19.144 44.1871 19.7891L44.1951 33.0002H44.9276C47.4833 33.0002 48.7014 31.5987 48.6218 27.6409V25.9766C53.7969 25.0767 56.7745 21.3658 56.7745 17.8619C56.7666 12.8689 53.9402 8.83154 50.4609 8.83154ZM48.6218 23.8583V18.4353C48.6297 18.2362 48.6377 16.8028 48.6377 16.6197C48.6377 13.0202 49.4498 11.5869 50.4689 11.5869C51.48 11.5869 52.3001 13.0202 52.3001 16.6197C52.3001 19.3352 51.0979 22.9824 48.6218 23.8583Z" fill="white"/>
<path fill-rule="evenodd" clip-rule="evenodd" d="M35.5647 6.15565C38.5185 4.61873 42.0376 6.98383 43.5343 3.77461C44.4499 1.79971 42.5471 0 42.5471 0C42.2923 0.270753 42.0774 0.549469 41.7907 0.756515C40.493 1.69619 38.7414 1.9749 37.0854 2.50845C35.5329 3.00217 33.9246 3.79054 32.9135 4.86559C31.0664 6.83253 30.5887 9.72321 30.6444 13.2908C30.6683 14.6207 30.5011 16.285 30.6842 18.1166C30.8196 22.8547 33.5823 26.6453 36.9899 26.6373C40.4771 26.6373 43.2955 22.6556 43.2875 17.7582C43.2875 12.8528 40.4611 8.8791 36.9739 8.8791C35.4851 8.8791 34.1157 9.61173 33.0329 10.8301C33.224 8.23407 33.8609 7.03958 35.5647 6.15565ZM37.0217 24.1687C36.0106 24.1687 35.1826 21.3019 35.1826 17.7582C35.1826 14.2225 35.9947 11.3477 37.0058 11.3477C38.0169 11.3477 38.837 14.2145 38.837 17.7582C38.8529 21.2939 38.0328 24.1687 37.0217 24.1687Z" fill="white"/>
<path d="M63.2793 14.7084C62.921 14.4376 62.3318 14.3261 62.3318 13.4103V13.4024L62.3239 13.3785C62.2124 10.0737 60.9943 8.87124 58.6376 8.87124L57.8972 8.86328L57.9052 13.6174V14.2226L57.9131 23.253C57.9131 25.4668 58.7093 26.303 60.644 26.295H61.0022C61.0102 26.295 61.0182 26.287 61.0341 26.295H64.6487C65.7951 26.295 70.2616 26.1755 70.2536 21.7479C70.389 16.6992 66.4002 16.524 63.2793 14.7084ZM64.0356 24.0414C63.343 24.0414 62.3557 23.1893 62.3239 21.3975V16.2055C62.6742 16.4603 62.6742 16.4603 63.4067 16.9938C64.1391 17.5274 65.819 19.1599 65.819 21.4692C65.819 23.7786 64.5531 24.0414 64.0356 24.0414Z" fill="white"/>
<path d="M86.9491 8.84717H85.4205V11.4591C85.2374 12.2077 84.5925 13.3385 83.1275 14.9869C82.1244 16.1177 81.5113 16.8185 81.153 17.2883L81.1451 11.5627C81.1451 9.53998 80.0623 8.84717 78.5018 8.84717H76.7104L76.7184 22.6795C76.7184 25.2516 77.0448 26.2789 79.72 26.2789H81.153V22.0105C81.5113 21.3416 82.1164 20.4975 83.0559 19.4304C84.6164 17.6705 85.2374 16.9618 85.4285 16.5079V23.8262C85.4285 25.2755 86.3122 26.2789 87.8329 26.2709H89.8551L89.8472 12.2077C89.8472 9.42849 88.9953 8.84717 86.9491 8.84717Z" fill="white"/>
<path d="M82.4827 8.48101C83.8202 8.18637 85.5717 6.84057 86.0893 4.51528C86.3122 3.51986 85.7549 2.53241 85.1577 2.34925C84.1864 2.11832 83.5017 2.9465 83.5017 2.9465C82.8967 1.60866 80.5958 2.63593 81.0894 4.44361C81.5273 6.08405 82.3871 7.42985 82.4827 8.48101Z" fill="white"/>
<path d="M91.0812 3.17726C91.3598 3.18522 91.6226 3.24893 91.8614 3.35245C92.0923 3.46394 92.2993 3.60728 92.4745 3.79044C92.6496 3.97359 92.777 4.1886 92.8725 4.4275C92.9681 4.67436 93.0079 4.93715 92.9999 5.21587C92.992 5.49459 92.9283 5.75738 92.8248 6.00424C92.7133 6.24314 92.57 6.45815 92.3869 6.63334C92.2038 6.80853 91.9888 6.94391 91.742 7.03947C91.4952 7.13503 91.2325 7.17485 90.9458 7.16688C90.6672 7.15892 90.4124 7.10318 90.1656 6.99169C89.9188 6.8802 89.7118 6.7289 89.5366 6.54574C89.3615 6.36259 89.2341 6.13962 89.1306 5.89275C89.035 5.64589 88.9873 5.37514 88.9952 5.09642C89.0032 4.8177 89.0669 4.55491 89.1784 4.31602C89.2898 4.07712 89.4411 3.87007 89.6242 3.70284C89.8153 3.53561 90.0303 3.40023 90.2771 3.30467C90.5318 3.20911 90.7946 3.1693 91.0812 3.17726ZM91.0493 3.51968C90.8264 3.51172 90.6274 3.55154 90.4283 3.63117C90.2373 3.7108 90.0701 3.82229 89.9188 3.96563C89.7675 4.10897 89.656 4.28416 89.5764 4.48324C89.4889 4.68233 89.4491 4.88937 89.4411 5.11235C89.4331 5.34328 89.465 5.55829 89.5446 5.76534C89.6242 5.97239 89.7277 6.14758 89.8551 6.29888C89.9904 6.45019 90.1497 6.56963 90.3407 6.66519C90.5318 6.75279 90.7388 6.80853 90.9697 6.8165C91.1847 6.82446 91.3917 6.78464 91.5828 6.71298C91.7738 6.63334 91.941 6.52982 92.0843 6.38648C92.2277 6.24314 92.3391 6.06795 92.4187 5.87683C92.5063 5.67774 92.5461 5.46273 92.5541 5.2318C92.562 5.00086 92.5302 4.78585 92.4585 4.5788C92.3869 4.37176 92.2834 4.19657 92.148 4.04526C92.0127 3.89396 91.8455 3.77451 91.6624 3.67895C91.4793 3.57543 91.2723 3.52765 91.0493 3.51968ZM90.6194 6.24314L90.2293 6.23518L90.293 4.14879C90.4044 4.13286 90.5239 4.1249 90.6353 4.11693C90.7548 4.10897 90.8821 4.10101 91.0255 4.10897C91.1926 4.11693 91.328 4.13286 91.4235 4.16471C91.5191 4.19657 91.5987 4.23638 91.6624 4.29213C91.7977 4.39565 91.8614 4.54695 91.8535 4.74603C91.8455 4.87345 91.8057 4.97697 91.7261 5.0566C91.6465 5.13624 91.5509 5.19198 91.4315 5.22383V5.24772C91.5987 5.31939 91.7022 5.48662 91.75 5.76534C91.7738 5.93257 91.7977 6.05202 91.8216 6.11573C91.8455 6.1874 91.8694 6.24314 91.8853 6.28296L91.4872 6.26703C91.4395 6.21129 91.3917 6.02813 91.336 5.71756C91.3121 5.59811 91.2723 5.51848 91.2006 5.46273C91.129 5.40699 91.0175 5.37514 90.8742 5.37514L90.6353 5.36717L90.6194 6.24314ZM90.6592 5.08049L90.914 5.08846C91.0493 5.09642 91.1767 5.07253 91.2882 5.02475C91.3996 4.97697 91.4554 4.89734 91.4633 4.76992C91.4713 4.67436 91.4315 4.58677 91.3598 4.52306C91.2882 4.45139 91.1608 4.41954 90.9777 4.41158C90.906 4.41158 90.8423 4.41158 90.8025 4.41158C90.7627 4.41158 90.7229 4.41954 90.6911 4.4275L90.6592 5.08049Z" fill="white"/>
</svg>
