<svg viewBox="0 0 288 42" fill="none" xmlns="http://www.w3.org/2000/svg">
<path d="M46.6322 38.5072C31.9363 38.3611 17.2595 38.2153 2.61966 38.0752C0.645467 25.8131 1.17595 13.7645 4.21106 1.7056C91.3637 0.958909 179.852 2.54488 265.939 4.08781C271.65 4.19018 277.351 4.29236 283.04 4.39365C283.527 4.77106 284.011 5.38726 284.463 6.27337C284.975 7.27934 285.411 8.56498 285.758 10.0722C286.451 13.0859 286.762 16.8688 286.686 20.7978C286.609 24.7232 286.147 28.7518 285.317 32.2511C284.535 35.5456 283.451 38.2717 282.132 40.0185C204.881 40.0796 125.479 39.2906 46.6322 38.5072Z" fill="white" stroke="#B71010" stroke-width="2"/>
</svg>
