<svg width="31" height="25" viewBox="0 0 31 25" fill="none" xmlns="http://www.w3.org/2000/svg">
<path d="M29.7609 0C30.0805 1.69368 30.0805 3.35541 29.7929 5.01713C20.0462 5.3367 10.1398 5.3367 0.552901 5.3367C-0.0862239 4.8254 -0.214049 1.43803 0.425076 0.415431C10.0439 0.191738 19.9823 0.0958688 29.7609 0Z" fill="white"/>
<path d="M29.8882 9.74676C30.1119 11.4404 30.048 13.1022 29.6965 14.7639C19.9498 14.8278 10.0434 14.5402 0.456517 14.2845C-0.182607 13.7413 -0.150651 10.3539 0.552386 9.36328C10.1712 9.36328 20.1096 9.58698 29.8882 9.74676Z" fill="white"/>
<path d="M0.168818 23.7437C-0.0548756 22.05 0.00903684 20.4203 0.360556 18.7585C10.1072 18.6946 20.0136 18.9822 29.6005 19.2379C30.2396 19.7811 30.2077 23.1685 29.5047 24.1591C19.8858 24.1272 9.94743 23.9035 0.168818 23.7437Z" fill="white"/>
</svg>
