<svg width="156" height="89" viewBox="0 0 156 89" fill="none" xmlns="http://www.w3.org/2000/svg">
<path d="M0 1.32435C1.26829 1.21406 2.4263 1.10378 3.58431 1.10378C8.16119 1.04863 12.6829 1.04863 17.2047 0.993489C20.6787 0.938346 24.1527 0.82806 27.737 0.717773C28.1782 3.64036 27.9576 6.50781 28.0679 9.48554C26.0276 9.54068 24.1527 9.65097 22.1676 9.70611C22.1124 10.3127 22.0573 10.6987 22.0573 11.1398C22.1124 13.4007 22.2227 15.6064 22.2778 17.8673C22.2778 21.6722 22.6638 25.4771 22.2778 29.3371C21.7816 33.7485 18.3627 37.4983 13.7306 38.3806C10.8081 38.932 8.0509 38.4357 5.51432 36.8366C3.14316 35.3477 1.65429 33.1971 0.882291 30.4951C0.330859 28.5099 0.275716 26.5248 0.275716 24.4845C0.165429 20.2936 0.0551432 16.1579 0 11.967C0 8.43782 0 4.90865 0 1.32435Z" fill="white"/>
<path d="M0.440954 49.9052C1.70925 49.8501 2.86725 49.7949 4.02526 49.7949C8.547 49.8501 13.1239 49.9603 17.6456 50.0155C21.1196 50.0706 24.5937 50.0155 28.178 49.9603C28.5088 52.8829 28.2883 55.7504 28.2883 58.7281C26.248 58.7281 24.3731 58.7833 22.3879 58.7833C22.3328 59.3898 22.2776 59.7758 22.2776 60.217C22.2776 62.4778 22.3879 64.6836 22.3328 66.9444C22.2776 70.7493 22.5534 74.6093 22.0571 78.4142C21.4505 82.7705 17.9213 86.5203 13.2893 87.2371C10.3116 87.7334 7.60957 87.182 5.12812 85.5277C2.81211 83.9837 1.32324 81.778 0.606384 79.0759C0.110095 77.0908 0.110095 75.0505 0.165238 73.0653C0.220382 68.8745 0.220382 64.6836 0.275525 60.5478C0.220382 57.0187 0.385811 53.4895 0.440954 49.9052Z" fill="white"/>
<path d="M87.7877 51.3942C95.2872 50.6773 102.676 49.9605 110.121 49.1885C110.176 49.6296 110.231 49.9605 110.286 50.3465C110.617 54.3719 111.003 58.3974 111.334 62.4228C111.72 66.9446 112.051 71.4112 112.326 75.9329C112.437 77.5321 112.326 79.1312 111.775 80.7304C110.782 83.5427 108.908 85.6381 106.316 86.8513C101.739 89.057 97.3275 88.5056 93.4675 85.1418C91.9234 83.7632 90.9309 82.0538 90.3794 80.0135C89.3869 76.7049 89.4971 73.2309 89.1663 69.812C88.67 64.5183 88.284 59.2245 87.8429 53.8756C87.7326 53.1588 87.7877 52.3868 87.7877 51.3942Z" fill="white"/>
<path d="M72.7336 69.4263C72.1271 70.9703 72.5682 72.404 72.2925 74.0032C76.8142 74.2789 81.2808 74.4995 85.8577 74.7752C85.6371 77.9735 85.4166 80.9512 85.196 84.1495C80.7294 83.9841 76.3731 83.7635 71.8514 83.5981C71.7411 85.1421 71.6308 86.5758 71.5205 88.175C67.881 88.0096 64.407 87.8441 60.7676 87.6787C60.7676 87.0721 60.7676 86.631 60.7676 86.1898C60.8227 85.5833 60.8779 84.9767 60.8779 84.315C60.933 83.2121 60.8779 83.157 59.775 83.0467C59.1684 82.9915 58.5619 82.9364 57.845 82.8812C57.4038 81.2821 57.845 79.7381 57.845 78.1389C57.845 76.5949 58.0656 75.0509 58.1758 73.3966C58.9479 73.4518 59.6096 73.4518 60.3264 73.5069C61.4844 73.562 61.6499 73.3966 61.705 72.2938C61.8153 70.088 61.9256 67.9374 62.0359 65.7317C62.1462 63.5811 62.2564 61.4305 62.477 59.28C62.6976 56.9088 63.4144 54.7582 65.0687 52.9385C68.1016 49.6851 73.1196 48.5822 77.2002 50.2916C81.3911 52.0562 83.7623 55.3648 84.2586 59.7211C84.7549 63.8569 82.9903 67.386 79.0751 69.2609C77.3657 70.088 75.3805 70.088 73.5057 69.6469C73.2299 69.6469 73.0645 69.5366 72.7336 69.4263Z" fill="white"/>
<path d="M105.544 26.8005C109.9 26.4144 113.926 26.0284 118.006 25.6424C117.896 24.8153 117.289 24.5947 116.903 24.2639C114.753 22.5544 112.547 20.845 110.397 19.0804C108.963 17.8673 107.805 16.4335 107.033 14.7241C106.04 12.6838 105.875 10.5884 106.426 8.43778C107.474 4.08147 110.286 1.37945 114.532 0.331731C120.157 -0.991705 125.23 1.76545 127.601 6.45262C128.373 8.05177 128.87 9.70607 128.649 11.6912C125.12 11.9669 121.535 12.2978 117.675 12.6287C118.117 13.1249 118.337 13.4558 118.668 13.7315C120.708 15.441 122.693 17.0953 124.734 18.8047C126.223 20.0178 127.712 21.2861 128.759 22.9404C130.744 25.9182 130.8 28.951 129.2 32.0391C126.719 36.7262 122.638 38.9319 117.51 38.7114C112.437 38.4908 108.742 35.8439 106.757 31.1016C106.206 29.8333 105.985 28.3996 105.544 26.8005Z" fill="white"/>
<path d="M43.9492 74.8851C44.0044 79.0208 44.0044 82.9911 44.0595 87.1269C43.2875 87.182 42.5706 87.2923 41.7986 87.2923C39.4826 87.3475 37.1666 87.3475 34.8506 87.4026C34.3543 87.4026 33.5272 87.6232 33.3617 87.3474C33.086 86.9063 33.086 86.1894 33.086 85.5829C32.9757 79.848 32.9206 74.1682 32.8103 68.4333C32.7 63.0293 32.4794 57.6253 32.3691 52.1661C32.3691 51.5595 31.928 50.8427 32.5897 50.2361C36.0086 50.1258 39.5378 50.0155 43.1772 49.8501C43.2324 52.7175 43.2323 55.4196 43.2875 58.1767C44.3352 58.673 45.3278 58.4524 46.3204 58.5076C48.471 58.5627 50.401 59.2244 51.8898 60.7684C52.9927 61.9264 53.8198 63.305 54.0956 64.9042C54.3713 66.1725 54.4816 67.4959 54.5367 68.8193C54.647 70.6391 54.5918 72.5139 54.5918 74.4991C51.1178 74.7197 47.5887 74.7748 43.9492 74.8851Z" fill="white"/>
<path d="M145.081 26.0286C144.916 30.1644 144.806 34.1347 144.64 38.2704C143.868 38.2704 143.096 38.3255 142.379 38.3255C140.063 38.2704 137.747 38.1601 135.431 38.105C134.935 38.105 134.108 38.2153 133.998 37.9947C133.722 37.4984 133.777 36.8367 133.777 36.2301C133.942 30.4952 134.163 24.8155 134.273 19.0806C134.384 13.6765 134.439 8.27252 134.549 2.81334C134.549 2.20677 134.163 1.48991 134.88 0.938477C138.299 0.99362 141.828 0.99362 145.467 1.04876C145.357 3.91621 145.247 6.61822 145.192 9.37538C146.239 9.92681 147.232 9.76138 148.224 9.87167C150.375 10.0371 152.25 10.754 153.684 12.4083C154.731 13.6214 155.448 15.0551 155.724 16.6543C155.945 17.9226 156 19.3011 156 20.5694C156 22.3892 155.889 24.264 155.834 26.2492C152.25 26.194 148.721 26.0838 145.081 26.0286Z" fill="white"/>
<path d="M82.77 1.15869C86.2991 1.15869 89.8283 1.21383 93.4677 1.21383C93.4677 2.59241 93.4677 3.86071 93.4677 5.129C93.4126 7.1693 93.3575 9.15445 93.3023 11.1947C93.192 16.9296 93.1369 22.6094 93.0266 28.3443C93.0266 28.4546 93.0817 28.5648 93.1369 28.8957C96.5006 28.8957 99.9195 28.9509 103.449 28.9509C103.338 32.2043 103.283 35.3475 103.173 38.6009C102.952 38.656 102.732 38.7112 102.511 38.7112C97.7689 38.656 93.0266 38.6009 88.2843 38.6009C86.7403 38.6009 85.1963 38.656 83.6523 38.656C83.2111 38.656 82.77 38.656 82.384 38.6009C81.998 37.2223 82.2737 5.57015 82.77 1.15869Z" fill="white"/>
<path d="M68.9288 0.772795C68.984 4.24682 69.0943 7.55541 69.1494 11.0294C72.072 11.3051 74.9394 11.0846 77.9723 11.1397C78.0826 14.2829 78.0275 17.3709 78.0275 20.5141C75.16 21.0655 72.2926 20.6243 69.4803 20.9001C69.5905 26.6901 69.756 32.425 69.8663 38.3253C66.282 38.4356 62.8079 38.4907 59.1685 38.601C59.1685 37.6084 59.1685 36.7813 59.1685 35.9541C59.0582 30.5501 59.0031 25.1461 58.8928 19.742C58.8376 15.7717 58.7273 11.8014 58.6171 7.88626C58.5619 5.95625 58.4516 4.02624 58.3965 2.09623C58.3965 1.82052 58.4516 1.59994 58.4516 1.1588C61.9256 0.827938 65.2894 0.662509 68.9288 0.772795Z" fill="white"/>
<path d="M54.5914 34.3551C54.5914 28.179 54.6465 22.0581 54.6465 15.8821C54.6465 13.7867 54.6465 11.6912 54.2054 9.59578C52.9371 3.91603 47.2573 0.166295 42.0187 0.717727C38.3241 1.10373 33.8024 3.80574 32.6995 8.49291C32.479 9.48549 32.3135 10.5884 32.2584 11.6361C32.2033 14.3381 32.2584 17.0952 32.2584 19.7973C32.2584 25.0359 32.2584 30.2745 32.2584 35.5131C32.2584 36.4505 32.3135 37.4431 32.3135 38.5459C39.813 38.6011 47.0919 38.6011 54.5914 38.6562C54.6465 38.2151 54.7568 37.8291 54.7568 37.4431C54.7017 36.3954 54.5914 35.4028 54.5914 34.3551Z" fill="white"/>
</svg>
