<svg width="325" height="554" viewBox="0 0 325 554" fill="none" xmlns="http://www.w3.org/2000/svg">
<path d="M320.89 2.44489C322.351 5.76669 323.186 8.30689 323.707 11.7264C324.229 15.2436 325.39 533.092 324.868 536.707C324.451 540.224 322.468 543.058 321.008 546.477C316.625 546.868 312.66 547.943 308.174 548.236C303.792 548.529 299.409 548.822 294.923 549.017C290.54 549.213 286.054 549.213 281.671 549.31C277.289 549.408 272.803 549.017 268.42 549.017C264.038 549.017 47.5251 554 43.1428 554C38.6562 554 34.2739 553.707 29.8916 553.609C25.405 553.511 21.0227 552.632 16.6404 552.534C12.1538 552.437 7.66721 552.437 3.28494 552.241C0.989456 551.264 1.51115 546.77 0.885112 541.885C0.572092 538.563 -0.366961 535.046 0.154739 531.431C0.676439 527.035 2.22885 10.6516 4.10697 8.69764C8.48925 8.40454 12.0368 5.18045 16.5234 4.98505C20.9057 4.78965 25.3923 5.86434 29.8789 5.66894C34.2612 5.47354 38.6435 3.32413 43.1301 3.22643C259.538 -0.388413 264.025 0.881691 268.512 0.881691C272.894 0.783991 277.381 2.54259 281.867 2.44489C286.354 2.44489 290.736 2.83569 295.118 2.83569C299.605 2.83569 303.987 -0.0953106 308.474 0.00238933C312.856 0.00238933 316.508 2.34719 320.89 2.44489Z" fill="#FECA57"/>
</svg>
