<svg width="218" height="124" viewBox="0 0 218 124" fill="none" xmlns="http://www.w3.org/2000/svg">
<path d="M38.1716 9.11148C38.1716 10.1561 38.1717 11.2186 38.1946 12.2859C37.1166 12.3217 36.0676 12.3661 35.029 12.4103L34.9536 12.4135C33.6198 12.4703 32.3029 12.5264 30.95 12.5639L30.0622 12.5886L29.9818 13.473C29.9637 13.6723 29.9447 13.8614 29.9263 14.0438C29.872 14.5821 29.8236 15.0614 29.8236 15.5671V15.5793L29.8239 15.5915C29.8626 17.1775 29.9206 18.7432 29.9783 20.3017L29.9784 20.3047C30.0361 21.8621 30.0935 23.4123 30.1319 24.9806C30.1321 26.8187 30.1933 28.6199 30.254 30.4044C30.3732 33.9133 30.4902 37.3575 30.1374 40.8909C29.4913 46.6092 25.0491 51.4992 19.002 52.6517C15.1603 53.3764 11.5651 52.7274 8.23921 50.6307L8.23767 50.6297C5.15726 48.6955 3.21473 45.9083 2.19549 42.3437C1.46536 39.7131 1.3853 37.0598 1.3853 34.2154V34.2022L1.38495 34.1891L1.37346 33.7524C1.22325 28.0464 1.07507 22.4175 1 16.7164V16.6941V16.6652V16.6363V16.6074V16.5785V16.5496V16.5207V16.4918V16.4629V16.434V16.4051V16.3762V16.3473V16.3184V16.2895V16.2606V16.2317V16.2028V16.1739V16.145V16.1161V16.0872V16.0583V16.0294V16.0005V15.9716V15.9427V15.9138V15.8849V15.856V15.8271V15.7982V15.7693V15.7404V15.7116V15.6827V15.6538V15.6249V15.596V15.5671V15.5382V15.5093V15.4804V15.4515V15.4226V15.3937V15.3648V15.3358V15.3069V15.278V15.2491V15.2202V15.1913V15.1624V15.1335V15.1046V15.0757V15.0468V15.0179V14.989V14.9601V14.9312V14.9023V14.8734V14.8445V14.8156V14.7867V14.7578V14.7289V14.7V14.6711V14.6422V14.6133V14.5844V14.5554V14.5265V14.4976V14.4687V14.4398V14.4109V14.382V14.3531V14.3242V14.2953V14.2664V14.2375V14.2085V14.1796V14.1507V14.1218V14.0929V14.064V14.0351V14.0062V13.9773V13.9483V13.9194V13.8905V13.8616V13.8327V13.8038V13.7749V13.7459V13.717V13.6881V13.6592V13.6303V13.6014V13.5724V13.5435V13.5146V13.4857V13.4568V13.4279V13.3989V13.37V13.3411V13.3122V13.2832V13.2543V13.2254V13.1965V13.1676V13.1386V13.1097V13.0808V13.0519V13.0229V12.994V12.9651V12.9362V12.9072V12.8783V12.8494V12.8204V12.7915V12.7626V12.7337V12.7047V12.6758V12.6469V12.6179V12.589V12.5601V12.5311V12.5022V12.4733V12.4443V12.4154V12.3865V12.3575V12.3286V12.2997V12.2707V12.2418V12.2128V12.1839V12.155V12.126V12.0971V12.0681V12.0392V12.0103V11.9813V11.9524V11.9234V11.8945V11.8655V11.8366V11.8076V11.7787V11.7497V11.7208V11.6918V11.6629V11.6339V11.605V11.576V11.5471V11.5181V11.4892V11.4602V11.4313V11.4023V11.3734V11.3444V11.3155V11.2865V11.2575V11.2286V11.1996V11.1707V11.1417V11.1127V11.0838V11.0548V11.0258V10.9969V10.9679V10.939V10.91V10.881V10.8521V10.8231V10.7941V10.7651V10.7362V10.7072V10.6782V10.6493V10.6203V10.5913V10.5623V10.5334V10.5044V10.4754V10.4464V10.4174V10.3885V10.3595V10.3305V10.3015V10.2725V10.2436V10.2146V10.1856V10.1566V10.1276V10.0986V10.0696V10.0407V10.0117V9.98268V9.95369V9.9247V9.8957V9.86671V9.83772V9.80872V9.77972V9.75073V9.72173V9.69273V9.66373V9.63473V9.60573V9.57673V9.54773V9.51872V9.48972V9.46071V9.43171V9.4027V9.37369V9.34468V9.31567V9.28666V9.25765V9.22864V9.19963V9.17061V9.1416V9.11258V9.08357V9.05455V9.02553V8.99651V8.96749V8.93847V8.90945V8.88042V8.8514V8.82237V8.79335V8.76432V8.73529V8.70626V8.67723V8.6482V8.61917V8.59014V8.56111V8.53207V8.50304V8.474V8.44496V8.41592V8.38688V8.35784V8.3288V8.29976V8.27072V8.24167V8.21263V8.18358V8.15453V8.12548V8.09643V8.06738V8.03833V8.00928V7.98022V7.95117V7.92211V7.89306V7.864V7.83494V7.80588V7.77682V7.74776V7.71869V7.68963V7.66056V7.6315V7.60243V7.57336V7.54429V7.51522V7.48615V7.45708V7.428V7.39893V7.36985V7.34077V7.3117V7.28262V7.25353V7.22445V7.19537V7.16629V7.1372V7.10811V7.07903V7.04994V7.02085V6.99176V6.96266V6.93357V6.90448V6.87538V6.84628V6.81719V6.78809V6.75899V6.72989V6.70078V6.67168V6.64257V6.61347V6.58436V6.55525V6.52614V6.49703V6.46792V6.4388V6.40969V6.38057V6.35146V6.32234V6.29322V6.2641V6.23497V6.20585V6.17673V6.1476V6.11847V6.08934V6.06021V6.03108V6.00195V5.97282V5.94368V5.91455V5.88541V5.85627V5.82713V5.79799V5.76885V5.7397V5.71056V5.68141V5.65226V5.62311V5.59396V5.56481V5.53566V5.5065V5.47735V5.44819V5.41903V5.38987V5.36071V5.33155V5.30239V5.27322V5.24405V5.21489V5.18572V5.15655V5.12737V5.0982V5.06903V5.03985V5.01067V4.98149V4.95231V4.92313V4.89395V4.86476V4.83558V4.80639V4.7772V4.74801V4.71882V4.68963V4.66043V4.63124V4.60204V4.57284V4.54364V4.51444V4.48523V4.45603V4.42682V4.39762V4.36841V4.3392V4.30998V4.28077V4.25156V4.22234V4.19312V4.1639V4.13468V4.10546V4.07624V4.04701V4.01778V3.98856V3.95933V3.93009V3.90086V3.87163V3.84239V3.81315V3.78391V3.75467V3.72543V3.69619V3.66694V3.6377V3.60845V3.5792V3.54995V3.52069V3.49144V3.46218V3.43293V3.40367V3.37441V3.34514V3.31588V3.28661V3.25735V3.22808V3.19881V3.16954V3.14026V3.11099V3.08171V3.05243V3.02315V2.99387V2.96459V2.9353V2.90601V2.87673V2.84744V2.81815V2.78885V2.76711C2.42038 2.64401 3.71576 2.54234 5.00884 2.54234V2.54242L5.02088 2.54227C8.20609 2.50389 11.3726 2.48465 14.533 2.46543L14.5606 2.46527C17.7292 2.446 20.8916 2.42672 24.0546 2.38816L24.0583 2.3881C28.6297 2.31554 33.2004 2.17478 37.8904 2.03022C38.0911 3.71002 38.149 5.39211 38.1653 7.1097C38.1715 7.76715 38.1716 8.43558 38.1716 9.11148Z" stroke="white" stroke-width="2"/>
<path d="M31.2863 81.1461H30.373L30.2904 82.0555C30.2723 82.2548 30.2532 82.4439 30.2348 82.6263C30.1805 83.1647 30.1321 83.6439 30.1321 84.1496C30.1321 85.4618 30.1574 86.7294 30.1824 87.983C30.2192 89.8284 30.2554 91.6436 30.2095 93.5264H30.2094L30.2093 93.5363C30.1854 95.1874 30.2043 96.8201 30.2231 98.4402C30.2661 102.151 30.3084 105.796 29.8329 109.445C29.0436 115.1 24.4481 119.987 18.4186 120.92L18.4186 120.92L18.4071 120.922C14.4876 121.575 10.9704 120.854 7.72148 118.688C4.70635 116.678 2.76155 113.811 1.81634 110.254C1.16075 107.627 1.15421 104.899 1.23108 102.132L1.23128 102.125L1.23138 102.118C1.26983 99.1956 1.28911 96.2743 1.3083 93.3663L1.3085 93.3359C1.32777 90.4167 1.34702 87.5111 1.3855 84.6253L1.38569 84.6108L1.38546 84.5963C1.33462 81.3423 1.4184 78.1057 1.50338 74.8228C1.53873 73.4573 1.57429 72.0837 1.60045 70.6976C3.00961 70.6366 4.3152 70.5856 5.61953 70.5854C8.77344 70.6239 11.9471 70.6816 15.1242 70.7394L15.1257 70.7394C18.3027 70.7972 21.4833 70.855 24.6452 70.8936C29.2189 70.9661 33.7906 70.9024 38.4737 70.8306C38.6926 73.3572 38.639 75.8424 38.5834 78.4231C38.5646 79.2934 38.5456 80.1746 38.5367 81.0719C37.457 81.078 36.4063 81.0929 35.3658 81.1076L35.341 81.108C33.9902 81.1272 32.6567 81.1461 31.2863 81.1461Z" stroke="white" stroke-width="2"/>
<path d="M139.347 122.102C136.557 121.736 133.847 120.469 131.277 118.23C129.281 116.447 127.99 114.235 127.265 111.553L127.262 111.54L127.258 111.526C126.594 109.313 126.292 107.024 126.102 104.663C126.024 103.691 125.963 102.674 125.901 101.643C125.817 100.245 125.732 98.8241 125.6 97.463C125.126 92.4047 124.724 87.3512 124.32 82.2648C124.133 79.9199 123.946 77.5681 123.752 75.2056L123.749 75.1705L123.743 75.1358C123.643 74.4862 123.654 73.8238 123.667 72.9467C123.668 72.8758 123.669 72.8036 123.67 72.7298C133.521 71.7873 143.244 70.8427 153.03 69.8319C153.038 69.8877 153.046 69.943 153.054 69.9979C153.078 70.1562 153.101 70.3116 153.124 70.468C153.355 73.2742 153.604 76.0798 153.854 78.8815L153.854 78.8827C154.105 81.6959 154.355 84.5052 154.586 87.3139L154.586 87.317C155.125 93.6284 155.586 99.8621 155.971 106.172L155.972 106.18C156.119 108.321 155.969 110.413 155.254 112.486C153.953 116.172 151.514 118.887 148.146 120.463L148.146 120.463L148.136 120.468C145.083 121.939 142.138 122.467 139.347 122.102Z" stroke="white" stroke-width="2"/>
<path d="M101.957 96.0699L101.057 95.7699L100.71 96.6529C100.216 97.9117 100.159 99.1063 100.159 100.188C100.159 100.406 100.161 100.617 100.163 100.823C100.172 101.672 100.179 102.434 100.039 103.245L99.8494 104.345L100.964 104.413C104.195 104.61 107.449 104.789 110.711 104.968C113.442 105.119 116.179 105.27 118.914 105.431C118.783 107.308 118.652 109.138 118.521 110.969L118.521 110.972C118.389 112.817 118.258 114.663 118.126 116.558C115.399 116.453 112.698 116.335 109.987 116.217L109.805 116.209C106.713 116.074 103.608 115.939 100.445 115.823L99.4794 115.788L99.4106 116.752C99.3492 117.61 99.2877 118.447 99.2261 119.285C99.1561 120.236 99.0861 121.189 99.0162 122.175C96.8129 122.075 94.6477 121.974 92.4821 121.873L92.4789 121.873C90.3055 121.772 88.1317 121.671 85.9191 121.57V121.567V121.562V121.558V121.554V121.55V121.546V121.542V121.538V121.534V121.53V121.526V121.522V121.518V121.514V121.51V121.506V121.502V121.498V121.494V121.49V121.486V121.482V121.478V121.474V121.47V121.466V121.462V121.458V121.454V121.45V121.446V121.442V121.438V121.434V121.43V121.426V121.422V121.418V121.414V121.41V121.406V121.402V121.398V121.394V121.39V121.386V121.382V121.378V121.374V121.371V121.367V121.363V121.359V121.355V121.351V121.347V121.343V121.339V121.335V121.331V121.327V121.324V121.32V121.316V121.312V121.308V121.304V121.3V121.296V121.292V121.289V121.285V121.281V121.277V121.273V121.269V121.265V121.261V121.258V121.254V121.25V121.246V121.242V121.238V121.234V121.231V121.227V121.223V121.219V121.215V121.211V121.208V121.204V121.2V121.196V121.192V121.188V121.185V121.181V121.177V121.173V121.169V121.165V121.162V121.158V121.154V121.15V121.146V121.143V121.139V121.135V121.131V121.127V121.124V121.12V121.116V121.112V121.109V121.105V121.101V121.097V121.093V121.09V121.086V121.082V121.078V121.075V121.071V121.067V121.063V121.06V121.056V121.052V121.048V121.045V121.041V121.037V121.033V121.03V121.026V121.022V121.018V121.015V121.011V121.007V121.003V121V120.996V120.992V120.988V120.985V120.981V120.977V120.974V120.97V120.966V120.962V120.959V120.955V120.951V120.948V120.944V120.94V120.936V120.933V120.929V120.925V120.922V120.918V120.914V120.91V120.907V120.903V120.899V120.896V120.892V120.888V120.885V120.881V120.877V120.874V120.87V120.866V120.863V120.859V120.855V120.852V120.848V120.844V120.84V120.837V120.833V120.829V120.826V120.822V120.818V120.815V120.811V120.807V120.804V120.8V120.796V120.793V120.789V120.785V120.782V120.778V120.775V120.771V120.767V120.764V120.76V120.756V120.753V120.749V120.745V120.742V120.738V120.734V120.731V120.727V120.723V120.72V120.716V120.713V120.709V120.705V120.702V120.698V120.694V120.691V120.687V120.683V120.68V120.676V120.673V120.669V120.665V120.662V120.658V120.654V120.651V120.647V120.643V120.64V120.636V120.633V120.629V120.625V120.622V120.618V120.614V120.611V120.607V120.604V120.6V120.596V120.593V120.589V120.585V120.582V120.578V120.575V120.571V120.567V120.564V120.56V120.557V120.553V120.549V120.546V120.542V120.538V120.535V120.531V120.528V120.524V120.52V120.517V120.513V120.51V120.506V120.502V120.499V120.495V120.491V120.49C85.9939 119.668 86.0719 118.799 86.0733 117.85C86.0913 117.485 86.1049 117.13 86.0776 116.829C86.0493 116.516 85.9663 116.107 85.6621 115.76C85.3598 115.414 84.968 115.277 84.6653 115.205C84.3659 115.133 84.0038 115.094 83.6316 115.057L83.6316 115.057L83.6226 115.056L83.6207 115.056C82.9894 114.999 82.3543 114.941 81.654 114.883C81.5362 114.144 81.5445 113.388 81.6014 112.577C81.6235 112.262 81.6549 111.924 81.6875 111.574C81.7584 110.812 81.835 109.987 81.835 109.194C81.835 107.839 81.9568 106.527 82.0868 105.126C82.1322 104.636 82.1786 104.136 82.2211 103.62C82.4027 103.628 82.5801 103.635 82.7539 103.642L82.7897 103.643C83.2829 103.662 83.7465 103.681 84.226 103.718L84.2405 103.719L84.2551 103.72C84.6691 103.74 85.0654 103.744 85.4136 103.696C85.7702 103.646 86.1714 103.528 86.5099 103.226C86.8509 102.922 87.0101 102.536 87.0948 102.188C87.1766 101.853 87.2083 101.468 87.2279 101.076C87.3049 99.5348 87.382 98.0132 87.4591 96.4912L87.4592 96.4883C87.5362 94.9676 87.6132 93.4467 87.6902 91.9064C87.8445 88.8971 87.9976 85.9173 88.3028 82.9417L88.3028 82.9417L88.3037 82.9323C88.5977 79.7716 89.5412 76.9942 91.6655 74.6552C95.6222 70.4148 102.186 68.9775 107.495 71.201C113.01 73.5234 116.099 77.8324 116.753 83.5694L116.753 83.5753C117.399 88.952 115.135 93.4601 110.071 95.8855L110.067 95.8872C107.953 96.91 105.433 96.9379 102.949 96.3534L102.836 96.3268H102.72C102.678 96.3268 102.641 96.3225 102.542 96.2875C102.493 96.2701 102.444 96.251 102.373 96.2233C102.355 96.2161 102.335 96.2084 102.313 96.2C102.216 96.1619 102.096 96.1163 101.957 96.0699Z" stroke="white" stroke-width="2"/>
<path d="M148.756 38.3432C153.537 37.9155 158.05 37.4878 162.56 37.0604C163.373 36.9833 164.186 36.9063 165 36.8292L166.035 36.7314L165.897 35.7015C165.709 34.2881 164.646 33.5767 164.19 33.2712C164.111 33.2186 164.051 33.178 164.016 33.1479L164.002 33.1359L163.987 33.1244C163.061 32.3882 162.131 31.6544 161.199 30.9197C159.096 29.2614 156.988 27.5987 154.912 25.8954C153.007 24.282 151.49 22.3955 150.483 20.1644L150.477 20.1514L150.471 20.1385C149.193 17.5119 148.977 14.8279 149.692 12.0396L149.694 12.0324L149.696 12.0251C151.069 6.31458 154.706 2.81429 160.286 1.43575C167.659 -0.296734 174.297 3.29907 177.418 9.46035C178.333 11.357 178.923 13.2408 178.845 15.4083C175.789 15.652 172.694 15.9235 169.494 16.2043C167.814 16.3517 166.105 16.5016 164.358 16.6514L162.371 16.8217L163.696 18.3121C163.899 18.5406 164.058 18.7318 164.213 18.9177C164.285 19.0052 164.357 19.0914 164.432 19.1799C164.654 19.443 164.891 19.7073 165.189 19.9559C166.615 21.1504 168.021 22.3256 169.427 23.5002L169.428 23.501L169.432 23.5041C170.837 24.6783 172.241 25.852 173.665 27.0449L173.665 27.0449L173.676 27.0536C175.761 28.753 177.721 30.4345 179.088 32.5928L179.094 32.6027L179.101 32.6125C180.4 34.5617 181.042 36.4865 181.12 38.3982C181.198 40.3116 180.715 42.2769 179.663 44.3084C176.382 50.5039 171.048 53.3896 164.256 53.0976C157.567 52.8068 152.738 49.3585 150.108 43.0764L150.109 43.0763L150.103 43.0638C149.751 42.2549 149.497 41.3751 149.251 40.3881C149.17 40.065 149.089 39.7246 149.005 39.3721C148.925 39.0385 148.843 38.6941 148.756 38.3432Z" stroke="white" stroke-width="2"/>
<path d="M61.3861 103.648L60.4034 103.678L60.4165 104.661C60.455 107.547 60.4742 110.375 60.4935 113.208L60.4935 113.209C60.5107 115.736 60.5279 118.267 60.5588 120.839C60.4761 120.847 60.3945 120.855 60.3139 120.863C59.6645 120.927 59.0747 120.986 58.4111 120.986H58.3992L58.3873 120.986C56.776 121.024 55.1637 121.044 53.5445 121.063L53.541 121.063C51.9285 121.082 50.3091 121.101 48.6886 121.14C48.4582 121.141 48.2118 121.166 48.008 121.188C47.9563 121.193 47.9069 121.199 47.8592 121.204C47.6962 121.223 47.5542 121.238 47.4167 121.248C47.3957 121.25 47.3759 121.251 47.3572 121.252C47.3257 121.135 47.2981 120.988 47.2778 120.806C47.2368 120.437 47.2358 120.031 47.2358 119.597V119.587L47.2356 119.578C47.1586 115.573 47.1008 111.588 47.043 107.6L47.043 107.598C46.9852 103.611 46.9274 99.6217 46.8503 95.6123L46.8503 95.6111C46.7737 91.8587 46.6591 88.1072 46.5445 84.3521L46.5418 84.2637C46.4263 80.4803 46.3109 76.6932 46.234 72.8878C46.2327 72.5736 46.1764 72.271 46.1343 72.0512C46.1289 72.0232 46.1237 71.9962 46.1187 71.9702C46.0786 71.7618 46.0501 71.614 46.0379 71.4675C46.0282 71.3506 46.0297 71.2624 46.0505 71.1861C46.2005 71.1813 46.3506 71.1765 46.5009 71.1716C50.6651 71.0376 54.952 70.8996 59.356 70.7073C59.3825 72.3273 59.3984 73.9141 59.4141 75.4913L59.4147 75.5483C59.434 77.4741 59.4533 79.3862 59.4919 81.3185L59.5043 81.9373L60.0636 82.2022C60.9677 82.6305 61.8333 82.7391 62.6123 82.7605C62.9515 82.7698 63.2881 82.7625 63.5953 82.7559C63.6338 82.755 63.6717 82.7542 63.7092 82.7534C64.0569 82.7462 64.3697 82.7424 64.6745 82.7593L64.6894 82.7602L64.7043 82.7605C67.5112 82.8325 69.9337 83.6874 71.7909 85.6122C73.232 87.126 74.2666 88.8789 74.6098 90.8696L74.6135 90.891L74.6181 90.9121C74.9855 92.6023 75.1365 94.3858 75.2126 96.2125L75.213 96.222L75.2136 96.2314C75.3265 98.0939 75.313 99.9879 75.2987 101.995C75.296 102.381 75.2932 102.771 75.2913 103.166C71.9173 103.36 68.5061 103.452 65.0111 103.546C63.8132 103.578 62.6055 103.611 61.3861 103.648ZM47.1106 121.251C47.0972 121.249 47.0992 121.248 47.1124 121.251C47.1118 121.251 47.1112 121.251 47.1106 121.251Z" stroke="white" stroke-width="2"/>
<path d="M202.758 35.373L201.782 35.3582L201.743 36.3329C201.627 39.2257 201.531 42.0602 201.435 44.8913L201.435 44.8925C201.349 47.4154 201.263 49.9356 201.164 52.496C200.932 52.5028 200.704 52.5111 200.481 52.5192L200.461 52.5199C199.938 52.5389 199.448 52.5568 198.978 52.5571C197.371 52.5187 195.763 52.4613 194.147 52.4036L194.145 52.4035C192.528 52.3458 190.905 52.2878 189.281 52.2491L189.269 52.2488H189.257C189.065 52.2488 188.849 52.2588 188.657 52.2678L188.627 52.2692C188.415 52.279 188.224 52.2874 188.053 52.2874C188.039 52.2874 188.025 52.2873 188.012 52.2872C187.984 52.1665 187.964 52.0231 187.953 51.8515C187.935 51.5904 187.938 51.3388 187.942 51.049C187.943 50.9224 187.945 50.7886 187.945 50.6434C188.023 47.956 188.109 45.2737 188.195 42.5922C188.366 37.2963 188.536 32.004 188.639 26.6833C188.716 22.9046 188.774 19.1264 188.831 15.3414L188.833 15.2551C188.89 11.4978 188.947 7.73382 189.024 3.95124L189.024 3.94114V3.93104C189.024 3.63731 188.979 3.34726 188.946 3.13688C188.945 3.13092 188.945 3.12502 188.944 3.11918C188.906 2.87933 188.883 2.71861 188.879 2.57087C188.877 2.43997 188.893 2.36586 188.912 2.31781C191.163 2.35188 193.447 2.36999 195.761 2.38806L195.875 2.38895C197.972 2.40534 200.094 2.42191 202.243 2.4505C202.241 2.50994 202.238 2.56935 202.236 2.62871C202.098 6.19262 201.966 9.60548 201.897 13.0811L201.884 13.6984L202.431 13.986C203.324 14.4564 204.183 14.6116 204.963 14.6757C205.3 14.7034 205.635 14.7147 205.942 14.725C205.981 14.7263 206.02 14.7277 206.059 14.729C206.406 14.741 206.719 14.7546 207.024 14.7885L207.041 14.7904L207.058 14.7917C209.876 15.0084 212.22 15.9317 214.007 17.9938C215.362 19.5625 216.277 21.4013 216.629 23.4428L216.63 23.4442C216.923 25.133 217 26.9931 217 28.7441C217 30.3688 216.937 32.0075 216.871 33.7195C216.847 34.3568 216.822 35.0044 216.8 35.6651C214.66 35.6281 212.53 35.5788 210.391 35.5292L210.308 35.5273C207.813 35.4695 205.305 35.4116 202.758 35.373ZM187.73 52.2682C187.73 52.2682 187.732 52.2684 187.734 52.269C187.732 52.2685 187.73 52.2682 187.73 52.2682Z" stroke="white" stroke-width="2"/>
<path d="M129.384 15.6174L129.384 15.6174L129.384 15.6251C129.307 19.6346 129.249 23.6244 129.191 27.6115L129.191 27.6126C129.134 31.6008 129.076 35.5862 128.999 39.5905L128.999 39.6001V39.6097C128.999 39.817 129.048 40.0089 129.071 40.1C129.073 40.1081 129.075 40.1155 129.077 40.122C129.103 40.2297 129.134 40.3533 129.166 40.5447L129.306 41.3803H130.153C132.471 41.3803 134.808 41.3991 137.179 41.4182L137.263 41.4188C139.326 41.4354 141.413 41.452 143.529 41.4563C143.469 43.3794 143.419 45.278 143.37 47.1733L143.37 47.1742C143.32 49.1421 143.269 51.1065 143.205 53.0962C136.598 53.0194 129.985 52.9427 123.371 52.9427C122.284 52.9427 121.198 52.9621 120.122 52.9813L120.117 52.9814C119.037 53.0007 117.967 53.0198 116.899 53.0198C116.587 53.0198 116.299 53.0193 116.032 53.0112C116.007 52.5993 115.985 52.0463 115.966 51.366C115.926 49.9708 115.9 48.0693 115.885 45.815C115.856 41.3081 115.876 35.4115 115.933 29.3801C116.04 18.2365 116.278 6.7274 116.58 2.62048C118.719 2.62436 120.86 2.64096 123.019 2.6577L123.075 2.65813C125.234 2.67486 127.41 2.69163 129.615 2.69574V2.69915V2.71015V2.72114V2.73214V2.74312V2.75411V2.76509V2.77607V2.78705V2.79802V2.80899V2.81996V2.83093V2.84189V2.85285V2.86381V2.87476V2.88571V2.89666V2.90761V2.91855V2.92949V2.94043V2.95136V2.96229V2.97322V2.98415V2.99507V3.00599V3.01691V3.02783V3.03874V3.04965V3.06056V3.07146V3.08237V3.09327V3.10416V3.11506V3.12595V3.13684V3.14772V3.15861V3.16949V3.18037V3.19124V3.20211V3.21299V3.22385V3.23472V3.24558V3.25644V3.2673V3.27816V3.28901V3.29986V3.31071V3.32155V3.33239V3.34323V3.35407V3.36491V3.37574V3.38657V3.3974V3.40822V3.41904V3.42986V3.44068V3.4515V3.46231V3.47312V3.48393V3.49474V3.50554V3.51634V3.52714V3.53793V3.54873V3.55952V3.57031V3.58109V3.59188V3.60266V3.61344V3.62422V3.63499V3.64577V3.65654V3.6673V3.67807V3.68883V3.69959V3.71035V3.72111V3.73186V3.74262V3.75337V3.76411V3.77486V3.7856V3.79634V3.80708V3.81782V3.82855V3.83929V3.85002V3.86074V3.87147V3.88219V3.89291V3.90363V3.91435V3.92506V3.93578V3.94649V3.9572V3.9679V3.97861V3.98931V4.00001V4.01071V4.0214V4.0321V4.04279V4.05348V4.06417V4.07485V4.08554V4.09622V4.1069V4.11758V4.12825V4.13892V4.1496V4.16027V4.17093V4.1816V4.19226V4.20292V4.21358V4.22424V4.2349V4.24555V4.2562V4.26685V4.2775V4.28815V4.29879V4.30944V4.32008V4.33072V4.34135V4.35199V4.36262V4.37325V4.38388V4.39451V4.40514V4.41576V4.42638V4.437V4.44762V4.45824V4.46885V4.47947V4.49008V4.50069V4.5113V4.5219V4.53251V4.54311V4.55371V4.56431V4.57491V4.5855V4.5961V4.60669V4.61728V4.62787V4.63846V4.64904V4.65963V4.67021V4.68079V4.69137V4.70195V4.71252V4.7231V4.73367V4.74424V4.75481V4.76538V4.77595V4.78651V4.79707V4.80764V4.8182V4.82875V4.83931V4.84987V4.86042V4.87097V4.88152V4.89207V4.90262V4.91317V4.92371V4.93426V4.9448V4.95534V4.96588V4.97641V4.98695V4.99749V5.00802V5.01855V5.02908V5.03961V5.05014V5.06066V5.07119V5.08171V5.09223V5.10275V5.11327V5.12379V5.13431V5.14482V5.15534V5.16585V5.17636V5.18687V5.19738V5.20789V5.21839V5.2289V5.2394V5.2499V5.2604V5.2709V5.2814V5.2919V5.3024V5.31289V5.32338V5.33388V5.34437V5.35486V5.36535V5.37583V5.38632V5.3968V5.40729V5.41777V5.42825V5.43873V5.44921V5.45969V5.47017V5.48064V5.49112V5.50159V5.51206V5.52254V5.53301V5.54347V5.55394V5.56441V5.57488V5.58534V5.59581V5.60627V5.61673V5.62719V5.63765V5.64811V5.65857V5.66902V5.67948V5.68994V5.70039V5.71084V5.72129V5.73174V5.7422V5.75264V5.76309V5.77354V5.78399V5.79443V5.80488V5.81532V5.82576V5.8362V5.84664V5.85708V5.86752V5.87796V5.8884V5.89884V5.90927V5.91971V5.93014V5.94057V5.95101V5.96144V5.97187V5.9823V5.99273V6.00316V6.01358V6.02401V6.03444V6.04486V6.05529V6.06571V6.07614V6.08656V6.09698V6.1074V6.11782V6.12824V6.13866V6.14908V6.1595V6.16991V6.18033V6.19074V6.20116V6.21157V6.22199V6.2324V6.24281V6.25323V6.26364V6.27405V6.28446V6.29487V6.30528V6.31568V6.32609V6.3365V6.34691V6.35731V6.36772V6.37812V6.38853V6.39893V6.40934V6.41974V6.43014V6.44054V6.45094V6.46135V6.47175V6.48215V6.49255V6.50294V6.51334V6.52374V6.53414V6.54454V6.55493V6.56533V6.57573V6.58612V6.59652V6.60691V6.61731V6.6277V6.6381V6.64849V6.65888V6.66928V6.67967V6.69006V6.70045V6.71085V6.72124V6.73163V6.74202V6.75241V6.7628V6.77319V6.78358V6.79397V6.80436V6.81475V6.82514V6.83553V6.84591V6.8563V6.86669V6.87708V6.88747V6.89785V6.90824V6.91863V6.92901V6.9394V6.94979V6.96017V6.97056V6.98095V6.99133V7.00172V7.0121V7.02249V7.03287V7.04326V7.05364V7.06403V7.07442V7.0848V7.09519V7.10557V7.11596V7.12634V7.13673V7.14711V7.15438C129.577 8.57232 129.538 9.97128 129.5 11.3704L129.5 11.3787C129.461 12.785 129.423 14.1915 129.384 15.6174Z" stroke="white" stroke-width="2"/>
<path d="M90.071 52.7526C87.9617 52.8018 85.842 52.8513 83.6843 52.9129V52.9121V52.9046V52.8971V52.8896V52.8821V52.8745V52.8671V52.8596V52.8521V52.8446V52.8371V52.8296V52.8222V52.8147V52.8072V52.7997V52.7923V52.7848V52.7774V52.7699V52.7625V52.7551V52.7476V52.7402V52.7327V52.7253V52.7179V52.7105V52.7031V52.6957V52.6883V52.6808V52.6734V52.666V52.6587V52.6513V52.6439V52.6365V52.6291V52.6217V52.6144V52.607V52.5996V52.5923V52.5849V52.5776V52.5702V52.5629V52.5555V52.5482V52.5408V52.5335V52.5262V52.5189V52.5115V52.5042V52.4969V52.4896V52.4823V52.475V52.4677V52.4604V52.4531V52.4458V52.4385V52.4312V52.4239V52.4166V52.4093V52.4021V52.3948V52.3875V52.3803V52.373V52.3657V52.3585V52.3512V52.344V52.3368V52.3295V52.3223V52.315V52.3078V52.3006V52.2933V52.2861V52.2789V52.2717V52.2645V52.2573V52.25V52.2428V52.2356V52.2284V52.2212V52.214V52.2069V52.1997V52.1925V52.1853V52.1781V52.1709V52.1638V52.1566V52.1494V52.1423V52.1351V52.1279V52.1208V52.1136V52.1065V52.0993V52.0922V52.085V52.0779V52.0708V52.0636V52.0565V52.0494V52.0422V52.0351V52.028V52.0209V52.0138V52.0067V51.9995V51.9924V51.9853V51.9782V51.9711V51.964V51.9569V51.9498V51.9428V51.9357V51.9286V51.9215V51.9144V51.9074V51.9003V51.8932V51.8861V51.8791V51.872V51.8649V51.8579V51.8508V51.8438V51.8367V51.8297V51.8226V51.8156V51.8085V51.8015V51.7945V51.7874V51.7804V51.7734V51.7663V51.7593V51.7523V51.7453V51.7382V51.7312V51.7242V51.7172V51.7102V51.7032V51.6962V51.6892V51.6822V51.6752V51.6682V51.6612V51.6542V51.6472V51.6402V51.6332V51.6262V51.6192V51.6123V51.6053V51.5983V51.5913V51.5844V51.5774V51.5704V51.5635V51.5565V51.5495V51.5426V51.5356V51.5287V51.5217V51.5147V51.5078V51.5009V51.4939V51.487V51.48V51.4731V51.4661V51.4592V51.4523V51.4453V51.4384V51.4315V51.4245V51.4176V51.4107V51.4038V51.3968V51.3899V51.383V51.3761V51.3692V51.3623V51.3554V51.3484V51.3415V51.3346V51.3277V51.3208V51.3139V51.307V51.3001V51.2932V51.2863V51.2794V51.2725V51.2657V51.2588V51.2519V51.245V51.2381V51.2312V51.2244V51.2175V51.2106V51.2037V51.1968V51.19V51.1831V51.1762V51.1694V51.1625V51.1556V51.1488V51.1419V51.135V51.1282V51.1213V51.1145V51.1076V51.1007V51.0939V51.087V51.0802V51.0733V51.0665V51.0596V51.0528V51.0459V51.0391V51.0323V51.0254V51.0186V51.0117V51.0049V50.9981V50.9912V50.9844V50.9776V50.9707V50.9639V50.9571V50.9502V50.9434V50.9366V50.9298V50.9229V50.9161V50.9093V50.9025V50.8956V50.8888V50.882V50.8752V50.8684V50.8615V50.8547V50.8479V50.8411V50.8343V50.8275V50.8207V50.8139V50.8071V50.8002V50.7934V50.7866V50.7798V50.773V50.7662V50.7594V50.7526V50.7458V50.739V50.7322V50.7254V50.7186V50.7118V50.705V50.6982V50.6914V50.6846V50.6778V50.671V50.6643V50.6575V50.6507V50.6439V50.6371V50.6303V50.6235V50.6167V50.6099V50.6031V50.5964V50.5896V50.5828V50.576V50.5692V50.5624V50.5556V50.5489V50.5421V50.5353V50.5285V50.5217V50.5149V50.5082V50.5014V50.4946V50.4878V50.4811V50.4743V50.4675V50.4607V50.4539V50.4472V50.4404V50.4336V50.4268V50.4201V50.4133V50.4065V50.3997V50.3929V50.3862V50.3794V50.3726V50.3659V50.3591V50.3523V50.3455V50.3388V50.332V50.3252V50.3184V50.3117V50.3049V50.2981V50.2913V50.2846V50.2778V50.271V50.2642V50.2575V50.2507V50.2439V50.2337L83.6841 50.2235C83.6071 46.4506 83.5493 42.6773 83.4915 38.9009L83.4915 38.8997C83.4337 35.1257 83.3759 31.3488 83.2989 27.5714C83.2217 22.0161 83.0674 16.4621 82.9133 10.9927L82.9133 10.9923C82.8746 9.63665 82.8165 8.28217 82.7588 6.93599L82.7587 6.93246C82.701 5.58799 82.6438 4.25176 82.6055 2.91675C82.6062 2.80531 82.6158 2.70321 82.6318 2.53609C86.8487 2.15743 90.9625 1.96335 95.3401 2.05534C95.3777 4.15364 95.428 6.21319 95.4781 8.26908L95.4782 8.27114C95.536 10.6413 95.5937 13.0067 95.6321 15.4291L95.6463 16.3247L96.5381 16.4088C99.2037 16.6603 101.895 16.6215 104.574 16.5829C105.717 16.5665 106.857 16.5501 107.992 16.5562C108.074 19.5003 108.061 22.4112 108.048 25.3583C108.045 26.1763 108.041 26.9971 108.039 27.8221C106.403 28.0614 104.747 28.0898 103.042 28.0816C102.728 28.0801 102.412 28.0773 102.094 28.0745C100.425 28.0597 98.7022 28.0444 96.9968 28.2116L96.0769 28.3018L96.0945 29.2259C96.1699 33.1817 96.2636 37.1189 96.3577 41.0708L96.3643 41.3482C96.4529 45.07 96.5415 48.8059 96.6151 52.5874C94.4527 52.6501 92.3138 52.7002 90.1646 52.7504L90.071 52.7526Z" stroke="white" stroke-width="2"/>
<path d="M58.823 1.9978L58.8238 1.99772C65.6514 1.27902 73.1106 6.19731 74.7719 13.6217C75.3622 16.4296 75.3656 19.2521 75.3656 22.1945C75.3656 26.5071 75.3464 30.8009 75.3271 35.0974C75.3078 39.393 75.2886 43.6913 75.2886 48.0092C75.2886 49.0079 75.36 50.0052 75.4291 50.9702C75.4626 51.4383 75.4956 51.8988 75.5196 52.3482C75.5175 52.5225 75.4918 52.7168 75.4476 52.9734C75.4453 52.9866 75.443 53 75.4406 53.0137C70.4916 52.9792 65.6081 52.961 60.7265 52.9428H60.7264C55.8865 52.9247 51.0485 52.9067 46.1474 52.8728C46.1399 52.4458 46.1288 52.0324 46.1178 51.6325L46.1156 51.5524C46.097 50.8755 46.0797 50.2418 46.0797 49.6275V49.5846V49.5417V49.4988V49.4559V49.413V49.3701V49.3272V49.2843V49.2414V49.1985V49.1556V49.1127V49.0698V49.027V48.9841V48.9412V48.8983V48.8554V48.8125V48.7696V48.7267V48.6838V48.6409V48.598V48.5551V48.5122V48.4693V48.4264V48.3835V48.3406V48.2978V48.2549V48.212V48.1691V48.1262V48.0833V48.0404V47.9975V47.9546V47.9117V47.8688V47.8259V47.783V47.7401V47.6972V47.6543V47.6114V47.5686V47.5257V47.4828V47.4399V47.397V47.3541V47.3112V47.2683V47.2254V47.1825V47.1396V47.0967V47.0538V47.0109V46.968V46.9251V46.8822V46.8393V46.7965V46.7536V46.7107V46.6678V46.6249V46.582V46.5391V46.4962V46.4533V46.4104V46.3675V46.3246V46.2817V46.2388V46.1959V46.153V46.1101V46.0673V46.0244V45.9815V45.9386V45.8957V45.8528V45.8099V45.767V45.7241V45.6812V45.6383V45.5954V45.5525V45.5096V45.4667V45.4238V45.3809V45.3381V45.2952V45.2523V45.2094V45.1665V45.1236V45.0807V45.0378V44.9949V44.952V44.9091V44.8662V44.8233V44.7804V44.7375V44.6946V44.6517V44.6089V44.566V44.5231V44.4802V44.4373V44.3944V44.3515V44.3086V44.2657V44.2228V44.1799V44.137V44.0941V44.0512V44.0083V43.9654V43.9225V43.8797V43.8368V43.7939V43.751V43.7081V43.6652V43.6223V43.5794V43.5365V43.4936V43.4507V43.4078V43.3649V43.322V43.2791V43.2362V43.1933V43.1504V43.1076V43.0647V43.0218V42.9789V42.936V42.8931V42.8502V42.8073V42.7644V42.7215V42.6786V42.6357V42.5928V42.5499V42.507V42.4641V42.4212V42.3784V42.3355V42.2926V42.2497V42.2068V42.1639V42.121V42.0781V42.0352V41.9923V41.9494V41.9065V41.8636V41.8207V41.7778V41.7349V41.692V41.6492V41.6063V41.5634V41.5205V41.4776V41.4347V41.3918V41.3489V41.306V41.2631V41.2202V41.1773V41.1344V41.0915V41.0486V41.0057V40.9628V40.9199V40.8771V40.8342V40.7913V40.7484V40.7055V40.6626V40.6197V40.5768V40.5339V40.491V40.4481V40.4052V40.3623V40.3194V40.2765V40.2336V40.1907V40.1479V40.105V40.0621V40.0192V39.9763V39.9334V39.8905V39.8476V39.8047V39.7618V39.7189V39.676V39.6331V39.5902V39.5473V39.5044V39.4615V39.4187V39.3758V39.3329V39.29V39.2471V39.2042V39.1613V39.1184V39.0755V39.0326V38.9897V38.9468V38.9039V38.861V38.8181V38.7752V38.7323V38.6895V38.6466V38.6037V38.5608V38.5179V38.475V38.4321V38.3892V38.3463V38.3034V38.2605V38.2176V38.1747V38.1318V38.0889V38.046V38.0031V37.9603V37.9174V37.8745V37.8316V37.7887V37.7458V37.7029V37.66V37.6171V37.5742V37.5313V37.4884V37.4455V37.4026V37.3597V37.3168V37.2739V37.231V37.1882V37.1453V37.1024V37.0595V37.0166V36.9737V36.9308V36.8879V36.845V36.8021V36.7592V36.7163V36.6734V36.6305V36.5876V36.5447V36.5018V36.459V36.4161V36.3732V36.3303V36.2874V36.2445V36.2016V36.1587V36.1158V36.0729V36.03V35.9871V35.9442V35.9013V35.8584V35.8155V35.7726V35.7298V35.6869V35.644V35.6011V35.5582V35.5153V35.4724V35.4295V35.3866V35.3437V35.3008V35.2579V35.215V35.1721V35.1292V35.0863V35.0434V35.0005V34.9577V34.9148V34.8719V34.829V34.7861V34.7432V34.7003V34.6574V34.6145V34.5716V34.5287V34.4858V34.4429V34.4V34.3571V34.3142V34.2714V34.2285V34.1856V34.1427V34.0998V34.0569V34.014V33.9711V33.9282V33.8853V33.8424V33.7995V33.7566V33.7137V33.6708V33.6279V33.585V33.5421V33.4993V33.4564V33.4135V33.3706V33.3277V33.2848V33.2419V33.199V33.1561V33.1132V33.0703V33.0274V32.9845V32.9416V32.8987V32.8558V32.8129V32.7701V32.7272V32.6843V32.6414V32.5985V32.5556V32.5127V32.4698V32.4269V32.384V32.3411V32.2982V32.2553V32.2124V32.1695V32.1266V32.0837V32.0409V31.998V31.9551V31.9122V31.8693V31.8264V31.7835V31.7406V31.6977V31.6548V31.6119V31.569V31.5261V31.4832V31.4403V31.3974V31.3545V31.3116V31.2688V31.2259V31.183V31.1401V31.0972V31.0543V31.0114V30.9685V30.9256V30.8827V30.8398V30.7969V30.754V30.7111V30.6682V30.6253V30.5824V30.5396V30.4967V30.4538V30.4109V30.368V30.3251V30.2822V30.2393V30.1964V30.1535V30.1106V30.0677V30.0248V29.9819V29.939V29.8961V29.8532V29.8104V29.7675V29.7246V29.6817V29.6388V29.5959V29.553V29.5101V29.4672V29.4243V29.3814V29.3385V29.2956V29.2527V29.2098V29.1669V29.124V29.0812V29.0383V28.9954V28.9525V28.9096V28.8667V28.8238V28.7809V28.738V28.6951V28.6522V28.6093V28.5664V28.5235V28.4806V28.4377V28.3948V28.352V28.3091V28.2662V28.2233V28.1804V28.1375V28.0946V28.0517V28.0088V27.9659V27.923V27.8801V27.8372V27.7943V27.7514V27.7085V27.6656C46.0797 26.3952 46.0711 25.1235 46.0625 23.8529C46.0454 21.3239 46.0284 18.7993 46.0791 16.2976C46.1536 14.9036 46.3747 13.4264 46.671 12.0916C48.0909 6.07089 53.9584 2.50604 58.823 1.9978Z" stroke="white" stroke-width="2"/>
</svg>
