<svg width="152" height="44" viewBox="0 0 152 44" fill="none" xmlns="http://www.w3.org/2000/svg">
<path d="M126.504 1.4339L126.794 1.45146L126.794 1.41286C127.795 1.34714 128.397 1.38113 128.744 1.43375L128.681 1.95851L129.85 1.91477C135.264 1.71221 139.968 3.2288 143.337 6.95425L143.39 7.01331L143.452 7.06318C152.082 13.9943 153.967 27.0096 145.658 35.9152L145.599 35.9787L145.552 36.0513C142.95 40.0432 138.861 42.0288 133.692 42.2293L133.6 42.2329L133.51 42.2533C132.574 42.4652 132.044 42.6276 131.733 42.7673C131.721 42.7727 131.709 42.7786 131.695 42.7849C131.363 42.7459 130.807 42.698 129.863 42.6508L129.768 42.6461L129.674 42.6592C129.187 42.7273 127.251 42.7922 124.1 42.8436C120.995 42.8943 116.797 42.9317 111.87 42.9572C102.015 43.0081 89.2519 43.0114 76.4903 42.9786C63.7288 42.9457 50.9714 42.8766 41.129 42.7829C36.2075 42.7361 32.0169 42.6831 28.9198 42.6254C25.7858 42.567 23.8452 42.5044 23.3563 42.4462L23.2572 42.4344L23.1578 42.4424C21.258 42.5955 20.4488 42.4882 19.7566 42.2717C19.4214 42.1668 19.1017 42.0331 18.667 41.8512C18.6115 41.828 18.5541 41.804 18.4946 41.7792C17.9802 41.5647 17.3563 41.3113 16.5167 41.0364L16.4269 41.007L16.3331 40.9949C10.9463 40.3018 6.88886 37.2454 4.41797 32.8645L4.32258 32.6953L4.17082 32.5742C2.38049 31.1451 1.64995 28.8729 1.83126 26.5933L1.84593 26.4089L1.79365 26.2315C-0.593449 18.1284 2.555 9.95082 9.22066 5.56115L9.30887 5.50306L9.383 5.42782C9.66437 5.14224 9.92161 4.87836 10.1596 4.63422C11.3442 3.41909 12.052 2.693 12.8857 2.21447C13.8036 1.68763 14.9385 1.443 17.2888 1.4943L17.3847 1.49639L17.4793 1.48022C17.7127 1.4403 18.3181 1.39398 19.3262 1.35018C20.3076 1.30754 21.6107 1.26923 23.1928 1.23507C26.3559 1.16676 30.6159 1.1154 35.6108 1.07841C45.5994 1.00442 58.5128 0.987958 71.4378 1.00768C95.4073 1.04426 119.348 1.20537 124.794 1.35255L124.794 1.60187L125.896 1.48926C126.112 1.46718 126.314 1.44888 126.504 1.4339ZM132.863 43.4031C132.863 43.403 132.866 43.4107 132.873 43.4244C132.872 43.4231 132.871 43.422 132.871 43.4211L132.865 43.4075L132.863 43.4043L132.863 43.4031ZM132.162 42.8589C132.174 42.8615 132.178 42.8626 132.168 42.8603L132.162 42.8589Z" stroke="white" stroke-width="2"/>
<path d="M59.6036 12.8028C59.63 13.1466 59.6829 13.4111 59.6829 13.6756C59.7358 15.4742 59.7623 17.2728 59.8152 19.045C59.8681 20.7378 59.8945 22.4306 59.9474 24.0969C59.9739 24.5201 60.0797 24.8639 60.5557 25.0491C60.926 25.1813 61.2699 25.4194 61.6137 25.6045C61.9576 25.7897 62.1427 26.0013 62.1427 26.4245C62.1427 27.6147 62.1692 28.7785 62.1956 29.9688C62.1956 30.2862 62.1956 30.6036 62.1956 31.0003C61.0054 30.4978 60.0003 29.7836 58.8894 29.2546C58.7572 29.3869 58.6514 29.5191 58.5456 29.6249C57.0644 31.0003 55.3716 31.5293 53.3614 30.9474C50.9809 30.2597 49.4468 28.0379 49.4203 25.5781C49.4203 22.4835 49.3145 19.4153 49.2616 16.3206C49.2352 15.342 49.2087 14.3898 49.1558 13.4111C49.1558 13.0144 49.2087 12.935 49.5526 12.935C50.2932 12.935 51.0073 12.935 51.7479 12.9086C52.3298 12.9086 52.9382 12.8821 53.5201 12.8557C55.16 12.8821 56.7999 12.8292 58.4398 12.8028C58.8101 12.7763 59.1804 12.8028 59.6036 12.8028Z" fill="white"/>
<path d="M89.7036 31.1857C86.1329 31.0535 82.6151 30.9477 79.0443 30.8154C79.0443 30.26 79.0443 29.8103 79.0708 29.3607C79.1501 26.8479 79.2295 24.3352 79.3088 21.8224C79.3617 20.5264 79.3617 19.2039 79.4411 17.9079C79.4675 17.4053 79.5733 16.9028 79.6791 16.4267C80.2875 14.2049 82.4828 12.9617 84.255 12.8295C86.7941 12.6443 89.4391 14.5223 89.9681 17.2731C90.1533 18.2782 90.1268 19.2833 90.1004 20.2884C90.021 23.2507 89.8888 26.1867 89.8094 29.1491C89.783 29.6252 89.8094 30.1277 89.8094 30.6038C89.783 30.789 89.7301 30.9741 89.7036 31.1857Z" fill="white"/>
<path d="M68.8611 25.4987C68.914 25.8955 68.9404 26.16 68.9933 26.4774C70.21 25.2078 70.2629 23.4621 68.8082 22.4305C67.9882 21.8751 67.1683 21.4254 66.1896 21.2667C66.0045 21.2403 65.8193 21.1874 65.6342 21.1345C65.3697 21.0816 65.211 20.9229 65.1581 20.6055C64.8936 19.0714 64.8936 17.5637 65.5019 16.1354C66.1896 14.4691 67.4857 13.5169 69.2049 13.0673C71.6383 12.4325 74.6007 13.9401 75.5529 15.8445C76.2142 17.167 76.4522 18.5953 76.2671 20.0765C76.0819 21.5577 75.5265 22.9331 74.8917 24.2556C74.5743 24.9433 74.0982 25.5252 73.6221 26.2658C73.8601 26.2922 74.0717 26.2922 74.2833 26.3187C74.8388 26.3451 75.3678 26.4245 75.8703 26.689C76.6903 27.1122 76.9548 27.9057 77.0341 28.7256C77.087 29.334 77.0077 29.9688 76.9812 30.6036C76.9812 30.6829 76.9283 30.7623 76.8754 30.8416C75.2355 30.8681 73.5956 30.921 71.9293 30.9474C71.9028 30.7094 71.8764 30.5507 71.8764 30.392C71.9028 30.0481 71.7441 29.863 71.4003 29.863C70.6332 29.863 69.8397 29.863 69.0198 29.863C68.9933 30.2597 68.9404 30.6036 68.914 30.9474C68.4908 31.1061 65.2639 31.1855 64.2323 31.0797C64.1794 29.2811 64.153 27.4825 64.1001 25.6839C65.7664 25.3929 67.3005 25.5516 68.8611 25.4987Z" fill="white"/>
<path d="M110.123 21.346C108.404 21.346 106.711 21.346 105.045 21.346C104.992 21.2402 104.939 21.1873 104.939 21.1344C104.939 19.9441 104.886 18.7803 104.939 17.5901C105.045 15.0509 107.081 13.2788 109.356 12.9614C111.049 12.7233 112.556 13.173 113.799 14.2839C114.805 15.1831 115.334 16.3205 115.36 17.6959C115.386 19.4151 115.439 21.1608 115.492 22.8801C115.492 22.9594 115.519 23.0388 115.545 23.171C116.524 23.171 117.502 23.171 118.508 23.171C118.534 24.6258 118.587 26.0276 118.613 27.5088C117.582 27.5353 116.63 27.5882 115.598 27.6146C115.598 28.8049 115.598 29.9158 115.598 31.0796C113.879 31.0796 112.212 31.0796 110.52 31.0796C110.493 30.9738 110.44 30.8415 110.44 30.7093C110.414 29.3603 110.414 28.0114 110.387 26.6624C110.361 25.1019 110.308 23.5413 110.255 21.9808C110.229 21.7692 110.149 21.584 110.123 21.346Z" fill="white"/>
<path d="M39.6074 25.9484C42.1466 26.0806 44.5271 25.7632 46.9869 25.9484C46.9869 27.3767 46.9869 28.805 46.9869 30.3126C46.8282 30.3391 46.5902 30.4184 46.3521 30.4184C44.7122 30.4449 43.0459 30.4449 41.406 30.4713C39.2371 30.4978 37.0682 30.5507 34.8993 30.6036C34.6612 30.6036 34.4496 30.6036 34.1587 30.6036C34.1322 29.8365 34.0793 29.0959 34.0529 28.3818C34.0264 27.8528 34 27.3502 34 26.8477C34 26.5832 34.0529 26.2922 34.1851 26.0806C35.8515 23.1712 37.5178 20.2617 39.1842 17.3522C39.2106 17.2993 39.2106 17.2464 39.2371 17.0877C38.47 16.7967 37.7294 16.5322 36.9095 16.2413C37.4914 14.813 38.0733 13.4376 38.6552 12.0093C41.0621 12.7499 43.4426 13.4905 45.876 14.2575C43.7865 18.1457 41.7234 21.9809 39.6074 25.9484Z" fill="white"/>
<path d="M102.743 19.8385C101.051 19.9179 99.4107 19.9972 97.6914 20.0766C97.8237 23.4886 97.9824 26.8742 98.1146 30.2334C97.5592 30.4185 93.4595 30.6301 92.666 30.4979C92.6395 29.8631 92.5866 29.2283 92.5602 28.567C92.5073 27.0065 92.4808 25.4459 92.4279 23.8854C92.3486 21.9016 92.2428 19.9179 92.1899 17.9341C92.1634 17.0348 92.1899 16.1091 92.5337 15.2627C93.3272 13.3847 94.9671 12.1151 97.0566 12.0093C98.5907 11.93 99.9397 12.3532 101.077 13.3847C102.029 14.2576 102.558 15.3685 102.638 16.6645C102.69 17.5374 102.77 18.4367 102.823 19.3095C102.823 19.4682 102.796 19.574 102.743 19.8385Z" fill="white"/>
</svg>
