<svg width="79" height="80" viewBox="0 0 79 80" fill="none" xmlns="http://www.w3.org/2000/svg">
<path d="M48.0647 39.0243C48.7314 39.4092 48.7314 40.3714 48.0647 40.7563L34.7146 48.464C34.0479 48.8489 33.2146 48.3678 33.2146 47.598L33.2146 32.1826C33.2146 31.4128 34.0479 30.9317 34.7146 31.3166L48.0647 39.0243Z" fill="white"/>
<path d="M64.9396 50.5248L64.9395 50.5248L64.936 50.5337C59.9923 63.0774 46.0558 69.2881 33.0662 65.0758L33.0641 65.0751C23.4158 61.9695 16.7229 55.8246 13.4523 46.3445C10.3558 36.8716 12.5721 28.4614 17.4412 22.7642C27.4863 12.0878 40.8315 10.1652 51.8758 16.7192C57.1542 19.8975 61.3989 23.9047 64.117 29.3303C67.544 36.2274 67.8464 43.3515 64.9396 50.5248Z" stroke="white" stroke-width="2"/>
</svg>
