<svg width="152" height="44" viewBox="0 0 152 44" fill="none" xmlns="http://www.w3.org/2000/svg">
<path d="M126.504 1.4339L126.794 1.45146L126.794 1.41286C127.795 1.34714 128.397 1.38113 128.744 1.43375L128.681 1.95851L129.85 1.91477C135.264 1.71221 139.968 3.2288 143.337 6.95425L143.39 7.01331L143.452 7.06318C152.082 13.9943 153.967 27.0096 145.658 35.9152L145.599 35.9787L145.552 36.0513C142.95 40.0432 138.861 42.0288 133.692 42.2293L133.6 42.2329L133.51 42.2533C132.574 42.4652 132.044 42.6276 131.733 42.7673C131.721 42.7727 131.709 42.7786 131.695 42.7849C131.363 42.7459 130.807 42.698 129.863 42.6508L129.768 42.6461L129.674 42.6592C129.187 42.7273 127.251 42.7922 124.1 42.8436C120.995 42.8943 116.797 42.9317 111.87 42.9572C102.015 43.0081 89.2519 43.0114 76.4903 42.9786C63.7288 42.9457 50.9714 42.8766 41.129 42.7829C36.2075 42.7361 32.0169 42.6831 28.9198 42.6254C25.7858 42.567 23.8452 42.5044 23.3563 42.4462L23.2572 42.4344L23.1578 42.4424C21.258 42.5955 20.4488 42.4882 19.7566 42.2717C19.4214 42.1668 19.1017 42.0331 18.667 41.8512C18.6115 41.828 18.5541 41.804 18.4946 41.7792C17.9802 41.5647 17.3563 41.3113 16.5167 41.0364L16.4269 41.007L16.3331 40.9949C10.9463 40.3018 6.88886 37.2454 4.41797 32.8645L4.32258 32.6953L4.17082 32.5742C2.38049 31.1451 1.64995 28.8729 1.83126 26.5933L1.84593 26.4089L1.79365 26.2315C-0.593449 18.1284 2.555 9.95082 9.22066 5.56115L9.30887 5.50306L9.383 5.42782C9.66437 5.14224 9.92161 4.87836 10.1596 4.63422C11.3442 3.41909 12.052 2.693 12.8857 2.21447C13.8036 1.68763 14.9385 1.443 17.2888 1.4943L17.3847 1.49639L17.4793 1.48022C17.7127 1.4403 18.3181 1.39398 19.3262 1.35018C20.3076 1.30754 21.6107 1.26923 23.1928 1.23507C26.3559 1.16676 30.6159 1.1154 35.6108 1.07841C45.5994 1.00442 58.5128 0.987958 71.4378 1.00768C95.4073 1.04426 119.348 1.20537 124.794 1.35255L124.794 1.60187L125.896 1.48926C126.112 1.46718 126.314 1.44888 126.504 1.4339ZM132.863 43.4031C132.863 43.403 132.866 43.4107 132.873 43.4244C132.872 43.4231 132.871 43.422 132.871 43.4211L132.865 43.4075L132.863 43.4043L132.863 43.4031ZM132.162 42.8589C132.174 42.8615 132.178 42.8626 132.168 42.8603L132.162 42.8589Z" stroke="white" stroke-width="2"/>
<path d="M73.7585 13.1279C73.7823 13.4525 73.806 13.7021 73.806 13.9518C73.7823 15.6495 73.7823 17.3472 73.7585 19.0449C73.7347 20.6428 73.7347 22.2406 73.711 23.8135C73.711 24.2129 73.806 24.5375 74.2101 24.7123C74.5428 24.8621 74.8281 25.0868 75.1371 25.2615C75.446 25.4363 75.6124 25.661 75.5887 26.0604C75.5411 27.1839 75.5411 28.2824 75.5174 29.4059C75.5174 29.7055 75.4936 30.0051 75.4936 30.3796C74.424 29.8803 73.5683 29.1563 72.5701 28.632C72.4512 28.7568 72.3562 28.8567 72.2373 28.9565C70.8587 30.2049 69.3138 30.6542 67.5312 30.0301C65.4158 29.3061 64.0847 27.159 64.156 24.8371C64.2511 21.916 64.2511 19.02 64.2987 16.0989C64.3224 15.1751 64.2987 14.2764 64.2987 13.3526C64.2987 12.9781 64.37 12.9032 64.679 12.9282C65.3445 12.9531 65.9862 12.9781 66.6517 12.9781C67.1746 12.9781 67.7213 13.0031 68.2442 13.0031C69.7179 13.028 71.1915 13.028 72.6889 13.053C73.0692 13.1029 73.402 13.1279 73.7585 13.1279Z" fill="white"/>
<path d="M37.8921 30.1049C34.6833 30.1798 31.5221 30.2547 28.3134 30.3296C28.2896 29.8053 28.2658 29.3809 28.2658 28.9565C28.2183 26.5847 28.147 24.2129 28.0995 21.8411C28.0757 20.6177 28.0044 19.3694 28.0044 18.1461C28.0044 17.6717 28.0519 17.1974 28.147 16.723C28.5748 14.5759 30.4763 13.3026 32.0688 13.1029C34.3506 12.8033 36.7987 14.4261 37.4405 16.9727C37.6781 17.9214 37.6781 18.8701 37.7019 19.8188C37.7732 22.615 37.8208 25.3863 37.8683 28.1825C37.8683 28.6319 37.9396 29.1063 37.9396 29.5557C37.9634 29.7304 37.9158 29.9052 37.8921 30.1049Z" fill="white"/>
<path d="M105.371 17.0978C106.25 17.1727 107.082 17.2226 107.938 17.2975C108.769 17.3724 109.601 17.4223 110.505 17.4972C110.505 18.8704 110.338 20.2435 110.267 21.6666C109.364 21.6416 108.532 21.6167 107.676 21.5667C106.844 21.5168 106.012 21.4669 105.157 21.4169C104.99 22.4905 104.943 23.4892 104.919 24.5877C106.535 24.7375 108.104 24.8623 109.673 25.0121C109.863 27.334 109.102 29.1315 107.177 30.1801C104.349 31.753 100.926 30.1302 100.142 26.8846C100.023 26.4102 99.9989 25.9109 100.023 25.4116C100.07 23.9885 100.142 22.5404 100.237 21.1174C100.355 18.7705 100.498 16.4237 100.617 14.0769C100.617 13.8771 100.641 13.6774 100.664 13.4277C101.235 13.4527 101.758 13.4527 102.281 13.4777C102.899 13.5026 103.493 13.5775 104.087 13.6275C104.396 13.6524 104.729 13.6275 105.062 13.6275C105.513 13.6524 105.561 13.7024 105.537 14.1518C105.489 14.9756 105.442 15.7746 105.394 16.5985C105.347 16.7233 105.371 16.898 105.371 17.0978Z" fill="white"/>
<path d="M54.5062 30.1546C54.5538 27.2336 54.5775 24.3375 54.6251 21.3415C53.0564 21.2167 51.559 21.2916 49.9902 21.2666C49.9902 20.992 50.014 20.7922 50.014 20.5675C50.0615 19.5439 50.0615 18.4953 50.1328 17.4717C50.2517 14.9751 51.963 13.4771 53.9833 13.1775C56.9306 12.7281 59.4263 15.1748 59.5689 18.0709C59.5927 18.6451 59.6164 19.2194 59.6164 19.7936C59.5927 21.691 59.5451 23.5635 59.4976 25.4609C59.4976 25.6607 59.5214 25.8604 59.5451 26.0601C60.4721 26.0851 61.3515 26.135 62.2785 26.16C62.3498 27.5082 62.2547 28.8813 62.2072 30.2295C61.7081 30.3793 55.2431 30.3044 54.5062 30.1546Z" fill="white"/>
<path d="M93.106 30.4545C93.106 29.8054 93.106 29.1562 93.1298 28.4822C93.1536 27.8081 93.2011 27.134 93.2011 26.4599C93.2011 26.2102 93.1536 25.9606 93.1298 25.7359C92.5831 25.7858 92.1315 25.8357 91.6562 25.8607C90.7054 25.9106 89.3031 25.0618 88.7802 23.6886C88.5663 23.0894 88.4712 22.4653 88.4712 21.8162C88.5187 19.8938 88.5425 17.9963 88.5663 16.0739C88.5663 15.4248 88.5663 14.7507 88.59 14.1016C88.59 13.9268 88.6138 13.752 88.6376 13.5273C90.2301 13.5523 91.7988 13.5773 93.415 13.6022C93.4388 13.802 93.4626 13.9518 93.4626 14.1016C93.4388 15.2251 93.3913 16.3735 93.3675 17.497C93.3675 17.7716 93.3913 18.0462 93.415 18.3958C94.9362 18.4207 96.4098 18.4457 97.931 18.4707C97.931 18.8951 97.9548 19.2946 97.9548 19.694C97.9073 22.2905 97.8359 24.862 97.7646 27.4585C97.7409 28.3074 97.7409 29.1812 97.7409 30.0301C97.7409 30.2298 97.7171 30.4295 97.7171 30.6792C96.1484 30.5793 94.651 30.5294 93.106 30.4545Z" fill="white"/>
<path d="M86.8074 20.1684C85.2862 20.3182 83.8126 20.4431 82.2914 20.5929C82.5529 23.8135 82.7906 27.0092 83.052 30.1799C82.5529 30.3796 78.8925 30.7292 78.1795 30.6293C78.1319 30.0301 78.0606 29.4309 78.0131 28.8068C77.918 27.3338 77.823 25.8607 77.7279 24.3877C77.5853 22.5153 77.4189 20.6677 77.3 18.7953C77.2525 17.9464 77.2287 17.0726 77.514 16.2487C78.1557 14.4511 79.5818 13.1779 81.4358 13.0031C82.8143 12.8783 84.0265 13.2028 85.0961 14.1515C85.9518 14.9754 86.4747 15.9741 86.5935 17.2224C86.6886 18.0463 86.7599 18.8951 86.855 19.719C86.855 19.8189 86.8312 19.9437 86.8074 20.1684Z" fill="white"/>
<path d="M112.739 13.3525C114.26 13.4524 115.781 13.5523 117.35 13.6521C117.326 14.2763 117.302 14.8505 117.255 15.3998C117.184 16.3235 117.112 17.2223 117.041 18.1461C116.875 20.7176 116.684 23.3141 116.518 25.8856C116.518 25.9356 116.542 26.0105 116.566 26.1353C118.015 26.2351 119.489 26.31 120.986 26.4099C120.868 27.8829 120.749 29.306 120.63 30.754C120.535 30.754 120.44 30.779 120.345 30.779C118.301 30.6542 116.257 30.5044 114.212 30.3546C113.547 30.3047 112.881 30.2797 112.24 30.2547C112.05 30.2547 111.859 30.2298 111.693 30.2048C111.55 29.6555 112.43 15.3498 112.739 13.3525Z" fill="white"/>
<path d="M44.0007 13.1528C44.0482 14.7257 44.072 16.2237 44.1195 17.7966C45.3793 17.9214 46.6152 17.8215 47.9225 17.8465C47.97 19.2696 47.9463 20.6677 47.9463 22.0908C46.7103 22.3404 45.4743 22.1407 44.2622 22.2655C44.2859 24.862 44.3572 27.4585 44.4048 30.1299C42.8598 30.1799 41.3624 30.2048 39.7937 30.2548C39.7937 29.8054 39.7937 29.4309 39.7937 29.0564C39.7462 26.6097 39.7224 24.163 39.6749 21.7163C39.6511 19.9187 39.6035 18.1211 39.556 16.3485C39.5322 15.4747 39.4847 14.6009 39.4609 13.7271C39.4609 13.6022 39.4847 13.5024 39.4847 13.3026C40.9821 13.1778 42.4558 13.1029 44.0007 13.1528Z" fill="white"/>
</svg>
