<svg width="45" height="48" viewBox="0 0 45 48" fill="none" xmlns="http://www.w3.org/2000/svg">
<path d="M44.178 12.2133C44.178 12.1924 44.178 12.1924 44.178 12.1714C44.178 11.8151 43.9895 11.4379 43.6543 11.2702C42.9631 10.893 42.2718 10.5367 41.5596 10.1594C39.8838 9.27919 38.2081 8.37799 36.5114 7.49775C34.4795 6.42889 32.4686 5.36003 30.4367 4.27021C28.6771 3.34805 26.9176 2.40494 25.179 1.48278C24.3411 1.04266 23.5032 0.560629 22.6444 0.141467C22.2673 -0.0471557 21.9112 -0.0471557 21.5342 0.141467C21.4504 0.183383 21.3666 0.225299 21.2828 0.267216C20.8639 0.476796 20.424 0.707335 20.005 0.916916C18.434 1.73428 16.842 2.55165 15.271 3.36901C13.2391 4.41692 11.2282 5.44386 9.19635 6.49177C7.353 7.43488 5.50966 8.37799 3.68726 9.32111C2.82843 9.76123 1.9696 10.2013 1.13171 10.6415C1.00603 10.6834 0.901295 10.7253 0.796559 10.8091C0.754665 10.8301 0.733718 10.851 0.691824 10.872C0.628983 10.893 0.587088 10.9139 0.524247 10.9558C0.210041 11.1025 0.0215169 11.5007 0.0215169 11.857C0.0215169 12.6325 0.0215169 13.4079 0.0215169 14.1834C0.0215169 16.0487 0.0215169 17.893 0.0215169 19.7582C0.0215169 22.0217 0.0215169 24.2642 0.0215169 26.5277C0.0215169 28.4768 0.0215169 30.4259 0.0215169 32.354C0.0215169 33.2972 0.000569755 34.2612 0.0215169 35.2043C0.0215169 35.2253 0.0215169 35.2253 0.0215169 35.2463C0.0215169 35.393 0.063411 35.5397 0.126252 35.6864C0.126252 35.7073 0.147199 35.7073 0.147199 35.7283C0.168147 35.7702 0.189094 35.7912 0.210041 35.8331C0.251935 35.875 0.272882 35.9379 0.314776 35.9798C0.314776 35.9798 0.314776 36.0007 0.335723 36.0007C0.35667 36.0217 0.377618 36.0427 0.398565 36.0636C0.440459 36.1055 0.482353 36.1265 0.545194 36.1684C0.545194 36.1684 0.545194 36.1684 0.566141 36.1684C0.587088 36.1684 0.587088 36.1894 0.608036 36.1894C1.32024 36.6085 2.03244 37.0277 2.72369 37.4469C4.42041 38.4528 6.13807 39.4588 7.83478 40.4858C9.82476 41.6594 11.8147 42.854 13.8257 44.0277C15.4176 44.9708 17.0096 45.9139 18.5806 46.857C18.9996 47.1085 19.4185 47.36 19.8375 47.6115C19.9213 47.6534 20.005 47.7163 20.0888 47.7582C20.4659 47.9469 20.8429 47.9259 21.199 47.7373C22.0579 47.3181 22.8957 46.857 23.7546 46.4169C25.4932 45.5157 27.2527 44.6145 28.9914 43.7133C31.0442 42.6445 33.1179 41.5966 35.1707 40.5277C36.9722 39.6055 38.7946 38.6624 40.596 37.7403C41.5806 37.2373 42.5441 36.7343 43.5286 36.2313C43.5705 36.2103 43.6124 36.1894 43.6543 36.1684C43.9685 36.0007 44.178 35.6235 44.178 35.2672C44.178 34.5127 44.178 33.7373 44.178 32.9828C44.178 31.1385 44.178 29.3151 44.178 27.4708C44.178 25.2493 44.178 23.0277 44.178 20.8061C44.178 18.878 44.178 16.9708 44.178 15.0427C44.178 14.0786 44.1989 13.1564 44.178 12.2133ZM3.68726 11.6684C5.36303 10.8091 7.03879 9.94985 8.71456 9.06961C10.7255 8.02171 12.7574 6.99476 14.7683 5.94686C16.5278 5.04566 18.2664 4.14446 20.026 3.24326C20.7172 2.88698 21.4085 2.55165 22.0788 2.19536C22.6025 2.46781 23.1052 2.74027 23.6289 3.01272C25.3047 3.89296 26.9804 4.79416 28.6353 5.6744C30.6671 6.74326 32.699 7.83308 34.7309 8.90195C36.4904 9.8241 38.229 10.7672 39.9886 11.6894C40.0514 11.7313 40.1352 11.7732 40.198 11.7942C40.0724 11.857 39.9467 11.9199 39.8001 11.9828C38.0824 12.8421 36.3647 13.6804 34.6471 14.5397C32.5733 15.5666 30.4995 16.5936 28.4258 17.6415C26.6243 18.5427 24.8229 19.4229 23.0214 20.3241C22.3302 20.6594 21.618 20.9948 20.9267 21.351C20.4449 21.0786 19.9841 20.8271 19.5023 20.5546C17.9522 19.6954 16.4021 18.8151 14.8521 17.9558C12.9668 16.9079 11.0816 15.8391 9.19635 14.7912C7.58342 13.89 5.94955 12.9678 4.33662 12.0666C4.1481 11.9409 3.91768 11.8151 3.68726 11.6684ZM19.1881 44.7822C17.638 43.86 16.0879 42.9379 14.5169 42.0157C12.6317 40.9049 10.7464 39.7732 8.86119 38.6624C7.22732 37.6984 5.61439 36.7343 3.98052 35.7702C3.35211 35.393 2.72369 35.0157 2.09528 34.6385C2.09528 34.0726 2.09528 33.4858 2.09528 32.9199C2.09528 31.0546 2.09528 29.2103 2.09528 27.3451C2.09528 25.0816 2.09528 22.8391 2.09528 20.5756C2.09528 18.6265 2.09528 16.6774 2.09528 14.7493C2.09528 14.2463 2.11623 13.7433 2.11623 13.2193C2.40949 13.387 2.70275 13.5546 2.996 13.7223C4.65083 14.6445 6.30565 15.5876 7.96047 16.5097C9.92949 17.5996 11.8776 18.6894 13.8257 19.7792C15.4176 20.6804 17.0306 21.5816 18.6225 22.4828C19.0834 22.7343 19.5442 23.0067 20.005 23.2582C20.026 23.2792 20.0679 23.3001 20.0888 23.3001V45.3271C19.8165 45.1385 19.5023 44.9708 19.1881 44.7822ZM40.3656 35.4978C38.5851 36.4199 36.7837 37.3421 35.0032 38.2642C32.8456 39.375 30.6671 40.4858 28.5096 41.6175C26.6243 42.5816 24.76 43.5457 22.8748 44.5097C22.5187 44.6983 22.1626 44.866 21.8065 45.0546V23.3211C22.4559 23.0067 23.0843 22.6924 23.7127 22.378C25.3675 21.5606 27.0223 20.7223 28.6981 19.9049C30.709 18.899 32.7199 17.9139 34.7309 16.9079C36.5114 16.0277 38.2919 15.1475 40.0724 14.2672C40.7636 13.9319 41.4339 13.5966 42.1252 13.2403C42.1252 13.6594 42.1252 14.0576 42.1252 14.4768C42.1252 16.3211 42.1252 18.1445 42.1252 19.9888C42.1252 22.2103 42.1252 24.4319 42.1252 26.6534C42.1252 28.5816 42.1252 30.4888 42.1252 32.4169C42.1252 33.1504 42.1042 33.884 42.1042 34.6385C41.4968 34.9109 40.9312 35.2043 40.3656 35.4978Z" fill="white"/>
<path d="M6.97552 22.1055C6.09575 22.1055 5.38354 22.818 5.38354 23.6983C5.38354 24.5785 6.09575 25.2911 6.97552 25.2911C7.8553 25.2911 8.5675 24.5785 8.5675 23.6983C8.5675 22.818 7.8553 22.1055 6.97552 22.1055Z" fill="white"/>
<path d="M10.4108 26.5273C9.53105 26.5273 8.81885 27.2399 8.81885 28.1202C8.81885 29.0004 9.53105 29.713 10.4108 29.713C11.2906 29.713 12.0028 29.0004 12.0028 28.1202C12.0238 27.2399 11.2906 26.5273 10.4108 26.5273Z" fill="white"/>
<path d="M6.97552 30.0273C6.09575 30.0273 5.38354 30.7399 5.38354 31.6202C5.38354 32.5004 6.09575 33.213 6.97552 33.213C7.8553 33.213 8.5675 32.5004 8.5675 31.6202C8.5675 30.7399 7.8553 30.0273 6.97552 30.0273Z" fill="white"/>
</svg>
