<svg width="230" height="71" viewBox="0 0 230 71" fill="none" xmlns="http://www.w3.org/2000/svg">
<path d="M46.8455 64.5896V64.6001C46.8455 65.9941 46.9139 67.386 46.9951 69.0399C46.9958 69.0529 46.9964 69.0658 46.997 69.0787C53.4049 68.9362 59.7698 68.7937 66.1347 68.6512L66.1731 68.6504L66.2712 68.6482C72.6498 68.5054 79.0287 68.3626 85.451 68.2198C85.5071 67.7203 85.5455 67.3126 85.5455 66.9001C85.5455 66.0476 85.4744 65.1636 85.3988 64.2309L85.3971 64.2107C85.3235 63.3024 85.246 62.3468 85.2455 61.4091C85.0455 50.2116 84.8456 39.1188 84.5458 27.9269L84.5458 27.9264C84.5368 27.5829 84.5285 27.2407 84.5203 26.8999C84.4365 23.4271 84.356 20.0896 83.4784 16.7546L83.4764 16.7471L83.4765 16.7471C81.0059 7.05497 71.0912 0.854669 61.9741 1.99183C55.5731 2.85349 48.0143 7.73048 46.3243 15.805L46.324 15.8061C45.9387 17.6365 45.7462 19.4641 45.7455 21.29C45.7954 23.7309 45.8701 26.1974 45.945 28.6698L45.9451 28.6723C46.02 31.1454 46.0952 33.6243 46.1453 36.0791L46.8455 64.5896ZM46.8455 64.5896L46.8453 64.5791M46.8455 64.5896L46.8453 64.5791M46.8453 64.5791C46.7452 59.8264 46.6202 55.0742 46.4952 50.3251M46.8453 64.5791L46.4952 50.3251M46.4952 50.3251L46.4951 50.3238M46.4952 50.3251L46.4951 50.3238M46.4951 50.3238C46.3701 45.5736 46.2452 40.8264 46.1453 36.0797L46.4951 50.3238Z" stroke="white" stroke-width="2"/>
<path d="M189.401 5.10566C189.242 4.58713 189.192 4.24201 189.191 4.02825C195.151 3.31515 201.289 3.12814 207.689 3.54976C207.721 3.78173 207.746 4.09603 207.746 4.49974V4.51224L207.746 4.52474C207.799 6.64143 207.823 8.87232 207.85 11.2477C207.873 13.3784 207.898 15.6253 207.946 18.0103C207.946 18.4048 207.999 18.8854 208.055 19.3997C208.058 19.4273 208.061 19.455 208.064 19.4828C208.126 20.0558 208.199 20.7349 208.247 21.5585L208.307 22.5749L209.322 22.4968C215.532 22.0192 221.47 21.9084 227.407 21.9889C227.693 23.0669 227.763 24.2605 227.469 25.5828L227.439 25.7188L227.447 25.8579C228.045 36.1261 228.145 46.4994 227.946 56.5799L227.944 56.6537L227.954 56.7269C228.447 60.5752 228.541 63.8946 228.251 66.6969L228.231 66.8889L228.284 67.0745C228.473 67.7373 228.545 68.181 228.546 68.4684C222.709 69.0676 216.939 69.0802 210.839 68.5813C210.822 67.1306 210.766 65.4187 210.702 63.4584C210.684 62.8879 210.665 62.2964 210.646 61.6841V61.6739V61.661V61.6481V61.6351V61.6222V61.6092V61.5962V61.5832V61.5702V61.5571V61.5441V61.531V61.5179V61.5048V61.4917V61.4786V61.4655V61.4524V61.4392V61.426V61.4129V61.3997V61.3864V61.3732V61.36V61.3467V61.3335V61.3202V61.3069V61.2936V61.2803V61.267V61.2536V61.2403V61.2269V61.2135V61.2001V61.1867V61.1733V61.1598V61.1464V61.1329V61.1195V61.106V61.0925V61.0789V61.0654V61.0519V61.0383V61.0248V61.0112V60.9976V60.984V60.9704V60.9567V60.9431V60.9294V60.9158V60.9021V60.8884V60.8747V60.8609V60.8472V60.8335V60.8197V60.8059V60.7921V60.7783V60.7645V60.7507V60.7369V60.723V60.7091V60.6953V60.6814V60.6675V60.6536V60.6396V60.6257V60.6117V60.5978V60.5838V60.5698V60.5558V60.5418V60.5278V60.5137V60.4997V60.4856V60.4715V60.4574V60.4433V60.4292V60.4151V60.4009V60.3868V60.3726V60.3584V60.3443V60.3301V60.3158V60.3016V60.2874V60.2731V60.2589V60.2446V60.2303V60.216V60.2017V60.1873V60.173V60.1586V60.1443V60.1299V60.1155V60.1011V60.0867V60.0723V60.0579V60.0434V60.0289V60.0145V60V59.9855V59.971V59.9565V59.9419V59.9274V59.9128V59.8983V59.8837V59.8691V59.8545V59.8399V59.8252V59.8106V59.7959V59.7813V59.7666V59.7519V59.7372V59.7225V59.7078V59.6931V59.6783V59.6635V59.6488V59.634V59.6192V59.6044V59.5896V59.5747V59.5599V59.5451V59.5302V59.5153V59.5004V59.4855V59.4706V59.4557V59.4408V59.4258V59.4109V59.3959V59.3809V59.3659V59.3509V59.3359V59.3209V59.3058V59.2908V59.2757V59.2607V59.2456V59.2305V59.2154V59.2003V59.1851V59.17V59.1548V59.1397V59.1245V59.1093V59.0941V59.0789V59.0637V59.0485V59.0332V59.018V59.0027V58.9874V58.9722V58.9569V58.9415V58.9262V58.9109V58.8956V58.8802V58.8648V58.8495V58.8341V58.8187V58.8033V58.7879V58.7724V58.757V58.7415V58.7261V58.7106V58.6951V58.6796V58.6641V58.6486V58.6331V58.6175V58.602V58.5864V58.5709V58.5553V58.5397V58.5241V58.5085V58.4928V58.4772V58.4616V58.4459V58.4302V58.4145V58.3989V58.3832V58.3675V58.3517V58.336V58.3203V58.3045V58.2887V58.273V58.2572V58.2414V58.2256V58.2098V58.1939V58.1781V58.1623V58.1464V58.1305V58.1146V58.0988V58.0829V58.0669V58.051V58.0351V58.0192V58.0032V57.9872V57.9713V57.9553V57.9393V57.9233V57.9073V57.8913V57.8752V57.8592V57.8431V57.8271V57.811V57.7949V57.7788V57.7627V57.7466V57.7305V57.7143V57.6982V57.682V57.6659V57.6497V57.6335V57.6173V57.6011V57.5849V57.5687V57.5524V57.5362V57.5199V57.5037V57.4874V57.4711V57.4548V57.4385V57.4222V57.4059V57.3895V57.3732V57.3568V57.3405V57.3241V57.3077V57.2913V57.2749V57.2585V57.2421V57.2257V57.2092V57.1928V57.1763V57.1598V57.1434V57.1269V57.1104V57.0939V57.0773V57.0608V57.0443V57.0277V57.0112V56.9946V56.978V56.9615V56.9449V56.9283V56.9116V56.895V56.8784V56.8617V56.8451V56.8284V56.8118V56.7951V56.7784V56.7617V56.745V56.7283V56.7116V56.6948V56.6781V56.6613V56.6446V56.6278V56.611V56.5942V56.5774V56.5606V56.5438V56.527V56.5101V56.4933V56.4764V56.4596V56.4427V56.4258V56.4089V56.392V56.3751V56.3582V56.3413V56.3244V56.3074V56.2905V56.2735V56.2565V56.2396V56.2226V56.2056V56.1886V56.1716V56.1545V56.1375V56.1205V56.1034V56.0864V56.0693V56.0522V56.0351V56.018V56.0009V55.9838V55.9667V55.9496V55.9324V55.9153V55.8981V55.881V55.8638V55.8466V55.8294V55.8122V55.795V55.7778V55.7606V55.7434V55.7261V55.7089V55.6916V55.6744V55.6571V55.6398V55.6225V55.6052V55.5879V55.5706V55.5533V55.5359V55.5186V55.5013V55.4839V55.4665V55.4492V55.4318V55.4144V55.397V55.3796V55.3622V55.3447V55.3273V55.3099V55.2924V55.275V55.2575V55.24V55.2226V55.2051V55.1876V55.1701V55.1526V55.135V55.1175V55.1V55.0824V55.0649V55.0473V55.0298V55.0122V54.9946V54.977V54.9594V54.9418V54.9242V54.9066V54.8889V54.8713V54.8536V54.836V54.8183V54.8007V54.783V54.7653V54.7476V54.7299V54.7122V54.6945V54.6767V54.659V54.6413V54.6235V54.6058V54.588V54.5702V54.5525V54.5347V54.5169V54.4991V54.4813V54.4635V54.4456V54.4278V54.41V54.3921V54.3743V54.3564V54.3385V54.3207V54.3028V54.2849V54.267V54.2491V54.2312V54.2133V54.1953V54.1774V54.1595V54.1415V54.1236V54.1056V54.0876V54.0696V54.0517V54.0337V54.0157V53.9977V53.9797V53.9616V53.9436V53.9256V53.9075V53.8895V53.8714V53.8534V53.8353V53.8172V53.7991V53.781V53.7629V53.7448V53.7267V53.7086V53.6905V53.6723V53.6542V53.6361V53.6179V53.5997C210.646 53.2139 210.583 52.7441 210.509 52.2602C210.473 52.0288 210.432 51.7788 210.389 51.5175L210.379 51.4552C210.332 51.1693 210.283 50.8674 210.234 50.5477L210.065 49.4524L208.993 49.7321C206.743 50.3192 204.855 50.5932 203.201 50.5013L203.09 50.4951L202.981 50.5134C201.179 50.8138 198.847 50.2819 196.697 48.9497C194.562 47.6271 192.703 45.5731 191.789 42.9687L191.751 42.86L191.689 42.7629C190.426 40.7773 189.962 38.511 190.239 36.0102L190.249 35.9227L190.243 35.8349C189.745 28.1596 189.546 20.391 189.745 13.2275L189.748 13.1334L189.733 13.0405C189.241 9.99442 189.156 7.40718 189.434 5.54809L189.468 5.3231L189.401 5.10566ZM228.514 68.7248C228.514 68.7247 228.515 68.7225 228.517 68.7186C228.515 68.723 228.514 68.725 228.514 68.7248ZM189.211 3.8275C189.212 3.82442 189.212 3.82306 189.212 3.82315C189.212 3.82323 189.212 3.82477 189.211 3.8275Z" stroke="white" stroke-width="2"/>
<path d="M161.776 46.8006L160.799 46.771L160.747 47.7468C160.547 51.4994 160.372 55.1766 160.197 58.8504L160.197 58.8525C160.036 62.2215 159.876 65.5878 159.696 69.0112C159.509 69.015 159.325 69.0195 159.144 69.024C158.257 69.0457 157.438 69.0658 156.622 69.003L156.608 69.0019L156.593 69.0012L150.293 68.7012L143.993 68.4012L143.969 68.4001H143.946C143.704 68.4001 143.43 68.4128 143.178 68.4245L143.142 68.4262C142.867 68.4388 142.612 68.4501 142.383 68.4501C142.271 68.4501 142.177 68.4472 142.102 68.4425C142.028 68.221 141.984 67.9528 141.969 67.6297C141.948 67.1583 141.991 66.6498 142.041 66.0906L142.044 66.0646L142.045 66.0385C142.245 60.8443 142.494 55.6742 142.744 50.4984L142.744 50.496C142.994 45.323 143.245 40.1443 143.445 34.9398C143.645 30.0351 143.795 25.1312 143.945 20.2333L143.945 20.2307C144.095 15.3298 144.245 10.4349 144.445 5.54088L144.446 5.5205V5.5001C144.446 5.17611 144.405 4.84703 144.372 4.58427C144.37 4.56353 144.367 4.54321 144.365 4.52333C144.328 4.22546 144.303 3.99596 144.308 3.78387C144.313 3.52577 144.357 3.31602 144.523 3.11265C147.626 3.21041 150.806 3.28497 154.032 3.36062C156.758 3.42452 159.517 3.4892 162.289 3.56928C162.171 5.68814 162.068 7.74011 161.967 9.77051C161.836 12.3971 161.706 14.9876 161.547 17.6402L161.51 18.2686L162.06 18.5743C163.122 19.1643 164.195 19.388 165.201 19.4832C165.701 19.5304 166.193 19.5466 166.656 19.5576C166.751 19.5599 166.844 19.5619 166.936 19.5639C167.294 19.5718 167.631 19.5792 167.967 19.5973C171.688 19.9827 174.809 21.2088 177.189 23.9537C178.979 26.0269 180.183 28.4499 180.554 31.1303C180.847 33.4754 180.946 35.8298 180.946 38.1001C180.946 40.4494 180.792 42.8369 180.631 45.3499C180.588 46.0187 180.544 46.6964 180.503 47.3846C176.409 47.3119 172.426 47.1694 168.421 47.0261C166.22 46.9473 164.012 46.8683 161.776 46.8006Z" stroke="white" stroke-width="2"/>
<path d="M24.2547 8.76489L24.2528 8.77868L24.2513 8.79252C24.0514 10.6417 23.8515 12.4659 23.6515 14.2911C23.4515 16.1159 23.2514 17.9417 23.0513 19.7925L23.0512 19.7938L23.051 19.7954C21.9512 30.0941 20.8507 40.3983 19.8502 50.7034L19.8455 50.7516V50.8C19.8455 50.9249 19.8606 51.0394 19.8717 51.1151C19.88 51.1722 19.9005 51.2963 19.9072 51.3396C19.9279 51.4747 19.9455 51.6198 19.9455 51.8V52.7065L20.8476 52.7952L20.8528 52.7957C26.6258 53.3635 32.4012 53.9316 38.4314 54.4997C38.3147 55.479 38.198 56.4512 38.0819 57.4186C37.5757 61.6357 37.0806 65.7616 36.6362 69.98C36.5397 69.9908 36.4602 69.9976 36.3863 69.9995C32.1075 69.6012 27.8528 69.1782 23.5945 68.7549L23.5931 68.7548C19.3212 68.3301 15.0458 67.905 10.7448 67.5049C9.35431 67.3561 7.9664 67.2561 6.6102 67.1584L6.52991 67.1526C5.14203 67.0526 3.78842 66.954 2.46297 66.8069C1.9636 66.7445 1.4688 66.6826 1.00018 66.621C1.00046 66.5611 1.00105 66.4976 1.00198 66.4306C1.00943 65.8921 1.03777 65.1615 1.08554 64.2587C1.18097 62.4551 1.35209 59.9984 1.57998 57.0874C2.0356 51.2673 2.71625 43.6549 3.46592 35.8709C4.87363 21.2542 6.51565 6.13091 7.36464 1.08125C13.1412 1.62371 18.8525 2.16979 24.8698 2.79346C24.695 4.91536 24.5117 6.88001 24.2547 8.76489Z" stroke="white" stroke-width="2"/>
<path d="M111.847 8.7456L111.847 8.7456L111.847 8.75417C111.947 10.5967 112.021 12.4152 112.096 14.2413L112.096 14.2443C112.171 16.0663 112.247 17.8958 112.347 19.7513C112.597 24.9504 112.847 30.1245 113.097 35.2984L113.097 35.3078C113.347 40.4737 113.596 45.6396 113.846 50.8303C113.851 51.0888 113.919 51.3078 113.972 51.4664C113.996 51.538 114.024 51.6193 114.054 51.702C114.06 51.7186 114.065 51.7352 114.071 51.7518C114.108 51.8558 114.15 51.9745 114.197 52.1164L114.441 52.8485L115.211 52.798C118.446 52.5859 121.677 52.4037 124.94 52.2196C127.527 52.0737 130.135 51.9267 132.781 51.7627C132.903 55.3422 133.025 58.8542 133.146 62.3659C133.204 64.0196 133.261 65.6731 133.318 67.3336C133.23 67.3585 133.143 67.3837 133.061 67.4092C128.807 67.6561 124.552 67.8787 120.293 68.1016L120.289 68.1018C115.991 68.3267 111.689 68.5518 107.387 68.8019L107.387 68.8018L107.374 68.8027C104.575 69.0027 101.773 69.2028 99.0717 69.4029L99.0465 69.4048L99.0215 69.4079C98.5713 69.4642 98.1172 69.4862 97.6689 69.4947C97.6604 69.434 97.6516 69.3698 97.6427 69.3019C97.5722 68.7656 97.4931 68.0366 97.407 67.1352C97.235 65.3344 97.038 62.8769 96.8273 59.9625C96.406 54.1354 95.9313 46.5037 95.494 38.6943C94.6735 24.0433 93.9898 8.85595 94.0269 3.74147C97.1111 3.55309 100.176 3.38689 103.27 3.21917C105.988 3.07177 108.729 2.92319 111.523 2.75734C111.665 4.75036 111.75 6.62112 111.832 8.43505C111.837 8.53875 111.842 8.64226 111.847 8.7456Z" stroke="white" stroke-width="2"/>
</svg>
