<svg width="325" height="596" viewBox="0 0 325 596" fill="none" xmlns="http://www.w3.org/2000/svg">
<path d="M320.89 2.62347C322.351 6.1879 323.186 8.91364 323.707 12.5829C324.229 16.357 325.39 573.565 324.868 577.444C324.451 581.218 322.468 584.258 321.008 587.928C316.625 588.347 312.66 589.5 308.174 589.815C303.792 590.129 299.409 590.444 294.923 590.653C290.54 590.863 286.054 590.863 281.672 590.968C277.289 591.073 272.803 590.653 268.42 590.653C264.038 590.653 47.5251 596 43.1428 596C38.6562 596 34.2739 595.685 29.8916 595.581C25.405 595.476 21.0227 594.532 16.6404 594.427C12.1538 594.323 7.66721 594.323 3.28494 594.113C0.989456 593.065 1.51115 588.242 0.885112 583C0.572092 579.436 -0.366961 575.662 0.154739 571.783C0.676439 567.065 2.22885 11.4297 4.10697 9.33293C8.48925 9.01842 12.0368 5.55884 16.5234 5.34916C20.9057 5.13949 25.3923 6.29268 29.8789 6.08301C34.2612 5.87334 38.6435 3.56694 43.1301 3.4621C259.538 -0.416784 264.025 0.946091 268.512 0.946091C272.894 0.841255 277.381 2.7283 281.867 2.62347C286.354 2.62347 290.736 3.04281 295.118 3.04281C299.605 3.04281 303.987 -0.102272 308.474 0.00256385C312.856 0.00256385 316.508 2.51863 320.89 2.62347Z" fill="#E7524C"/>
</svg>
