<svg width="127" height="40" viewBox="0 0 127 40" fill="none" xmlns="http://www.w3.org/2000/svg">
<path d="M47.7721 38.2861C40.303 38.4521 32.9446 38.6181 25.4755 38.784C25.4201 37.6222 25.3648 36.6816 25.3648 35.7411C25.2542 30.485 25.0882 25.229 24.9775 19.973C24.9222 17.262 24.8116 14.4956 24.7562 11.7846C24.7562 10.7334 24.8669 9.6822 25.0882 8.63099C26.0841 3.87289 30.5102 1.05123 34.2171 0.553291C39.5285 -0.11063 45.2824 3.48561 46.7209 9.12893C47.2742 11.2313 47.2742 13.3338 47.3295 15.4362C47.4955 21.6328 47.6062 27.774 47.7168 33.9706C47.7168 34.9665 47.8828 36.0177 47.8828 37.0136C47.8828 37.4009 47.8275 37.7882 47.7721 38.2861Z" fill="white"/>
<path d="M116.101 38.452C116.101 37.3455 116.045 35.907 115.99 34.1365C115.99 32.9193 115.99 31.3702 115.99 29.655C115.99 29.3231 115.879 28.7698 115.769 28.0506C114.496 28.3825 113.39 28.5485 112.394 28.4932C110.07 28.8805 106.695 27.11 105.589 23.9564C104.814 22.7392 104.537 21.356 104.703 19.8622C104.427 15.6021 104.316 11.2866 104.427 7.30305C104.15 5.58792 104.095 4.0941 104.261 2.98756C104.039 2.26832 104.095 1.88103 104.316 1.71505C107.857 1.27244 111.509 1.16178 115.326 1.43842C115.381 1.49374 115.492 1.8257 115.492 2.48962C115.547 4.70269 115.547 7.19239 115.603 9.95873C115.603 10.346 115.713 10.9546 115.769 11.8952C119.365 11.6185 122.795 11.5632 126.225 11.6185C126.502 12.3931 126.613 13.2783 126.391 14.2742C126.723 19.9729 126.779 25.7268 126.668 31.3148C126.945 33.4726 127 35.3537 126.834 36.9582C127.055 37.7327 127.055 38.1754 126.834 38.3967C123.293 38.784 119.808 38.7839 116.101 38.452Z" fill="white"/>
<path d="M89.4885 26.4459C89.2672 30.5954 89.1012 34.579 88.8799 38.7285C88.1054 38.7285 87.3308 38.7838 86.6115 38.7285C84.2878 38.6178 81.9641 38.5071 79.6404 38.3965C79.1424 38.3965 78.3125 38.5071 78.2019 38.2858C77.9252 37.7879 77.9806 37.124 78.0359 36.5154C78.2572 30.7614 78.5892 25.0628 78.8105 19.3088C79.0318 13.8868 79.1424 8.46475 79.3637 3.04273C79.3637 2.43414 79.0318 1.71489 79.751 1.16162C83.1813 1.27227 86.7222 1.3276 90.3737 1.43825C90.2078 4.31524 90.0971 7.02625 89.9311 9.79259C90.927 10.3459 91.9782 10.2352 92.9741 10.2905C95.1319 10.5118 97.013 11.2311 98.4515 12.8909C99.5027 14.1081 100.222 15.5466 100.443 17.151C100.609 18.4789 100.665 19.8067 100.665 21.0792C100.665 22.905 100.499 24.7861 100.388 26.7779C96.681 26.7226 93.1401 26.5566 89.4885 26.4459Z" fill="white"/>
<path d="M3.62143 0C7.16234 0.33196 10.6479 0.66392 14.3548 1.05121C14.2442 2.43438 14.1335 3.70689 13.9675 4.92408C13.7462 6.97116 13.5249 8.96293 13.3036 11.01C12.695 16.7087 12.0864 22.4073 11.5331 28.106C11.5331 28.2166 11.5885 28.3826 11.5885 28.6592C14.9634 28.9912 18.3383 29.3232 21.8792 29.6551C21.492 32.9194 21.1047 36.0177 20.7727 39.2266C20.5514 39.2266 20.3301 39.282 20.1088 39.282C15.3507 38.8393 10.6479 38.3414 5.88982 37.8988C4.34067 37.7328 2.79153 37.6775 1.2977 37.5115C0.855091 37.4562 0.412477 37.4009 0.0251903 37.3455C-0.30677 35.9624 2.7362 4.37081 3.62143 0Z" fill="white"/>
<path d="M51.4791 1.54902C55.02 1.32772 58.5609 1.16174 62.2125 0.94043C62.3231 2.3236 62.3784 3.59611 62.4338 4.8133C62.5444 6.86039 62.5997 8.85215 62.7104 10.8992C62.987 16.6532 63.2637 22.3519 63.5403 28.1058C63.5403 28.2165 63.5956 28.3271 63.7063 28.6591C67.0812 28.4378 70.5115 28.2718 73.997 28.0505C74.1077 31.3148 74.2183 34.4684 74.329 37.6774C74.1077 37.7327 73.8864 37.788 73.7204 37.8433C68.9623 38.12 64.2042 38.3413 59.4461 38.6179C57.897 38.7286 56.3478 38.8392 54.854 38.9499C54.4114 39.0052 53.9688 39.0052 53.5815 39.0052C53.0836 37.6774 51.3131 5.97516 51.4791 1.54902Z" fill="white"/>
</svg>
