<svg width="79" height="64" viewBox="0 0 79 64" fill="none" xmlns="http://www.w3.org/2000/svg">
<path d="M43.583 6.66722C47.081 3.33361 51.4534 1.51528 56.1174 1.51528C58.4494 1.51528 60.7814 2.12139 63.1134 3.03056C70.4008 6.36417 74.7733 13.9406 74.1903 22.1231C74.1903 22.7292 73.6073 23.0322 73.0243 23.0322L71.5668 22.4261C70.9838 22.1231 70.6923 22.4261 70.9838 23.0322L73.0243 27.275C73.3158 27.8811 73.8988 28.1842 74.4818 27.8811L78.5628 25.7597C79.1458 25.4567 79.1458 25.1536 78.5628 24.8506L76.8138 24.2444C76.2308 23.9414 75.9393 23.3353 75.9393 22.7292C77.1053 13.6375 72.1498 4.84889 63.9879 1.51528C61.6559 0.606111 59.0324 0 56.4089 0C51.4534 0 46.7895 1.81833 43 5.455C43 5.455 43.2915 5.75806 43.583 6.06111C43.2915 6.36417 43.583 6.66722 43.583 6.66722Z" fill="white"/>
<path d="M64 40.3038V34.6329C64 32 61.9747 29.9747 59.3418 29.9747H34.0253V4.65823C34.0253 2.02532 32 0 29.3671 0H4.65823C2.02532 0 0 2.02532 0 4.65823V34.6329V59.3418C0 61.9747 2.02532 64 4.65823 64H29.3671H59.3418C61.9747 64 64 61.9747 64 59.3418V53.4684V40.3038ZM2.02532 4.65823C2.02532 3.24051 3.24051 2.02532 4.65823 2.02532H10.3291V3.03797C10.3291 3.8481 10.9367 4.65823 11.9494 4.65823H22.2785C23.0886 4.65823 23.8987 4.05063 23.8987 3.03797V2.02532H29.7722C31.1899 2.02532 32.4051 3.24051 32.4051 4.65823V29.9747H4.65823C3.64557 29.9747 2.83544 30.1772 2.02532 30.7848V4.65823ZM61.9747 59.3418C61.9747 60.7595 60.7595 61.9747 59.3418 61.9747H33.2152H4.65823C3.24051 61.9747 2.02532 60.7595 2.02532 59.3418V34.6329C2.02532 33.2152 3.24051 32 4.65823 32H32H34.0253H59.3418C60.7595 32 61.9747 33.2152 61.9747 34.6329V40.3038H60.962C60.1519 40.3038 59.3418 40.9114 59.3418 41.9241V52.2532C59.3418 53.0633 59.9494 53.8734 60.962 53.8734H61.9747V59.3418Z" fill="white"/>
</svg>
