<svg width="13" height="17" viewBox="0 0 13 17" fill="none" xmlns="http://www.w3.org/2000/svg">
<path d="M12.3699 6.32361C11.8701 7.00215 11.3195 7.61365 10.7136 8.17539C8.73504 6.6068 6.83164 4.89297 4.98964 3.23443C5.03625 2.93571 6.13405 1.66709 6.59568 1.40135C8.51794 2.9831 10.4592 4.66718 12.3699 6.32361Z" fill="white"/>
<path d="M7.02056 16.3452C6.18189 16.4555 5.35904 16.424 4.53619 16.2507C4.50454 11.4479 4.64696 6.56628 4.77355 1.84215C5.04256 1.5272 6.71991 1.54295 7.21045 1.88939C7.21045 6.62926 7.09968 11.5266 7.02056 16.3452Z" fill="white"/>
<path d="M5.97269 0.792676C6.60386 1.42529 7.15706 2.0815 7.66557 2.79925C5.79716 4.48154 3.77577 6.05181 1.82745 7.5804C1.51494 7.47394 0.345581 6.12721 0.138155 5.61543C2.01504 3.99283 4.02045 2.39182 5.97269 0.792676Z" fill="white"/>
</svg>
