<svg width="36" height="36" viewBox="0 0 36 36" fill="none" xmlns="http://www.w3.org/2000/svg">
<path d="M35.2003 16.4173C34.5799 12.4609 32.6492 9.09952 30.0032 6.10531C24.3692 -0.294565 15.5575 -1.68722 7.20794 3.01615C2.973 5.6622 -0.128819 10.5365 0.00411573 17.0883C0.137051 23.6971 3.15025 28.8815 8.53096 32.7113C15.8804 37.9465 25.8948 36.7754 31.5034 29.9703C34.7508 26.0139 35.9979 21.4498 35.2003 16.4173ZM28.1421 18.1201C28.1421 18.1201 28.1421 21.4055 27.7243 22.9944C27.49 23.8617 26.8064 24.5453 25.9391 24.7795C24.3566 25.1973 18.0137 25.1973 18.0137 25.1973C18.0137 25.1973 11.6897 25.1973 10.0882 24.7605C9.22095 24.5263 8.53729 23.8427 8.30307 22.9754C7.88527 21.4055 7.88527 18.1075 7.88527 18.1075C7.88527 18.1075 7.88527 14.8221 8.30307 13.2332C8.53729 12.3659 9.23994 11.6633 10.0882 11.429C11.6708 11.0113 18.0137 11.0113 18.0137 11.0113C18.0137 11.0113 24.3502 11.0113 25.9391 11.4417C26.8064 11.6759 27.49 12.3596 27.7243 13.2268C28.1611 14.8157 28.1421 18.1201 28.1421 18.1201Z" fill="white"/>
<path d="M21.2736 18.101L16.0005 21.1395V15.0625L21.2736 18.101Z" fill="white"/>
</svg>
